# vtk DataFile Version 2.0
fixedWalls
ASCII
DATASET POLYDATA
POINTS 386 float
0 0 0 0 0 0.1 0 0.015625 0.1 0 0.015625
0 0 0.03125 0.1 0 0.03125 0 0 0.046875 0.1
0 0.046875 0 0 0.0625 0.1 0 0.0625 0 0
0.078125 0.1 0 0.078125 0 0 0.09375 0.1 0 0.09375
0 0 0.109375 0.1 0 0.109375 0 0 0.125 0.1
0 0.125 0 0 0.140625 0.1 0 0.140625 0 0
0.15625 0.1 0 0.15625 0 0 0.171875 0.1 0 0.171875
0 0 0.1875 0.1 0 0.1875 0 0 0.203125 0.1
0 0.203125 0 0 0.21875 0.1 0 0.21875 0 0
0.234375 0.1 0 0.234375 0 0 0.25 0.1 0 0.25
0 0 0.265625 0.1 0 0.265625 0 0 0.28125 0.1
0 0.28125 0 0 0.296875 0.1 0 0.296875 0 0
0.3125 0.1 0 0.3125 0 0 0.328125 0.1 0 0.328125
0 0 0.34375 0.1 0 0.34375 0 0 0.359375 0.1
0 0.359375 0 0 0.375 0.1 0 0.375 0 0
0.390625 0.1 0 0.390625 0 0 0.40625 0.1 0 0.40625
0 0 0.421875 0.1 0 0.421875 0 0 0.4375 0.1
0 0.4375 0 0 0.453125 0.1 0 0.453125 0 0
0.46875 0.1 0 0.46875 0 0 0.484375 0.1 0 0.484375
0 0 0.5 0.1 0 0.5 0 0 0.515625 0.1
0 0.515625 0 0 0.53125 0.1 0 0.53125 0 0
0.546875 0.1 0 0.546875 0 0 0.5625 0.1 0 0.5625
0 0 0.578125 0.1 0 0.578125 0 0 0.59375 0.1
0 0.59375 0 0 0.609375 0.1 0 0.609375 0 0
0.625 0.1 0 0.625 0 0 0.640625 0.1 0 0.640625
0 0 0.65625 0.1 0 0.65625 0 0 0.671875 0.1
0 0.671875 0 0 0.6875 0.1 0 0.6875 0 0
0.703125 0.1 0 0.703125 0 0 0.71875 0.1 0 0.71875
0 0 0.734375 0.1 0 0.734375 0 0 0.75 0.1
0 0.75 0 0 0.765625 0.1 0 0.765625 0 0
0.78125 0.1 0 0.78125 0 0 0.796875 0.1 0 0.796875
0 0 0.8125 0.1 0 0.8125 0 0 0.828125 0.1
0 0.828125 0 0 0.84375 0.1 0 0.84375 0 0
0.859375 0.1 0 0.859375 0 0 0.875 0.1 0 0.875
0 0 0.890625 0.1 0 0.890625 0 0 0.90625 0.1
0 0.90625 0 0 0.921875 0.1 0 0.921875 0 0
0.9375 0.1 0 0.9375 0 0 0.953125 0.1 0 0.953125
0 0 0.96875 0.1 0 0.96875 0 0 0.984375 0.1
0 0.984375 0 0 1 0.1 0 1 0 1
0 0 1 0.015625 0 1 0.015625 0.1 1 0
0.1 1 0.03125 0 1 0.03125 0.1 1 0.046875 0
1 0.046875 0.1 1 0.0625 0 1 0.0625 0.1 1
0.078125 0 1 0.078125 0.1 1 0.09375 0 1 0.09375
0.1 1 0.109375 0 1 0.109375 0.1 1 0.125 0
1 0.125 0.1 1 0.140625 0 1 0.140625 0.1 1
0.15625 0 1 0.15625 0.1 1 0.171875 0 1 0.171875
0.1 1 0.1875 0 1 0.1875 0.1 1 0.203125 0
1 0.203125 0.1 1 0.21875 0 1 0.21875 0.1 1
0.234375 0 1 0.234375 0.1 1 0.25 0 1 0.25
0.1 1 0.265625 0 1 0.265625 0.1 1 0.28125 0
1 0.28125 0.1 1 0.296875 0 1 0.296875 0.1 1
0.3125 0 1 0.3125 0.1 1 0.328125 0 1 0.328125
0.1 1 0.34375 0 1 0.34375 0.1 1 0.359375 0
1 0.359375 0.1 1 0.375 0 1 0.375 0.1 1
0.390625 0 1 0.390625 0.1 1 0.40625 0 1 0.40625
0.1 1 0.421875 0 1 0.421875 0.1 1 0.4375 0
1 0.4375 0.1 1 0.453125 0 1 0.453125 0.1 1
0.46875 0 1 0.46875 0.1 1 0.484375 0 1 0.484375
0.1 1 0.5 0 1 0.5 0.1 1 0.515625 0
1 0.515625 0.1 1 0.53125 0 1 0.53125 0.1 1
0.546875 0 1 0.546875 0.1 1 0.5625 0 1 0.5625
0.1 1 0.578125 0 1 0.578125 0.1 1 0.59375 0
1 0.59375 0.1 1 0.609375 0 1 0.609375 0.1 1
0.625 0 1 0.625 0.1 1 0.640625 0 1 0.640625
0.1 1 0.65625 0 1 0.65625 0.1 1 0.671875 0
1 0.671875 0.1 1 0.6875 0 1 0.6875 0.1 1
0.703125 0 1 0.703125 0.1 1 0.71875 0 1 0.71875
0.1 1 0.734375 0 1 0.734375 0.1 1 0.75 0
1 0.75 0.1 1 0.765625 0 1 0.765625 0.1 1
0.78125 0 1 0.78125 0.1 1 0.796875 0 1 0.796875
0.1 1 0.8125 0 1 0.8125 0.1 1 0.828125 0
1 0.828125 0.1 1 0.84375 0 1 0.84375 0.1 1
0.859375 0 1 0.859375 0.1 1 0.875 0 1 0.875
0.1 1 0.890625 0 1 0.890625 0.1 1 0.90625 0
1 0.90625 0.1 1 0.921875 0 1 0.921875 0.1 1
0.9375 0 1 0.9375 0.1 1 0.953125 0 1 0.953125
0.1 1 0.96875 0 1 0.96875 0.1 1 0.984375 0
1 0.984375 0.1 1 1 0 1 1 0.1 0.015625
0 0 0.015625 0 0.1 0.03125 0 0 0.03125 0
0.1 0.046875 0 0 0.046875 0 0.1 0.0625 0 0
0.0625 0 0.1 0.078125 0 0 0.078125 0 0.1 0.09375
0 0 0.09375 0 0.1 0.109375 0 0 0.109375 0
0.1 0.125 0 0 0.125 0 0.1 0.140625 0 0
0.140625 0 0.1 0.15625 0 0 0.15625 0 0.1 0.171875
0 0 0.171875 0 0.1 0.1875 0 0 0.1875 0
0.1 0.203125 0 0 0.203125 0 0.1 0.21875 0 0
0.21875 0 0.1 0.234375 0 0 0.234375 0 0.1 0.25
0 0 0.25 0 0.1 0.265625 0 0 0.265625 0
0.1 0.28125 0 0 0.28125 0 0.1 0.296875 0 0
0.296875 0 0.1 0.3125 0 0 0.3125 0 0.1 0.328125
0 0 0.328125 0 0.1 0.34375 0 0 0.34375 0
0.1 0.359375 0 0 0.359375 0 0.1 0.375 0 0
0.375 0 0.1 0.390625 0 0 0.390625 0 0.1 0.40625
0 0 0.40625 0 0.1 0.421875 0 0 0.421875 0
0.1 0.4375 0 0 0.4375 0 0.1 0.453125 0 0
0.453125 0 0.1 0.46875 0 0 0.46875 0 0.1 0.484375
0 0 0.484375 0 0.1 0.5 0 0 0.5 0
0.1 0.515625 0 0 0.515625 0 0.1 0.53125 0 0
0.53125 0 0.1 0.546875 0 0 0.546875 0 0.1 0.5625
0 0 0.5625 0 0.1 0.578125 0 0 0.578125 0
0.1 0.59375 0 0 0.59375 0 0.1 0.609375 0 0
0.609375 0 0.1 0.625 0 0 0.625 0 0.1 0.640625
0 0 0.640625 0 0.1 0.65625 0 0 0.65625 0
0.1 0.671875 0 0 0.671875 0 0.1 0.6875 0 0
0.6875 0 0.1 0.703125 0 0 0.703125 0 0.1 0.71875
0 0 0.71875 0 0.1 0.734375 0 0 0.734375 0
0.1 0.75 0 0 0.75 0 0.1 0.765625 0 0
0.765625 0 0.1 0.78125 0 0 0.78125 0 0.1 0.796875
0 0 0.796875 0 0.1 0.8125 0 0 0.8125 0
0.1 0.828125 0 0 0.828125 0 0.1 0.84375 0 0
0.84375 0 0.1 0.859375 0 0 0.859375 0 0.1 0.875
0 0 0.875 0 0.1 0.890625 0 0 0.890625 0
0.1 0.90625 0 0 0.90625 0 0.1 0.921875 0 0
0.921875 0 0.1 0.9375 0 0 0.9375 0 0.1 0.953125
0 0 0.953125 0 0.1 0.96875 0 0 0.96875 0
0.1 0.984375 0 0 0.984375 0 0.1 
POLYGONS 192 960
4 0 1 2 3 4 3 2 4 5 4
5 4 6 7 4 7 6 8 9 4
9 8 10 11 4 11 10 12 13 4
13 12 14 15 4 15 14 16 17 4
17 16 18 19 4 19 18 20 21 4
21 20 22 23 4 23 22 24 25 4
25 24 26 27 4 27 26 28 29 4
29 28 30 31 4 31 30 32 33 4
33 32 34 35 4 35 34 36 37 4
37 36 38 39 4 39 38 40 41 4
41 40 42 43 4 43 42 44 45 4
45 44 46 47 4 47 46 48 49 4
49 48 50 51 4 51 50 52 53 4
53 52 54 55 4 55 54 56 57 4
57 56 58 59 4 59 58 60 61 4
61 60 62 63 4 63 62 64 65 4
65 64 66 67 4 67 66 68 69 4
69 68 70 71 4 71 70 72 73 4
73 72 74 75 4 75 74 76 77 4
77 76 78 79 4 79 78 80 81 4
81 80 82 83 4 83 82 84 85 4
85 84 86 87 4 87 86 88 89 4
89 88 90 91 4 91 90 92 93 4
93 92 94 95 4 95 94 96 97 4
97 96 98 99 4 99 98 100 101 4
101 100 102 103 4 103 102 104 105 4
105 104 106 107 4 107 106 108 109 4
109 108 110 111 4 111 110 112 113 4
113 112 114 115 4 115 114 116 117 4
117 116 118 119 4 119 118 120 121 4
121 120 122 123 4 123 122 124 125 4
125 124 126 127 4 127 126 128 129 4
130 131 132 133 4 131 134 135 132 4
134 136 137 135 4 136 138 139 137 4
138 140 141 139 4 140 142 143 141 4
142 144 145 143 4 144 146 147 145 4
146 148 149 147 4 148 150 151 149 4
150 152 153 151 4 152 154 155 153 4
154 156 157 155 4 156 158 159 157 4
158 160 161 159 4 160 162 163 161 4
162 164 165 163 4 164 166 167 165 4
166 168 169 167 4 168 170 171 169 4
170 172 173 171 4 172 174 175 173 4
174 176 177 175 4 176 178 179 177 4
178 180 181 179 4 180 182 183 181 4
182 184 185 183 4 184 186 187 185 4
186 188 189 187 4 188 190 191 189 4
190 192 193 191 4 192 194 195 193 4
194 196 197 195 4 196 198 199 197 4
198 200 201 199 4 200 202 203 201 4
202 204 205 203 4 204 206 207 205 4
206 208 209 207 4 208 210 211 209 4
210 212 213 211 4 212 214 215 213 4
214 216 217 215 4 216 218 219 217 4
218 220 221 219 4 220 222 223 221 4
222 224 225 223 4 224 226 227 225 4
226 228 229 227 4 228 230 231 229 4
230 232 233 231 4 232 234 235 233 4
234 236 237 235 4 236 238 239 237 4
238 240 241 239 4 240 242 243 241 4
242 244 245 243 4 244 246 247 245 4
246 248 249 247 4 248 250 251 249 4
250 252 253 251 4 252 254 255 253 4
254 256 257 255 4 256 258 259 257 4
0 260 261 1 4 260 262 263 261 4
262 264 265 263 4 264 266 267 265 4
266 268 269 267 4 268 270 271 269 4
270 272 273 271 4 272 274 275 273 4
274 276 277 275 4 276 278 279 277 4
278 280 281 279 4 280 282 283 281 4
282 284 285 283 4 284 286 287 285 4
286 288 289 287 4 288 290 291 289 4
290 292 293 291 4 292 294 295 293 4
294 296 297 295 4 296 298 299 297 4
298 300 301 299 4 300 302 303 301 4
302 304 305 303 4 304 306 307 305 4
306 308 309 307 4 308 310 311 309 4
310 312 313 311 4 312 314 315 313 4
314 316 317 315 4 316 318 319 317 4
318 320 321 319 4 320 322 323 321 4
322 324 325 323 4 324 326 327 325 4
326 328 329 327 4 328 330 331 329 4
330 332 333 331 4 332 334 335 333 4
334 336 337 335 4 336 338 339 337 4
338 340 341 339 4 340 342 343 341 4
342 344 345 343 4 344 346 347 345 4
346 348 349 347 4 348 350 351 349 4
350 352 353 351 4 352 354 355 353 4
354 356 357 355 4 356 358 359 357 4
358 360 361 359 4 360 362 363 361 4
362 364 365 363 4 364 366 367 365 4
366 368 369 367 4 368 370 371 369 4
370 372 373 371 4 372 374 375 373 4
374 376 377 375 4 376 378 379 377 4
378 380 381 379 4 380 382 383 381 4
382 384 385 383 4 384 130 133 385 
CELL_DATA 192
FIELD attributes 3
patchID 1 192 float
1 1 1 1 1 1 1 1 1 1 1
1 1 1 1 1 1 1 1 1 1
1 1 1 1 1 1 1 1 1 1
1 1 1 1 1 1 1 1 1 1
1 1 1 1 1 1 1 1 1 1
1 1 1 1 1 1 1 1 1 1
1 1 1 1 1 1 1 1 1 1
1 1 1 1 1 1 1 1 1 1
1 1 1 1 1 1 1 1 1 1
1 1 1 1 1 1 1 1 1 1
1 1 1 1 1 1 1 1 1 1
1 1 1 1 1 1 1 1 1 1
1 1 1 1 1 1 1 1 1 1
1 1 1 1 1 1 1 1 1 1
1 1 1 1 1 1 1 1 1 1
1 1 1 1 1 1 1 1 1 1
1 1 1 1 1 1 1 1 1 1
1 1 1 1 1 1 1 1 1 1
1 1 1 1 1 1 1 1 1 1
1 
p 1 192 float
-0.00323444 -0.00322727 -0.00321883 -0.0032124 -0.00321041 -0.0032144 -0.00322542 -0.00324415 -0.00327107 -0.00330651 -0.00335074
-0.00340391 -0.00346619 -0.00353769 -0.00361851 -0.00370875 -0.00380849 -0.00391781 -0.00403678 -0.00416546 -0.00430389
-0.0044521 -0.00461008 -0.00477782 -0.00495525 -0.00514228 -0.0053388 -0.00554462 -0.00575954 -0.0059833 -0.00621562
-0.00645616 -0.00670456 -0.00696041 -0.0072233 -0.0074928 -0.00776849 -0.00804995 -0.00833683 -0.00862881 -0.00892568
-0.00922735 -0.0095339 -0.00984565 -0.0101632 -0.0104875 -0.01082 -0.0111629 -0.0115191 -0.0118928 -0.0122899
-0.0127185 -0.0131903 -0.0137226 -0.014341 -0.0150861 -0.0160242 -0.0172692 -0.019026 -0.0216777 -0.0260644
-0.0347899 -0.0568462 -0.107234 5.10164e-05 4.48195e-05 3.2393e-05 1.60454e-05 -1.94699e-06 -2.06458e-05 -3.96617e-05
-5.90776e-05 -7.92811e-05 -0.000100838 -0.000124422 -0.00015079 -0.000180764 -0.000215242 -0.000255205 -0.000301742 -0.000356043
-0.000419419 -0.00049344 -0.000579704 -0.000679996 -0.000796271 -0.000930595 -0.00108506 -0.00126167 -0.00146206 -0.00168742
-0.00193802 -0.00221327 -0.00251216 -0.00283464 -0.00318391 -0.00356845 -0.00400601 -0.00452386 -0.00515768 -0.00594991
-0.00693869 -0.00815759 -0.00963009 -0.0113625 -0.0133403 -0.0155229 -0.0178373 -0.020181 -0.0224288 -0.0244295
-0.0259988 -0.0269159 -0.0269059 -0.0256367 -0.0227064 -0.0176699 -0.0100434 0.000691323 0.0151861 0.0342895
0.0591517 0.0914242 0.133981 0.192231 0.276914 0.403249 0.56124 -0.00323444 -0.00324162 -0.00324998
-0.00325642 -0.00325891 -0.00325641 -0.00324845 -0.00323493 -0.00321588 -0.00319142 -0.0031617 -0.00312687 -0.00308703
-0.0030423 -0.00299275 -0.00293846 -0.0028795 -0.00281593 -0.00274782 -0.00267525 -0.00259831 -0.00251712 -0.00243182
-0.00234256 -0.00224954 -0.00215297 -0.00205313 -0.00195029 -0.00184481 -0.00173704 -0.00162742 -0.0015164 -0.00140449
-0.00129223 -0.00118015 -0.00106891 -0.000959115 -0.000851414 -0.000746458 -0.000644901 -0.000547383 -0.000454518 -0.000366889
-0.000285028 -0.000209413 -0.000140451 -7.84743e-05 -2.37337e-05 2.36085e-05 6.348e-05 9.59005e-05 0.000120983 0.000138935
0.000150059 0.000154752 0.000153521 0.000146992 0.000135936 0.00012132 0.00010439 8.67781e-05 6.9697e-05 5.72021e-05
5.10164e-05 
U 3 192 float
0 0 0 0 0 0 0 0 0 0 0
0 0 0 0 0 0 0 0 0 0
0 0 0 0 0 0 0 0 0 0
0 0 0 0 0 0 0 0 0 0
0 0 0 0 0 0 0 0 0 0
0 0 0 0 0 0 0 0 0 0
0 0 0 0 0 0 0 0 0 0
0 0 0 0 0 0 0 0 0 0
0 0 0 0 0 0 0 0 0 0
0 0 0 0 0 0 0 0 0 0
0 0 0 0 0 0 0 0 0 0
0 0 0 0 0 0 0 0 0 0
0 0 0 0 0 0 0 0 0 0
0 0 0 0 0 0 0 0 0 0
0 0 0 0 0 0 0 0 0 0
0 0 0 0 0 0 0 0 0 0
0 0 0 0 0 0 0 0 0 0
0 0 0 0 0 0 0 0 0 0
0 0 0 0 0 0 0 0 0 0
0 0 0 0 0 0 0 0 0 0
0 0 0 0 0 0 0 0 0 0
0 0 0 0 0 0 0 0 0 0
0 0 0 0 0 0 0 0 0 0
0 0 0 0 0 0 0 0 0 0
0 0 0 0 0 0 0 0 0 0
0 0 0 0 0 0 0 0 0 0
0 0 0 0 0 0 0 0 0 0
0 0 0 0 0 0 0 0 0 0
0 0 0 0 0 0 0 0 0 0
0 0 0 0 0 0 0 0 0 0
0 0 0 0 0 0 0 0 0 0
0 0 0 0 0 0 0 0 0 0
0 0 0 0 0 0 0 0 0 0
0 0 0 0 0 0 0 0 0 0
0 0 0 0 0 0 0 0 0 0
0 0 0 0 0 0 0 0 0 0
0 0 0 0 0 0 0 0 0 0
0 0 0 0 0 0 0 0 0 0
0 0 0 0 0 0 0 0 0 0
0 0 0 0 0 0 0 0 0 0
0 0 0 0 0 0 0 0 0 0
0 0 0 0 0 0 0 0 0 0
0 0 0 0 0 0 0 0 0 0
0 0 0 0 0 0 0 0 0 0
0 0 0 0 0 0 0 0 0 0
0 0 0 0 0 0 0 0 0 0
0 0 0 0 0 0 0 0 0 0
0 0 0 0 0 0 0 0 0 0
0 0 0 0 0 0 0 0 0 0
0 0 0 0 0 0 0 0 0 0
0 0 0 0 0 0 0 0 0 0
0 0 0 0 0 0 0 0 0 0
0 0 0 0 0 0 0 0 0 0
0 0 0 0 0 0 0 0 0 0
0 0 0 0 0 0 0 0 0 0
0 0 0 0 0 0 0 0 0 0
0 0 0 0 0 0 0 0 0 0
0 0 0 0 0 
POINT_DATA  386
FIELD attributes 2
p 1 386 float
-0.00323444 -0.00323444 -0.00323086 -0.00323086 -0.00322305 -0.00322305 -0.00321561 -0.00321561 -0.0032114 -0.0032114 -0.0032124
-0.0032124 -0.00321991 -0.00321991 -0.00323479 -0.00323479 -0.00325761 -0.00325761 -0.00328879 -0.00328879 -0.00332863
-0.00332863 -0.00337732 -0.00337732 -0.00343505 -0.00343505 -0.00350194 -0.00350194 -0.0035781 -0.0035781 -0.00366363
-0.00366363 -0.00375862 -0.00375862 -0.00386315 -0.00386315 -0.0039773 -0.0039773 -0.00410112 -0.00410112 -0.00423467
-0.00423467 -0.004378 -0.004378 -0.00453109 -0.00453109 -0.00469395 -0.00469395 -0.00486653 -0.00486653 -0.00504876
-0.00504876 -0.00524054 -0.00524054 -0.00544171 -0.00544171 -0.00565208 -0.00565208 -0.00587142 -0.00587142 -0.00609946
-0.00609946 -0.00633589 -0.00633589 -0.00658036 -0.00658036 -0.00683249 -0.00683249 -0.00709186 -0.00709186 -0.00735805
-0.00735805 -0.00763064 -0.00763064 -0.00790922 -0.00790922 -0.00819339 -0.00819339 -0.00848282 -0.00848282 -0.00877724
-0.00877724 -0.00907652 -0.00907652 -0.00938062 -0.00938062 -0.00968978 -0.00968978 -0.0100044 -0.0100044 -0.0103253
-0.0103253 -0.0106538 -0.0106538 -0.0109915 -0.0109915 -0.011341 -0.011341 -0.0117059 -0.0117059 -0.0120913
-0.0120913 -0.0125042 -0.0125042 -0.0129544 -0.0129544 -0.0134564 -0.0134564 -0.0140318 -0.0140318 -0.0147135
-0.0147135 -0.0155551 -0.0155551 -0.0166467 -0.0166467 -0.0181476 -0.0181476 -0.0203518 -0.0203518 -0.023871
-0.023871 -0.0304272 -0.0304272 -0.045818 -0.045818 -0.0820401 -0.0820401 -0.107234 -0.107234 5.10164e-05
4.7918e-05 4.7918e-05 5.10164e-05 3.86062e-05 3.86062e-05 2.42192e-05 2.42192e-05 7.04921e-06 7.04921e-06 -1.12964e-05
-1.12964e-05 -3.01537e-05 -3.01537e-05 -4.93696e-05 -4.93696e-05 -6.91793e-05 -6.91793e-05 -9.00595e-05 -9.00595e-05 -0.00011263
-0.00011263 -0.000137606 -0.000137606 -0.000165777 -0.000165777 -0.000198003 -0.000198003 -0.000235224 -0.000235224 -0.000278474
-0.000278474 -0.000328892 -0.000328892 -0.000387731 -0.000387731 -0.000456429 -0.000456429 -0.000536572 -0.000536572 -0.00062985
-0.00062985 -0.000738134 -0.000738134 -0.000863433 -0.000863433 -0.00100783 -0.00100783 -0.00117337 -0.00117337 -0.00136186
-0.00136186 -0.00157474 -0.00157474 -0.00181272 -0.00181272 -0.00207564 -0.00207564 -0.00236272 -0.00236272 -0.0026734
-0.0026734 -0.00300928 -0.00300928 -0.00337618 -0.00337618 -0.00378723 -0.00378723 -0.00426493 -0.00426493 -0.00484077
-0.00484077 -0.0055538 -0.0055538 -0.0064443 -0.0064443 -0.00754814 -0.00754814 -0.00889384 -0.00889384 -0.0104963
-0.0104963 -0.0123514 -0.0123514 -0.0144316 -0.0144316 -0.0166801 -0.0166801 -0.0190092 -0.0190092 -0.0213049
-0.0213049 -0.0234291 -0.0234291 -0.0252142 -0.0252142 -0.0264574 -0.0264574 -0.0269109 -0.0269109 -0.0262713
-0.0262713 -0.0241715 -0.0241715 -0.0201882 -0.0201882 -0.0138567 -0.0138567 -0.00467604 -0.00467604 0.00793871
0.00793871 0.0247378 0.0247378 0.0467206 0.0467206 0.075288 0.075288 0.112703 0.112703 0.163106
0.163106 0.234572 0.234572 0.340082 0.340082 0.482244 0.482244 0.56124 0.56124 -0.00323803
-0.00323803 -0.0032458 -0.0032458 -0.0032532 -0.0032532 -0.00325767 -0.00325767 -0.00325766 -0.00325766 -0.00325243
-0.00325243 -0.00324169 -0.00324169 -0.00322541 -0.00322541 -0.00320365 -0.00320365 -0.00317656 -0.00317656 -0.00314428
-0.00314428 -0.00310695 -0.00310695 -0.00306467 -0.00306467 -0.00301752 -0.00301752 -0.0029656 -0.0029656 -0.00290898
-0.00290898 -0.00284772 -0.00284772 -0.00278187 -0.00278187 -0.00271153 -0.00271153 -0.00263678 -0.00263678 -0.00255771
-0.00255771 -0.00247447 -0.00247447 -0.00238719 -0.00238719 -0.00229605 -0.00229605 -0.00220125 -0.00220125 -0.00210305
-0.00210305 -0.00200171 -0.00200171 -0.00189755 -0.00189755 -0.00179093 -0.00179093 -0.00168223 -0.00168223 -0.00157191
-0.00157191 -0.00146044 -0.00146044 -0.00134836 -0.00134836 -0.00123619 -0.00123619 -0.00112453 -0.00112453 -0.00101401
-0.00101401 -0.000905265 -0.000905265 -0.000798936 -0.000798936 -0.00069568 -0.00069568 -0.000596142 -0.000596142 -0.00050095
-0.00050095 -0.000410704 -0.000410704 -0.000325959 -0.000325959 -0.000247221 -0.000247221 -0.000174932 -0.000174932 -0.000109463
-0.000109463 -5.1104e-05 -5.1104e-05 -6.26e-08 -6.26e-08 4.35442e-05 4.35442e-05 7.96903e-05 7.96903e-05 0.000108442
0.000108442 0.000129959 0.000129959 0.000144497 0.000144497 0.000152405 0.000152405 0.000154137 0.000154137 0.000150256
0.000150256 0.000141464 0.000141464 0.000128628 0.000128628 0.000112855 0.000112855 9.55841e-05 9.55841e-05 7.82376e-05
7.82376e-05 6.34496e-05 6.34496e-05 5.41092e-05 5.41092e-05 
U 3 386 float
0 0 0 0 0 0 0 0 0 0 0
0 0 0 0 0 0 0 0 0 0
0 0 0 0 0 0 0 0 0 0
0 0 0 0 0 0 0 0 0 0
0 0 0 0 0 0 0 0 0 0
0 0 0 0 0 0 0 0 0 0
0 0 0 0 0 0 0 0 0 0
0 0 0 0 0 0 0 0 0 0
0 0 0 0 0 0 0 0 0 0
0 0 0 0 0 0 0 0 0 0
0 0 0 0 0 0 0 0 0 0
0 0 0 0 0 0 0 0 0 0
0 0 0 0 0 0 0 0 0 0
0 0 0 0 0 0 0 0 0 0
0 0 0 0 0 0 0 0 0 0
0 0 0 0 0 0 0 0 0 0
0 0 0 0 0 0 0 0 0 0
0 0 0 0 0 0 0 0 0 0
0 0 0 0 0 0 0 0 0 0
0 0 0 0 0 0 0 0 0 0
0 0 0 0 0 0 0 0 0 0
0 0 0 0 0 0 0 0 0 0
0 0 0 0 0 0 0 0 0 0
0 0 0 0 0 0 0 0 0 0
0 0 0 0 0 0 0 0 0 0
0 0 0 0 0 0 0 0 0 0
0 0 0 0 0 0 0 0 0 0
0 0 0 0 0 0 0 0 0 0
0 0 0 0 0 0 0 0 0 0
0 0 0 0 0 0 0 0 0 0
0 0 0 0 0 0 0 0 0 0
0 0 0 0 0 0 0 0 0 0
0 0 0 0 0 0 0 0 0 0
0 0 0 0 0 0 0 0 0 0
0 0 0 0 0 0 0 0 0 0
0 0 0 0 0 0 0 0 0 0
0 0 0 0 0 0 0 0 0 0
0 0 0 0 0 0 0 0 0 0
0 0 0 0 0 0 0 0 0 0
0 0 0 0 0 0 0 0 0 0
0 0 0 0 0 0 0 0 0 0
0 0 0 0 0 0 0 0 0 0
0 0 0 0 0 0 0 0 0 0
0 0 0 0 0 0 0 0 0 0
0 0 0 0 0 0 0 0 0 0
0 0 0 0 0 0 0 0 0 0
0 0 0 0 0 0 0 0 0 0
0 0 0 0 0 0 0 0 0 0
0 0 0 0 0 0 0 0 0 0
0 0 0 0 0 0 0 0 0 0
0 0 0 0 0 0 0 0 0 0
0 0 0 0 0 0 0 0 0 0
0 0 0 0 0 0 0 0 0 0
0 0 0 0 0 0 0 0 0 0
0 0 0 0 0 0 0 0 0 0
0 0 0 0 0 0 0 0 0 0
0 0 0 0 0 0 0 0 0 0
0 0 0 0 0 0 0 0 0 0
0 0 0 0 0 0 0 0 0 0
0 0 0 0 0 0 0 0 0 0
0 0 0 0 0 0 0 0 0 0
0 0 0 0 0 0 0 0 0 0
0 0 0 0 0 0 0 0 0 0
0 0 0 0 0 0 0 0 0 0
0 0 0 0 0 0 0 0 0 0
0 0 0 0 0 0 0 0 0 0
0 0 0 0 0 0 0 0 0 0
0 0 0 0 0 0 0 0 0 0
0 0 0 0 0 0 0 0 0 0
0 0 0 0 0 0 0 0 0 0
0 0 0 0 0 0 0 0 0 0
0 0 0 0 0 0 0 0 0 0
0 0 0 0 0 0 0 0 0 0
0 0 0 0 0 0 0 0 0 0
0 0 0 0 0 0 0 0 0 0
0 0 0 0 0 0 0 0 0 0
0 0 0 0 0 0 0 0 0 0
0 0 0 0 0 0 0 0 0 0
0 0 0 0 0 0 0 0 0 0
0 0 0 0 0 0 0 0 0 0
0 0 0 0 0 0 0 0 0 0
0 0 0 0 0 0 0 0 0 0
0 0 0 0 0 0 0 0 0 0
0 0 0 0 0 0 0 0 0 0
0 0 0 0 0 0 0 0 0 0
0 0 0 0 0 0 0 0 0 0
0 0 0 0 0 0 0 0 0 0
0 0 0 0 0 0 0 0 0 0
0 0 0 0 0 0 0 0 0 0
0 0 0 0 0 0 0 0 0 0
0 0 0 0 0 0 0 0 0 0
0 0 0 0 0 0 0 0 0 0
0 0 0 0 0 0 0 0 0 0
0 0 0 0 0 0 0 0 0 0
0 0 0 0 0 0 0 0 0 0
0 0 0 0 0 0 0 0 0 0
0 0 0 0 0 0 0 0 0 0
0 0 0 0 0 0 0 0 0 0
0 0 0 0 0 0 0 0 0 0
0 0 0 0 0 0 0 0 0 0
0 0 0 0 0 0 0 0 0 0
0 0 0 0 0 0 0 0 0 0
0 0 0 0 0 0 0 0 0 0
0 0 0 0 0 0 0 0 0 0
0 0 0 0 0 0 0 0 0 0
0 0 0 0 0 0 0 0 0 0
0 0 0 0 0 0 0 0 0 0
0 0 0 0 0 0 0 0 0 0
0 0 0 0 0 0 0 0 0 0
0 0 0 0 0 0 0 0 0 0
0 0 0 0 0 0 0 0 0 0
0 0 0 0 0 0 0 0 0 0
0 0 0 0 0 0 0 0 0 0
0 0 0 0 0 0 0 0 0 0
0 0 0 0 0 0 0 0 0 0
0 0 0 0 0 0 0 
