# vtk DataFile Version 2.0
fixedWalls
ASCII
DATASET POLYDATA
POINTS 386 float
0 0 0 0 0 0.1 0 0.015625 0.1 0 0.015625
0 0 0.03125 0.1 0 0.03125 0 0 0.046875 0.1
0 0.046875 0 0 0.0625 0.1 0 0.0625 0 0
0.078125 0.1 0 0.078125 0 0 0.09375 0.1 0 0.09375
0 0 0.109375 0.1 0 0.109375 0 0 0.125 0.1
0 0.125 0 0 0.140625 0.1 0 0.140625 0 0
0.15625 0.1 0 0.15625 0 0 0.171875 0.1 0 0.171875
0 0 0.1875 0.1 0 0.1875 0 0 0.203125 0.1
0 0.203125 0 0 0.21875 0.1 0 0.21875 0 0
0.234375 0.1 0 0.234375 0 0 0.25 0.1 0 0.25
0 0 0.265625 0.1 0 0.265625 0 0 0.28125 0.1
0 0.28125 0 0 0.296875 0.1 0 0.296875 0 0
0.3125 0.1 0 0.3125 0 0 0.328125 0.1 0 0.328125
0 0 0.34375 0.1 0 0.34375 0 0 0.359375 0.1
0 0.359375 0 0 0.375 0.1 0 0.375 0 0
0.390625 0.1 0 0.390625 0 0 0.40625 0.1 0 0.40625
0 0 0.421875 0.1 0 0.421875 0 0 0.4375 0.1
0 0.4375 0 0 0.453125 0.1 0 0.453125 0 0
0.46875 0.1 0 0.46875 0 0 0.484375 0.1 0 0.484375
0 0 0.5 0.1 0 0.5 0 0 0.515625 0.1
0 0.515625 0 0 0.53125 0.1 0 0.53125 0 0
0.546875 0.1 0 0.546875 0 0 0.5625 0.1 0 0.5625
0 0 0.578125 0.1 0 0.578125 0 0 0.59375 0.1
0 0.59375 0 0 0.609375 0.1 0 0.609375 0 0
0.625 0.1 0 0.625 0 0 0.640625 0.1 0 0.640625
0 0 0.65625 0.1 0 0.65625 0 0 0.671875 0.1
0 0.671875 0 0 0.6875 0.1 0 0.6875 0 0
0.703125 0.1 0 0.703125 0 0 0.71875 0.1 0 0.71875
0 0 0.734375 0.1 0 0.734375 0 0 0.75 0.1
0 0.75 0 0 0.765625 0.1 0 0.765625 0 0
0.78125 0.1 0 0.78125 0 0 0.796875 0.1 0 0.796875
0 0 0.8125 0.1 0 0.8125 0 0 0.828125 0.1
0 0.828125 0 0 0.84375 0.1 0 0.84375 0 0
0.859375 0.1 0 0.859375 0 0 0.875 0.1 0 0.875
0 0 0.890625 0.1 0 0.890625 0 0 0.90625 0.1
0 0.90625 0 0 0.921875 0.1 0 0.921875 0 0
0.9375 0.1 0 0.9375 0 0 0.953125 0.1 0 0.953125
0 0 0.96875 0.1 0 0.96875 0 0 0.984375 0.1
0 0.984375 0 0 1 0.1 0 1 0 1
0 0 1 0.015625 0 1 0.015625 0.1 1 0
0.1 1 0.03125 0 1 0.03125 0.1 1 0.046875 0
1 0.046875 0.1 1 0.0625 0 1 0.0625 0.1 1
0.078125 0 1 0.078125 0.1 1 0.09375 0 1 0.09375
0.1 1 0.109375 0 1 0.109375 0.1 1 0.125 0
1 0.125 0.1 1 0.140625 0 1 0.140625 0.1 1
0.15625 0 1 0.15625 0.1 1 0.171875 0 1 0.171875
0.1 1 0.1875 0 1 0.1875 0.1 1 0.203125 0
1 0.203125 0.1 1 0.21875 0 1 0.21875 0.1 1
0.234375 0 1 0.234375 0.1 1 0.25 0 1 0.25
0.1 1 0.265625 0 1 0.265625 0.1 1 0.28125 0
1 0.28125 0.1 1 0.296875 0 1 0.296875 0.1 1
0.3125 0 1 0.3125 0.1 1 0.328125 0 1 0.328125
0.1 1 0.34375 0 1 0.34375 0.1 1 0.359375 0
1 0.359375 0.1 1 0.375 0 1 0.375 0.1 1
0.390625 0 1 0.390625 0.1 1 0.40625 0 1 0.40625
0.1 1 0.421875 0 1 0.421875 0.1 1 0.4375 0
1 0.4375 0.1 1 0.453125 0 1 0.453125 0.1 1
0.46875 0 1 0.46875 0.1 1 0.484375 0 1 0.484375
0.1 1 0.5 0 1 0.5 0.1 1 0.515625 0
1 0.515625 0.1 1 0.53125 0 1 0.53125 0.1 1
0.546875 0 1 0.546875 0.1 1 0.5625 0 1 0.5625
0.1 1 0.578125 0 1 0.578125 0.1 1 0.59375 0
1 0.59375 0.1 1 0.609375 0 1 0.609375 0.1 1
0.625 0 1 0.625 0.1 1 0.640625 0 1 0.640625
0.1 1 0.65625 0 1 0.65625 0.1 1 0.671875 0
1 0.671875 0.1 1 0.6875 0 1 0.6875 0.1 1
0.703125 0 1 0.703125 0.1 1 0.71875 0 1 0.71875
0.1 1 0.734375 0 1 0.734375 0.1 1 0.75 0
1 0.75 0.1 1 0.765625 0 1 0.765625 0.1 1
0.78125 0 1 0.78125 0.1 1 0.796875 0 1 0.796875
0.1 1 0.8125 0 1 0.8125 0.1 1 0.828125 0
1 0.828125 0.1 1 0.84375 0 1 0.84375 0.1 1
0.859375 0 1 0.859375 0.1 1 0.875 0 1 0.875
0.1 1 0.890625 0 1 0.890625 0.1 1 0.90625 0
1 0.90625 0.1 1 0.921875 0 1 0.921875 0.1 1
0.9375 0 1 0.9375 0.1 1 0.953125 0 1 0.953125
0.1 1 0.96875 0 1 0.96875 0.1 1 0.984375 0
1 0.984375 0.1 1 1 0 1 1 0.1 0.015625
0 0 0.015625 0 0.1 0.03125 0 0 0.03125 0
0.1 0.046875 0 0 0.046875 0 0.1 0.0625 0 0
0.0625 0 0.1 0.078125 0 0 0.078125 0 0.1 0.09375
0 0 0.09375 0 0.1 0.109375 0 0 0.109375 0
0.1 0.125 0 0 0.125 0 0.1 0.140625 0 0
0.140625 0 0.1 0.15625 0 0 0.15625 0 0.1 0.171875
0 0 0.171875 0 0.1 0.1875 0 0 0.1875 0
0.1 0.203125 0 0 0.203125 0 0.1 0.21875 0 0
0.21875 0 0.1 0.234375 0 0 0.234375 0 0.1 0.25
0 0 0.25 0 0.1 0.265625 0 0 0.265625 0
0.1 0.28125 0 0 0.28125 0 0.1 0.296875 0 0
0.296875 0 0.1 0.3125 0 0 0.3125 0 0.1 0.328125
0 0 0.328125 0 0.1 0.34375 0 0 0.34375 0
0.1 0.359375 0 0 0.359375 0 0.1 0.375 0 0
0.375 0 0.1 0.390625 0 0 0.390625 0 0.1 0.40625
0 0 0.40625 0 0.1 0.421875 0 0 0.421875 0
0.1 0.4375 0 0 0.4375 0 0.1 0.453125 0 0
0.453125 0 0.1 0.46875 0 0 0.46875 0 0.1 0.484375
0 0 0.484375 0 0.1 0.5 0 0 0.5 0
0.1 0.515625 0 0 0.515625 0 0.1 0.53125 0 0
0.53125 0 0.1 0.546875 0 0 0.546875 0 0.1 0.5625
0 0 0.5625 0 0.1 0.578125 0 0 0.578125 0
0.1 0.59375 0 0 0.59375 0 0.1 0.609375 0 0
0.609375 0 0.1 0.625 0 0 0.625 0 0.1 0.640625
0 0 0.640625 0 0.1 0.65625 0 0 0.65625 0
0.1 0.671875 0 0 0.671875 0 0.1 0.6875 0 0
0.6875 0 0.1 0.703125 0 0 0.703125 0 0.1 0.71875
0 0 0.71875 0 0.1 0.734375 0 0 0.734375 0
0.1 0.75 0 0 0.75 0 0.1 0.765625 0 0
0.765625 0 0.1 0.78125 0 0 0.78125 0 0.1 0.796875
0 0 0.796875 0 0.1 0.8125 0 0 0.8125 0
0.1 0.828125 0 0 0.828125 0 0.1 0.84375 0 0
0.84375 0 0.1 0.859375 0 0 0.859375 0 0.1 0.875
0 0 0.875 0 0.1 0.890625 0 0 0.890625 0
0.1 0.90625 0 0 0.90625 0 0.1 0.921875 0 0
0.921875 0 0.1 0.9375 0 0 0.9375 0 0.1 0.953125
0 0 0.953125 0 0.1 0.96875 0 0 0.96875 0
0.1 0.984375 0 0 0.984375 0 0.1 
POLYGONS 192 960
4 0 1 2 3 4 3 2 4 5 4
5 4 6 7 4 7 6 8 9 4
9 8 10 11 4 11 10 12 13 4
13 12 14 15 4 15 14 16 17 4
17 16 18 19 4 19 18 20 21 4
21 20 22 23 4 23 22 24 25 4
25 24 26 27 4 27 26 28 29 4
29 28 30 31 4 31 30 32 33 4
33 32 34 35 4 35 34 36 37 4
37 36 38 39 4 39 38 40 41 4
41 40 42 43 4 43 42 44 45 4
45 44 46 47 4 47 46 48 49 4
49 48 50 51 4 51 50 52 53 4
53 52 54 55 4 55 54 56 57 4
57 56 58 59 4 59 58 60 61 4
61 60 62 63 4 63 62 64 65 4
65 64 66 67 4 67 66 68 69 4
69 68 70 71 4 71 70 72 73 4
73 72 74 75 4 75 74 76 77 4
77 76 78 79 4 79 78 80 81 4
81 80 82 83 4 83 82 84 85 4
85 84 86 87 4 87 86 88 89 4
89 88 90 91 4 91 90 92 93 4
93 92 94 95 4 95 94 96 97 4
97 96 98 99 4 99 98 100 101 4
101 100 102 103 4 103 102 104 105 4
105 104 106 107 4 107 106 108 109 4
109 108 110 111 4 111 110 112 113 4
113 112 114 115 4 115 114 116 117 4
117 116 118 119 4 119 118 120 121 4
121 120 122 123 4 123 122 124 125 4
125 124 126 127 4 127 126 128 129 4
130 131 132 133 4 131 134 135 132 4
134 136 137 135 4 136 138 139 137 4
138 140 141 139 4 140 142 143 141 4
142 144 145 143 4 144 146 147 145 4
146 148 149 147 4 148 150 151 149 4
150 152 153 151 4 152 154 155 153 4
154 156 157 155 4 156 158 159 157 4
158 160 161 159 4 160 162 163 161 4
162 164 165 163 4 164 166 167 165 4
166 168 169 167 4 168 170 171 169 4
170 172 173 171 4 172 174 175 173 4
174 176 177 175 4 176 178 179 177 4
178 180 181 179 4 180 182 183 181 4
182 184 185 183 4 184 186 187 185 4
186 188 189 187 4 188 190 191 189 4
190 192 193 191 4 192 194 195 193 4
194 196 197 195 4 196 198 199 197 4
198 200 201 199 4 200 202 203 201 4
202 204 205 203 4 204 206 207 205 4
206 208 209 207 4 208 210 211 209 4
210 212 213 211 4 212 214 215 213 4
214 216 217 215 4 216 218 219 217 4
218 220 221 219 4 220 222 223 221 4
222 224 225 223 4 224 226 227 225 4
226 228 229 227 4 228 230 231 229 4
230 232 233 231 4 232 234 235 233 4
234 236 237 235 4 236 238 239 237 4
238 240 241 239 4 240 242 243 241 4
242 244 245 243 4 244 246 247 245 4
246 248 249 247 4 248 250 251 249 4
250 252 253 251 4 252 254 255 253 4
254 256 257 255 4 256 258 259 257 4
0 260 261 1 4 260 262 263 261 4
262 264 265 263 4 264 266 267 265 4
266 268 269 267 4 268 270 271 269 4
270 272 273 271 4 272 274 275 273 4
274 276 277 275 4 276 278 279 277 4
278 280 281 279 4 280 282 283 281 4
282 284 285 283 4 284 286 287 285 4
286 288 289 287 4 288 290 291 289 4
290 292 293 291 4 292 294 295 293 4
294 296 297 295 4 296 298 299 297 4
298 300 301 299 4 300 302 303 301 4
302 304 305 303 4 304 306 307 305 4
306 308 309 307 4 308 310 311 309 4
310 312 313 311 4 312 314 315 313 4
314 316 317 315 4 316 318 319 317 4
318 320 321 319 4 320 322 323 321 4
322 324 325 323 4 324 326 327 325 4
326 328 329 327 4 328 330 331 329 4
330 332 333 331 4 332 334 335 333 4
334 336 337 335 4 336 338 339 337 4
338 340 341 339 4 340 342 343 341 4
342 344 345 343 4 344 346 347 345 4
346 348 349 347 4 348 350 351 349 4
350 352 353 351 4 352 354 355 353 4
354 356 357 355 4 356 358 359 357 4
358 360 361 359 4 360 362 363 361 4
362 364 365 363 4 364 366 367 365 4
366 368 369 367 4 368 370 371 369 4
370 372 373 371 4 372 374 375 373 4
374 376 377 375 4 376 378 379 377 4
378 380 381 379 4 380 382 383 381 4
382 384 385 383 4 384 130 133 385 
CELL_DATA 192
FIELD attributes 3
patchID 1 192 float
1 1 1 1 1 1 1 1 1 1 1
1 1 1 1 1 1 1 1 1 1
1 1 1 1 1 1 1 1 1 1
1 1 1 1 1 1 1 1 1 1
1 1 1 1 1 1 1 1 1 1
1 1 1 1 1 1 1 1 1 1
1 1 1 1 1 1 1 1 1 1
1 1 1 1 1 1 1 1 1 1
1 1 1 1 1 1 1 1 1 1
1 1 1 1 1 1 1 1 1 1
1 1 1 1 1 1 1 1 1 1
1 1 1 1 1 1 1 1 1 1
1 1 1 1 1 1 1 1 1 1
1 1 1 1 1 1 1 1 1 1
1 1 1 1 1 1 1 1 1 1
1 1 1 1 1 1 1 1 1 1
1 1 1 1 1 1 1 1 1 1
1 1 1 1 1 1 1 1 1 1
1 1 1 1 1 1 1 1 1 1
1 
p 1 192 float
-0.00410491 -0.00409904 -0.00409255 -0.00408799 -0.00408733 -0.00409175 -0.00410199 -0.00411847 -0.00414143 -0.004171 -0.00420725
-0.00425021 -0.0042999 -0.00435635 -0.00441958 -0.00448964 -0.00456655 -0.00465035 -0.00474111 -0.00483885 -0.00494362
-0.00505545 -0.00517438 -0.00530042 -0.00543358 -0.00557388 -0.00572128 -0.00587577 -0.00603732 -0.00620586 -0.00638134
-0.0065637 -0.00675286 -0.00694875 -0.00715129 -0.00736045 -0.00757619 -0.00779851 -0.00802749 -0.00826325 -0.00850603
-0.00875619 -0.00901426 -0.00928099 -0.0095574 -0.0098449 -0.0101453 -0.0104613 -0.010796 -0.0111542 -0.0115419
-0.0119676 -0.0124435 -0.0129869 -0.0136239 -0.014395 -0.0153664 -0.0166515 -0.0184532 -0.0211508 -0.0255745
-0.0343137 -0.0563558 -0.10671 -0.000265703 -0.000273774 -0.000284595 -0.000294598 -0.000301803 -0.000305252 -0.000304655
-0.000300091 -0.000291828 -0.000280226 -0.000265687 -0.000248646 -0.000229571 -0.00020898 -0.000187458 -0.000165686 -0.000144459
-0.000124727 -0.000107615 -9.44723e-05 -8.69062e-05 -8.68383e-05 -9.65589e-05 -0.000118803 -0.000156832 -0.000214479 -0.000295836
-0.000406694 -0.000552795 -0.000740721 -0.000977704 -0.00127085 -0.00162622 -0.00204769 -0.00253469 -0.00308142 -0.00368688
-0.0043322 -0.00502943 -0.0058052 -0.00671292 -0.00782764 -0.00922922 -0.0109801 -0.0131027 -0.0155752 -0.0183136
-0.0211359 -0.0237403 -0.0256972 -0.0264764 -0.0254907 -0.0221694 -0.0159933 -0.00643651 0.00714982 0.0256084
0.0501127 0.0823668 0.125289 0.184144 0.269422 0.396121 0.55398 -0.00410491 -0.00411078 -0.00411722
-0.00412181 -0.00412281 -0.00411932 -0.00411095 -0.00409757 -0.0040792 -0.00405593 -0.00402785 -0.00399505 -0.0039576
-0.00391555 -0.00386896 -0.00381785 -0.00376226 -0.00370221 -0.00363774 -0.0035689 -0.00349575 -0.00341835 -0.00333679
-0.00325117 -0.00316163 -0.00306831 -0.00297139 -0.00287106 -0.00276755 -0.00266113 -0.00255207 -0.00244069 -0.00232735
-0.00221244 -0.00209636 -0.00197955 -0.00186247 -0.00174563 -0.00162953 -0.00151471 -0.00140172 -0.0012911 -0.00118342
-0.00107922 -0.00097905 -0.000883431 -0.000792869 -0.00070784 -0.000628785 -0.00055611 -0.000490176 -0.000431301 -0.000379749
-0.000335731 -0.000299395 -0.000270812 -0.000249955 -0.000236661 -0.00023057 -0.00023104 -0.000236996 -0.000246713 -0.00025759
-0.000265703 
U 3 192 float
0 0 0 0 0 0 0 0 0 0 0
0 0 0 0 0 0 0 0 0 0
0 0 0 0 0 0 0 0 0 0
0 0 0 0 0 0 0 0 0 0
0 0 0 0 0 0 0 0 0 0
0 0 0 0 0 0 0 0 0 0
0 0 0 0 0 0 0 0 0 0
0 0 0 0 0 0 0 0 0 0
0 0 0 0 0 0 0 0 0 0
0 0 0 0 0 0 0 0 0 0
0 0 0 0 0 0 0 0 0 0
0 0 0 0 0 0 0 0 0 0
0 0 0 0 0 0 0 0 0 0
0 0 0 0 0 0 0 0 0 0
0 0 0 0 0 0 0 0 0 0
0 0 0 0 0 0 0 0 0 0
0 0 0 0 0 0 0 0 0 0
0 0 0 0 0 0 0 0 0 0
0 0 0 0 0 0 0 0 0 0
0 0 0 0 0 0 0 0 0 0
0 0 0 0 0 0 0 0 0 0
0 0 0 0 0 0 0 0 0 0
0 0 0 0 0 0 0 0 0 0
0 0 0 0 0 0 0 0 0 0
0 0 0 0 0 0 0 0 0 0
0 0 0 0 0 0 0 0 0 0
0 0 0 0 0 0 0 0 0 0
0 0 0 0 0 0 0 0 0 0
0 0 0 0 0 0 0 0 0 0
0 0 0 0 0 0 0 0 0 0
0 0 0 0 0 0 0 0 0 0
0 0 0 0 0 0 0 0 0 0
0 0 0 0 0 0 0 0 0 0
0 0 0 0 0 0 0 0 0 0
0 0 0 0 0 0 0 0 0 0
0 0 0 0 0 0 0 0 0 0
0 0 0 0 0 0 0 0 0 0
0 0 0 0 0 0 0 0 0 0
0 0 0 0 0 0 0 0 0 0
0 0 0 0 0 0 0 0 0 0
0 0 0 0 0 0 0 0 0 0
0 0 0 0 0 0 0 0 0 0
0 0 0 0 0 0 0 0 0 0
0 0 0 0 0 0 0 0 0 0
0 0 0 0 0 0 0 0 0 0
0 0 0 0 0 0 0 0 0 0
0 0 0 0 0 0 0 0 0 0
0 0 0 0 0 0 0 0 0 0
0 0 0 0 0 0 0 0 0 0
0 0 0 0 0 0 0 0 0 0
0 0 0 0 0 0 0 0 0 0
0 0 0 0 0 0 0 0 0 0
0 0 0 0 0 0 0 0 0 0
0 0 0 0 0 0 0 0 0 0
0 0 0 0 0 0 0 0 0 0
0 0 0 0 0 0 0 0 0 0
0 0 0 0 0 0 0 0 0 0
0 0 0 0 0 
POINT_DATA  386
FIELD attributes 2
p 1 386 float
-0.00410491 -0.00410491 -0.00410197 -0.00410197 -0.0040958 -0.0040958 -0.00409027 -0.00409027 -0.00408766 -0.00408766 -0.00408954
-0.00408954 -0.00409687 -0.00409687 -0.00411023 -0.00411023 -0.00412995 -0.00412995 -0.00415622 -0.00415622 -0.00418912
-0.00418912 -0.00422873 -0.00422873 -0.00427506 -0.00427506 -0.00432813 -0.00432813 -0.00438796 -0.00438796 -0.00445461
-0.00445461 -0.0045281 -0.0045281 -0.00460845 -0.00460845 -0.00469573 -0.00469573 -0.00478998 -0.00478998 -0.00489123
-0.00489123 -0.00499954 -0.00499954 -0.00511491 -0.00511491 -0.0052374 -0.0052374 -0.005367 -0.005367 -0.00550373
-0.00550373 -0.00564758 -0.00564758 -0.00579853 -0.00579853 -0.00595655 -0.00595655 -0.00612159 -0.00612159 -0.0062936
-0.0062936 -0.00647252 -0.00647252 -0.00665828 -0.00665828 -0.00685081 -0.00685081 -0.00705002 -0.00705002 -0.00725587
-0.00725587 -0.00746832 -0.00746832 -0.00768735 -0.00768735 -0.007913 -0.007913 -0.00814537 -0.00814537 -0.00838464
-0.00838464 -0.00863111 -0.00863111 -0.00888523 -0.00888523 -0.00914763 -0.00914763 -0.0094192 -0.0094192 -0.00970115
-0.00970115 -0.0099951 -0.0099951 -0.0103033 -0.0103033 -0.0106286 -0.0106286 -0.0109751 -0.0109751 -0.0113481
-0.0113481 -0.0117548 -0.0117548 -0.0122056 -0.0122056 -0.0127152 -0.0127152 -0.0133054 -0.0133054 -0.0140094
-0.0140094 -0.0148807 -0.0148807 -0.016009 -0.016009 -0.0175523 -0.0175523 -0.019802 -0.019802 -0.0233626
-0.0233626 -0.0299441 -0.0299441 -0.0453347 -0.0453347 -0.0815329 -0.0815329 -0.10671 -0.10671 -0.000265703
-0.000269738 -0.000269738 -0.000265703 -0.000279184 -0.000279184 -0.000289597 -0.000289597 -0.0002982 -0.0002982 -0.000303527
-0.000303527 -0.000304953 -0.000304953 -0.000302373 -0.000302373 -0.00029596 -0.00029596 -0.000286027 -0.000286027 -0.000272957
-0.000272957 -0.000257167 -0.000257167 -0.000239108 -0.000239108 -0.000219276 -0.000219276 -0.000198219 -0.000198219 -0.000176572
-0.000176572 -0.000155072 -0.000155072 -0.000134593 -0.000134593 -0.000116171 -0.000116171 -0.000101044 -0.000101044 -9.06893e-05
-9.06893e-05 -8.68722e-05 -8.68722e-05 -9.16986e-05 -9.16986e-05 -0.000107681 -0.000107681 -0.000137817 -0.000137817 -0.000185656
-0.000185656 -0.000255158 -0.000255158 -0.000351265 -0.000351265 -0.000479745 -0.000479745 -0.000646758 -0.000646758 -0.000859212
-0.000859212 -0.00112428 -0.00112428 -0.00144854 -0.00144854 -0.00183695 -0.00183695 -0.00229119 -0.00229119 -0.00280805
-0.00280805 -0.00338415 -0.00338415 -0.00400954 -0.00400954 -0.00468082 -0.00468082 -0.00541731 -0.00541731 -0.00625906
-0.00625906 -0.00727028 -0.00727028 -0.00852843 -0.00852843 -0.0101047 -0.0101047 -0.0120414 -0.0120414 -0.0143389
-0.0143389 -0.0169444 -0.0169444 -0.0197248 -0.0197248 -0.0224381 -0.0224381 -0.0247188 -0.0247188 -0.0260868
-0.0260868 -0.0259835 -0.0259835 -0.0238301 -0.0238301 -0.0190814 -0.0190814 -0.0112149 -0.0112149 0.000356655
0.000356655 0.0163791 0.0163791 0.0378605 0.0378605 0.0662398 0.0662398 0.103828 0.103828 0.154717
0.154717 0.226783 0.226783 0.332772 0.332772 0.475051 0.475051 0.55398 0.55398 -0.00410785
-0.00410785 -0.004114 -0.004114 -0.00411951 -0.00411951 -0.00412231 -0.00412231 -0.00412107 -0.00412107 -0.00411513
-0.00411513 -0.00410426 -0.00410426 -0.00408839 -0.00408839 -0.00406756 -0.00406756 -0.00404189 -0.00404189 -0.00401145
-0.00401145 -0.00397633 -0.00397633 -0.00393657 -0.00393657 -0.00389226 -0.00389226 -0.00384341 -0.00384341 -0.00379005
-0.00379005 -0.00373223 -0.00373223 -0.00366998 -0.00366998 -0.00360332 -0.00360332 -0.00353232 -0.00353232 -0.00345705
-0.00345705 -0.00337757 -0.00337757 -0.00329398 -0.00329398 -0.0032064 -0.0032064 -0.00311497 -0.00311497 -0.00301985
-0.00301985 -0.00292123 -0.00292123 -0.00281931 -0.00281931 -0.00271434 -0.00271434 -0.0026066 -0.0026066 -0.00249638
-0.00249638 -0.00238402 -0.00238402 -0.0022699 -0.0022699 -0.0021544 -0.0021544 -0.00203795 -0.00203795 -0.00192101
-0.00192101 -0.00180405 -0.00180405 -0.00168758 -0.00168758 -0.00157212 -0.00157212 -0.00145821 -0.00145821 -0.00134641
-0.00134641 -0.00123726 -0.00123726 -0.00113132 -0.00113132 -0.00102913 -0.00102913 -0.000931241 -0.000931241 -0.00083815
-0.00083815 -0.000750354 -0.000750354 -0.000668312 -0.000668312 -0.000592448 -0.000592448 -0.000523143 -0.000523143 -0.000460738
-0.000460738 -0.000405525 -0.000405525 -0.00035774 -0.00035774 -0.000317563 -0.000317563 -0.000285104 -0.000285104 -0.000260384
-0.000260384 -0.000243308 -0.000243308 -0.000233616 -0.000233616 -0.000230805 -0.000230805 -0.000234018 -0.000234018 -0.000241855
-0.000241855 -0.000252152 -0.000252152 -0.000261646 -0.000261646 
U 3 386 float
0 0 0 0 0 0 0 0 0 0 0
0 0 0 0 0 0 0 0 0 0
0 0 0 0 0 0 0 0 0 0
0 0 0 0 0 0 0 0 0 0
0 0 0 0 0 0 0 0 0 0
0 0 0 0 0 0 0 0 0 0
0 0 0 0 0 0 0 0 0 0
0 0 0 0 0 0 0 0 0 0
0 0 0 0 0 0 0 0 0 0
0 0 0 0 0 0 0 0 0 0
0 0 0 0 0 0 0 0 0 0
0 0 0 0 0 0 0 0 0 0
0 0 0 0 0 0 0 0 0 0
0 0 0 0 0 0 0 0 0 0
0 0 0 0 0 0 0 0 0 0
0 0 0 0 0 0 0 0 0 0
0 0 0 0 0 0 0 0 0 0
0 0 0 0 0 0 0 0 0 0
0 0 0 0 0 0 0 0 0 0
0 0 0 0 0 0 0 0 0 0
0 0 0 0 0 0 0 0 0 0
0 0 0 0 0 0 0 0 0 0
0 0 0 0 0 0 0 0 0 0
0 0 0 0 0 0 0 0 0 0
0 0 0 0 0 0 0 0 0 0
0 0 0 0 0 0 0 0 0 0
0 0 0 0 0 0 0 0 0 0
0 0 0 0 0 0 0 0 0 0
0 0 0 0 0 0 0 0 0 0
0 0 0 0 0 0 0 0 0 0
0 0 0 0 0 0 0 0 0 0
0 0 0 0 0 0 0 0 0 0
0 0 0 0 0 0 0 0 0 0
0 0 0 0 0 0 0 0 0 0
0 0 0 0 0 0 0 0 0 0
0 0 0 0 0 0 0 0 0 0
0 0 0 0 0 0 0 0 0 0
0 0 0 0 0 0 0 0 0 0
0 0 0 0 0 0 0 0 0 0
0 0 0 0 0 0 0 0 0 0
0 0 0 0 0 0 0 0 0 0
0 0 0 0 0 0 0 0 0 0
0 0 0 0 0 0 0 0 0 0
0 0 0 0 0 0 0 0 0 0
0 0 0 0 0 0 0 0 0 0
0 0 0 0 0 0 0 0 0 0
0 0 0 0 0 0 0 0 0 0
0 0 0 0 0 0 0 0 0 0
0 0 0 0 0 0 0 0 0 0
0 0 0 0 0 0 0 0 0 0
0 0 0 0 0 0 0 0 0 0
0 0 0 0 0 0 0 0 0 0
0 0 0 0 0 0 0 0 0 0
0 0 0 0 0 0 0 0 0 0
0 0 0 0 0 0 0 0 0 0
0 0 0 0 0 0 0 0 0 0
0 0 0 0 0 0 0 0 0 0
0 0 0 0 0 0 0 0 0 0
0 0 0 0 0 0 0 0 0 0
0 0 0 0 0 0 0 0 0 0
0 0 0 0 0 0 0 0 0 0
0 0 0 0 0 0 0 0 0 0
0 0 0 0 0 0 0 0 0 0
0 0 0 0 0 0 0 0 0 0
0 0 0 0 0 0 0 0 0 0
0 0 0 0 0 0 0 0 0 0
0 0 0 0 0 0 0 0 0 0
0 0 0 0 0 0 0 0 0 0
0 0 0 0 0 0 0 0 0 0
0 0 0 0 0 0 0 0 0 0
0 0 0 0 0 0 0 0 0 0
0 0 0 0 0 0 0 0 0 0
0 0 0 0 0 0 0 0 0 0
0 0 0 0 0 0 0 0 0 0
0 0 0 0 0 0 0 0 0 0
0 0 0 0 0 0 0 0 0 0
0 0 0 0 0 0 0 0 0 0
0 0 0 0 0 0 0 0 0 0
0 0 0 0 0 0 0 0 0 0
0 0 0 0 0 0 0 0 0 0
0 0 0 0 0 0 0 0 0 0
0 0 0 0 0 0 0 0 0 0
0 0 0 0 0 0 0 0 0 0
0 0 0 0 0 0 0 0 0 0
0 0 0 0 0 0 0 0 0 0
0 0 0 0 0 0 0 0 0 0
0 0 0 0 0 0 0 0 0 0
0 0 0 0 0 0 0 0 0 0
0 0 0 0 0 0 0 0 0 0
0 0 0 0 0 0 0 0 0 0
0 0 0 0 0 0 0 0 0 0
0 0 0 0 0 0 0 0 0 0
0 0 0 0 0 0 0 0 0 0
0 0 0 0 0 0 0 0 0 0
0 0 0 0 0 0 0 0 0 0
0 0 0 0 0 0 0 0 0 0
0 0 0 0 0 0 0 0 0 0
0 0 0 0 0 0 0 0 0 0
0 0 0 0 0 0 0 0 0 0
0 0 0 0 0 0 0 0 0 0
0 0 0 0 0 0 0 0 0 0
0 0 0 0 0 0 0 0 0 0
0 0 0 0 0 0 0 0 0 0
0 0 0 0 0 0 0 0 0 0
0 0 0 0 0 0 0 0 0 0
0 0 0 0 0 0 0 0 0 0
0 0 0 0 0 0 0 0 0 0
0 0 0 0 0 0 0 0 0 0
0 0 0 0 0 0 0 0 0 0
0 0 0 0 0 0 0 0 0 0
0 0 0 0 0 0 0 0 0 0
0 0 0 0 0 0 0 0 0 0
0 0 0 0 0 0 0 0 0 0
0 0 0 0 0 0 0 0 0 0
0 0 0 0 0 0 0 0 0 0
0 0 0 0 0 0 0 
