# vtk DataFile Version 2.0
fixedWalls
ASCII
DATASET POLYDATA
POINTS 386 float
0 0 0 0 0 0.1 0 0.015625 0.1 0 0.015625
0 0 0.03125 0.1 0 0.03125 0 0 0.046875 0.1
0 0.046875 0 0 0.0625 0.1 0 0.0625 0 0
0.078125 0.1 0 0.078125 0 0 0.09375 0.1 0 0.09375
0 0 0.109375 0.1 0 0.109375 0 0 0.125 0.1
0 0.125 0 0 0.140625 0.1 0 0.140625 0 0
0.15625 0.1 0 0.15625 0 0 0.171875 0.1 0 0.171875
0 0 0.1875 0.1 0 0.1875 0 0 0.203125 0.1
0 0.203125 0 0 0.21875 0.1 0 0.21875 0 0
0.234375 0.1 0 0.234375 0 0 0.25 0.1 0 0.25
0 0 0.265625 0.1 0 0.265625 0 0 0.28125 0.1
0 0.28125 0 0 0.296875 0.1 0 0.296875 0 0
0.3125 0.1 0 0.3125 0 0 0.328125 0.1 0 0.328125
0 0 0.34375 0.1 0 0.34375 0 0 0.359375 0.1
0 0.359375 0 0 0.375 0.1 0 0.375 0 0
0.390625 0.1 0 0.390625 0 0 0.40625 0.1 0 0.40625
0 0 0.421875 0.1 0 0.421875 0 0 0.4375 0.1
0 0.4375 0 0 0.453125 0.1 0 0.453125 0 0
0.46875 0.1 0 0.46875 0 0 0.484375 0.1 0 0.484375
0 0 0.5 0.1 0 0.5 0 0 0.515625 0.1
0 0.515625 0 0 0.53125 0.1 0 0.53125 0 0
0.546875 0.1 0 0.546875 0 0 0.5625 0.1 0 0.5625
0 0 0.578125 0.1 0 0.578125 0 0 0.59375 0.1
0 0.59375 0 0 0.609375 0.1 0 0.609375 0 0
0.625 0.1 0 0.625 0 0 0.640625 0.1 0 0.640625
0 0 0.65625 0.1 0 0.65625 0 0 0.671875 0.1
0 0.671875 0 0 0.6875 0.1 0 0.6875 0 0
0.703125 0.1 0 0.703125 0 0 0.71875 0.1 0 0.71875
0 0 0.734375 0.1 0 0.734375 0 0 0.75 0.1
0 0.75 0 0 0.765625 0.1 0 0.765625 0 0
0.78125 0.1 0 0.78125 0 0 0.796875 0.1 0 0.796875
0 0 0.8125 0.1 0 0.8125 0 0 0.828125 0.1
0 0.828125 0 0 0.84375 0.1 0 0.84375 0 0
0.859375 0.1 0 0.859375 0 0 0.875 0.1 0 0.875
0 0 0.890625 0.1 0 0.890625 0 0 0.90625 0.1
0 0.90625 0 0 0.921875 0.1 0 0.921875 0 0
0.9375 0.1 0 0.9375 0 0 0.953125 0.1 0 0.953125
0 0 0.96875 0.1 0 0.96875 0 0 0.984375 0.1
0 0.984375 0 0 1 0.1 0 1 0 1
0 0 1 0.015625 0 1 0.015625 0.1 1 0
0.1 1 0.03125 0 1 0.03125 0.1 1 0.046875 0
1 0.046875 0.1 1 0.0625 0 1 0.0625 0.1 1
0.078125 0 1 0.078125 0.1 1 0.09375 0 1 0.09375
0.1 1 0.109375 0 1 0.109375 0.1 1 0.125 0
1 0.125 0.1 1 0.140625 0 1 0.140625 0.1 1
0.15625 0 1 0.15625 0.1 1 0.171875 0 1 0.171875
0.1 1 0.1875 0 1 0.1875 0.1 1 0.203125 0
1 0.203125 0.1 1 0.21875 0 1 0.21875 0.1 1
0.234375 0 1 0.234375 0.1 1 0.25 0 1 0.25
0.1 1 0.265625 0 1 0.265625 0.1 1 0.28125 0
1 0.28125 0.1 1 0.296875 0 1 0.296875 0.1 1
0.3125 0 1 0.3125 0.1 1 0.328125 0 1 0.328125
0.1 1 0.34375 0 1 0.34375 0.1 1 0.359375 0
1 0.359375 0.1 1 0.375 0 1 0.375 0.1 1
0.390625 0 1 0.390625 0.1 1 0.40625 0 1 0.40625
0.1 1 0.421875 0 1 0.421875 0.1 1 0.4375 0
1 0.4375 0.1 1 0.453125 0 1 0.453125 0.1 1
0.46875 0 1 0.46875 0.1 1 0.484375 0 1 0.484375
0.1 1 0.5 0 1 0.5 0.1 1 0.515625 0
1 0.515625 0.1 1 0.53125 0 1 0.53125 0.1 1
0.546875 0 1 0.546875 0.1 1 0.5625 0 1 0.5625
0.1 1 0.578125 0 1 0.578125 0.1 1 0.59375 0
1 0.59375 0.1 1 0.609375 0 1 0.609375 0.1 1
0.625 0 1 0.625 0.1 1 0.640625 0 1 0.640625
0.1 1 0.65625 0 1 0.65625 0.1 1 0.671875 0
1 0.671875 0.1 1 0.6875 0 1 0.6875 0.1 1
0.703125 0 1 0.703125 0.1 1 0.71875 0 1 0.71875
0.1 1 0.734375 0 1 0.734375 0.1 1 0.75 0
1 0.75 0.1 1 0.765625 0 1 0.765625 0.1 1
0.78125 0 1 0.78125 0.1 1 0.796875 0 1 0.796875
0.1 1 0.8125 0 1 0.8125 0.1 1 0.828125 0
1 0.828125 0.1 1 0.84375 0 1 0.84375 0.1 1
0.859375 0 1 0.859375 0.1 1 0.875 0 1 0.875
0.1 1 0.890625 0 1 0.890625 0.1 1 0.90625 0
1 0.90625 0.1 1 0.921875 0 1 0.921875 0.1 1
0.9375 0 1 0.9375 0.1 1 0.953125 0 1 0.953125
0.1 1 0.96875 0 1 0.96875 0.1 1 0.984375 0
1 0.984375 0.1 1 1 0 1 1 0.1 0.015625
0 0 0.015625 0 0.1 0.03125 0 0 0.03125 0
0.1 0.046875 0 0 0.046875 0 0.1 0.0625 0 0
0.0625 0 0.1 0.078125 0 0 0.078125 0 0.1 0.09375
0 0 0.09375 0 0.1 0.109375 0 0 0.109375 0
0.1 0.125 0 0 0.125 0 0.1 0.140625 0 0
0.140625 0 0.1 0.15625 0 0 0.15625 0 0.1 0.171875
0 0 0.171875 0 0.1 0.1875 0 0 0.1875 0
0.1 0.203125 0 0 0.203125 0 0.1 0.21875 0 0
0.21875 0 0.1 0.234375 0 0 0.234375 0 0.1 0.25
0 0 0.25 0 0.1 0.265625 0 0 0.265625 0
0.1 0.28125 0 0 0.28125 0 0.1 0.296875 0 0
0.296875 0 0.1 0.3125 0 0 0.3125 0 0.1 0.328125
0 0 0.328125 0 0.1 0.34375 0 0 0.34375 0
0.1 0.359375 0 0 0.359375 0 0.1 0.375 0 0
0.375 0 0.1 0.390625 0 0 0.390625 0 0.1 0.40625
0 0 0.40625 0 0.1 0.421875 0 0 0.421875 0
0.1 0.4375 0 0 0.4375 0 0.1 0.453125 0 0
0.453125 0 0.1 0.46875 0 0 0.46875 0 0.1 0.484375
0 0 0.484375 0 0.1 0.5 0 0 0.5 0
0.1 0.515625 0 0 0.515625 0 0.1 0.53125 0 0
0.53125 0 0.1 0.546875 0 0 0.546875 0 0.1 0.5625
0 0 0.5625 0 0.1 0.578125 0 0 0.578125 0
0.1 0.59375 0 0 0.59375 0 0.1 0.609375 0 0
0.609375 0 0.1 0.625 0 0 0.625 0 0.1 0.640625
0 0 0.640625 0 0.1 0.65625 0 0 0.65625 0
0.1 0.671875 0 0 0.671875 0 0.1 0.6875 0 0
0.6875 0 0.1 0.703125 0 0 0.703125 0 0.1 0.71875
0 0 0.71875 0 0.1 0.734375 0 0 0.734375 0
0.1 0.75 0 0 0.75 0 0.1 0.765625 0 0
0.765625 0 0.1 0.78125 0 0 0.78125 0 0.1 0.796875
0 0 0.796875 0 0.1 0.8125 0 0 0.8125 0
0.1 0.828125 0 0 0.828125 0 0.1 0.84375 0 0
0.84375 0 0.1 0.859375 0 0 0.859375 0 0.1 0.875
0 0 0.875 0 0.1 0.890625 0 0 0.890625 0
0.1 0.90625 0 0 0.90625 0 0.1 0.921875 0 0
0.921875 0 0.1 0.9375 0 0 0.9375 0 0.1 0.953125
0 0 0.953125 0 0.1 0.96875 0 0 0.96875 0
0.1 0.984375 0 0 0.984375 0 0.1 
POLYGONS 192 960
4 0 1 2 3 4 3 2 4 5 4
5 4 6 7 4 7 6 8 9 4
9 8 10 11 4 11 10 12 13 4
13 12 14 15 4 15 14 16 17 4
17 16 18 19 4 19 18 20 21 4
21 20 22 23 4 23 22 24 25 4
25 24 26 27 4 27 26 28 29 4
29 28 30 31 4 31 30 32 33 4
33 32 34 35 4 35 34 36 37 4
37 36 38 39 4 39 38 40 41 4
41 40 42 43 4 43 42 44 45 4
45 44 46 47 4 47 46 48 49 4
49 48 50 51 4 51 50 52 53 4
53 52 54 55 4 55 54 56 57 4
57 56 58 59 4 59 58 60 61 4
61 60 62 63 4 63 62 64 65 4
65 64 66 67 4 67 66 68 69 4
69 68 70 71 4 71 70 72 73 4
73 72 74 75 4 75 74 76 77 4
77 76 78 79 4 79 78 80 81 4
81 80 82 83 4 83 82 84 85 4
85 84 86 87 4 87 86 88 89 4
89 88 90 91 4 91 90 92 93 4
93 92 94 95 4 95 94 96 97 4
97 96 98 99 4 99 98 100 101 4
101 100 102 103 4 103 102 104 105 4
105 104 106 107 4 107 106 108 109 4
109 108 110 111 4 111 110 112 113 4
113 112 114 115 4 115 114 116 117 4
117 116 118 119 4 119 118 120 121 4
121 120 122 123 4 123 122 124 125 4
125 124 126 127 4 127 126 128 129 4
130 131 132 133 4 131 134 135 132 4
134 136 137 135 4 136 138 139 137 4
138 140 141 139 4 140 142 143 141 4
142 144 145 143 4 144 146 147 145 4
146 148 149 147 4 148 150 151 149 4
150 152 153 151 4 152 154 155 153 4
154 156 157 155 4 156 158 159 157 4
158 160 161 159 4 160 162 163 161 4
162 164 165 163 4 164 166 167 165 4
166 168 169 167 4 168 170 171 169 4
170 172 173 171 4 172 174 175 173 4
174 176 177 175 4 176 178 179 177 4
178 180 181 179 4 180 182 183 181 4
182 184 185 183 4 184 186 187 185 4
186 188 189 187 4 188 190 191 189 4
190 192 193 191 4 192 194 195 193 4
194 196 197 195 4 196 198 199 197 4
198 200 201 199 4 200 202 203 201 4
202 204 205 203 4 204 206 207 205 4
206 208 209 207 4 208 210 211 209 4
210 212 213 211 4 212 214 215 213 4
214 216 217 215 4 216 218 219 217 4
218 220 221 219 4 220 222 223 221 4
222 224 225 223 4 224 226 227 225 4
226 228 229 227 4 228 230 231 229 4
230 232 233 231 4 232 234 235 233 4
234 236 237 235 4 236 238 239 237 4
238 240 241 239 4 240 242 243 241 4
242 244 245 243 4 244 246 247 245 4
246 248 249 247 4 248 250 251 249 4
250 252 253 251 4 252 254 255 253 4
254 256 257 255 4 256 258 259 257 4
0 260 261 1 4 260 262 263 261 4
262 264 265 263 4 264 266 267 265 4
266 268 269 267 4 268 270 271 269 4
270 272 273 271 4 272 274 275 273 4
274 276 277 275 4 276 278 279 277 4
278 280 281 279 4 280 282 283 281 4
282 284 285 283 4 284 286 287 285 4
286 288 289 287 4 288 290 291 289 4
290 292 293 291 4 292 294 295 293 4
294 296 297 295 4 296 298 299 297 4
298 300 301 299 4 300 302 303 301 4
302 304 305 303 4 304 306 307 305 4
306 308 309 307 4 308 310 311 309 4
310 312 313 311 4 312 314 315 313 4
314 316 317 315 4 316 318 319 317 4
318 320 321 319 4 320 322 323 321 4
322 324 325 323 4 324 326 327 325 4
326 328 329 327 4 328 330 331 329 4
330 332 333 331 4 332 334 335 333 4
334 336 337 335 4 336 338 339 337 4
338 340 341 339 4 340 342 343 341 4
342 344 345 343 4 344 346 347 345 4
346 348 349 347 4 348 350 351 349 4
350 352 353 351 4 352 354 355 353 4
354 356 357 355 4 356 358 359 357 4
358 360 361 359 4 360 362 363 361 4
362 364 365 363 4 364 366 367 365 4
366 368 369 367 4 368 370 371 369 4
370 372 373 371 4 372 374 375 373 4
374 376 377 375 4 376 378 379 377 4
378 380 381 379 4 380 382 383 381 4
382 384 385 383 4 384 130 133 385 
CELL_DATA 192
FIELD attributes 3
patchID 1 192 float
1 1 1 1 1 1 1 1 1 1 1
1 1 1 1 1 1 1 1 1 1
1 1 1 1 1 1 1 1 1 1
1 1 1 1 1 1 1 1 1 1
1 1 1 1 1 1 1 1 1 1
1 1 1 1 1 1 1 1 1 1
1 1 1 1 1 1 1 1 1 1
1 1 1 1 1 1 1 1 1 1
1 1 1 1 1 1 1 1 1 1
1 1 1 1 1 1 1 1 1 1
1 1 1 1 1 1 1 1 1 1
1 1 1 1 1 1 1 1 1 1
1 1 1 1 1 1 1 1 1 1
1 1 1 1 1 1 1 1 1 1
1 1 1 1 1 1 1 1 1 1
1 1 1 1 1 1 1 1 1 1
1 1 1 1 1 1 1 1 1 1
1 1 1 1 1 1 1 1 1 1
1 1 1 1 1 1 1 1 1 1
1 
p 1 192 float
-0.00354514 -0.00353832 -0.00353052 -0.00352478 -0.00352339 -0.0035278 -0.00353895 -0.00355744 -0.00358369 -0.00361797 -0.00366047
-0.00371132 -0.00377064 -0.00383849 -0.00391497 -0.00400013 -0.00409405 -0.00419679 -0.00430841 -0.00442896 -0.00455849
-0.00469702 -0.00484455 -0.00500109 -0.00516658 -0.00534098 -0.00552417 -0.00571605 -0.00591644 -0.00612516 -0.00634199
-0.00656667 -0.00679893 -0.00703847 -0.00728497 -0.00753812 -0.00779761 -0.00806315 -0.0083345 -0.00861146 -0.00889396
-0.00918203 -0.00947588 -0.00977591 -0.0100829 -0.0103978 -0.0107223 -0.0110586 -0.0114098 -0.0117801 -0.0121754
-0.0126041 -0.0130779 -0.013614 -0.0142385 -0.0149916 -0.0159397 -0.0171968 -0.0189669 -0.0216321 -0.0260301
-0.0347605 -0.0568136 -0.107192 -4.28245e-05 -4.99254e-05 -6.2529e-05 -7.78206e-05 -9.36475e-05 -0.000109006 -0.000123565
-0.000137448 -0.000151053 -0.000164936 -0.000179753 -0.00019623 -0.000215165 -0.000237432 -0.000263999 -0.000295952 -0.000334506
-0.000381049 -0.000437119 -0.000504436 -0.000585091 -0.000681234 -0.000795272 -0.000929844 -0.00108772 -0.00127165 -0.00148416
-0.00172723 -0.00200169 -0.00230694 -0.00264109 -0.0030018 -0.00338855 -0.00380581 -0.00426772 -0.0047995 -0.00544182
-0.00624247 -0.00724961 -0.00850577 -0.0100404 -0.0118611 -0.0139498 -0.016257 -0.0186939 -0.0211385 -0.0234337
-0.0253741 -0.0267067 -0.0271254 -0.0262609 -0.0236909 -0.0189583 -0.0115787 -0.00103707 0.0133164 0.0323247
0.0571413 0.0894227 0.132051 0.190408 0.275192 0.401585 0.559549 -0.00354514 -0.00355197 -0.0035597
-0.00356547 -0.00356731 -0.00356424 -0.0035558 -0.00354189 -0.00352252 -0.00349781 -0.00346788 -0.00343287 -0.00339286
-0.00334797 -0.00329825 -0.00324379 -0.00318462 -0.00312082 -0.00305246 -0.00297959 -0.00290232 -0.00282075 -0.00273499
-0.00264521 -0.00255157 -0.00245428 -0.00235358 -0.00224975 -0.00214309 -0.00203394 -0.00192269 -0.00180977 -0.00169564
-0.00158082 -0.00146583 -0.00135112 -0.00123741 -0.00112527 -0.00101533 -0.000908201 -0.000804503 -0.000704845 -0.00060981
-0.000519949 -0.000435772 -0.000357736 -0.000286239 -0.000221612 -0.000164114 -0.000113928 -7.11568e-05 -3.58229e-05 -7.86519e-06
1.28648e-05 2.6608e-05 3.37094e-05 3.46352e-05 3.00042e-05 2.0634e-05 7.61808e-06 -7.56398e-06 -2.29487e-05 -3.57228e-05
-4.28245e-05 
U 3 192 float
0 0 0 0 0 0 0 0 0 0 0
0 0 0 0 0 0 0 0 0 0
0 0 0 0 0 0 0 0 0 0
0 0 0 0 0 0 0 0 0 0
0 0 0 0 0 0 0 0 0 0
0 0 0 0 0 0 0 0 0 0
0 0 0 0 0 0 0 0 0 0
0 0 0 0 0 0 0 0 0 0
0 0 0 0 0 0 0 0 0 0
0 0 0 0 0 0 0 0 0 0
0 0 0 0 0 0 0 0 0 0
0 0 0 0 0 0 0 0 0 0
0 0 0 0 0 0 0 0 0 0
0 0 0 0 0 0 0 0 0 0
0 0 0 0 0 0 0 0 0 0
0 0 0 0 0 0 0 0 0 0
0 0 0 0 0 0 0 0 0 0
0 0 0 0 0 0 0 0 0 0
0 0 0 0 0 0 0 0 0 0
0 0 0 0 0 0 0 0 0 0
0 0 0 0 0 0 0 0 0 0
0 0 0 0 0 0 0 0 0 0
0 0 0 0 0 0 0 0 0 0
0 0 0 0 0 0 0 0 0 0
0 0 0 0 0 0 0 0 0 0
0 0 0 0 0 0 0 0 0 0
0 0 0 0 0 0 0 0 0 0
0 0 0 0 0 0 0 0 0 0
0 0 0 0 0 0 0 0 0 0
0 0 0 0 0 0 0 0 0 0
0 0 0 0 0 0 0 0 0 0
0 0 0 0 0 0 0 0 0 0
0 0 0 0 0 0 0 0 0 0
0 0 0 0 0 0 0 0 0 0
0 0 0 0 0 0 0 0 0 0
0 0 0 0 0 0 0 0 0 0
0 0 0 0 0 0 0 0 0 0
0 0 0 0 0 0 0 0 0 0
0 0 0 0 0 0 0 0 0 0
0 0 0 0 0 0 0 0 0 0
0 0 0 0 0 0 0 0 0 0
0 0 0 0 0 0 0 0 0 0
0 0 0 0 0 0 0 0 0 0
0 0 0 0 0 0 0 0 0 0
0 0 0 0 0 0 0 0 0 0
0 0 0 0 0 0 0 0 0 0
0 0 0 0 0 0 0 0 0 0
0 0 0 0 0 0 0 0 0 0
0 0 0 0 0 0 0 0 0 0
0 0 0 0 0 0 0 0 0 0
0 0 0 0 0 0 0 0 0 0
0 0 0 0 0 0 0 0 0 0
0 0 0 0 0 0 0 0 0 0
0 0 0 0 0 0 0 0 0 0
0 0 0 0 0 0 0 0 0 0
0 0 0 0 0 0 0 0 0 0
0 0 0 0 0 0 0 0 0 0
0 0 0 0 0 
POINT_DATA  386
FIELD attributes 2
p 1 386 float
-0.00354514 -0.00354514 -0.00354173 -0.00354173 -0.00353442 -0.00353442 -0.00352765 -0.00352765 -0.00352409 -0.00352409 -0.00352559
-0.00352559 -0.00353337 -0.00353337 -0.00354819 -0.00354819 -0.00357057 -0.00357057 -0.00360083 -0.00360083 -0.00363922
-0.00363922 -0.00368589 -0.00368589 -0.00374098 -0.00374098 -0.00380456 -0.00380456 -0.00387673 -0.00387673 -0.00395755
-0.00395755 -0.00404709 -0.00404709 -0.00414542 -0.00414542 -0.0042526 -0.0042526 -0.00436869 -0.00436869 -0.00449373
-0.00449373 -0.00462775 -0.00462775 -0.00477079 -0.00477079 -0.00492282 -0.00492282 -0.00508384 -0.00508384 -0.00525378
-0.00525378 -0.00543258 -0.00543258 -0.00562011 -0.00562011 -0.00581624 -0.00581624 -0.0060208 -0.0060208 -0.00623357
-0.00623357 -0.00645433 -0.00645433 -0.0066828 -0.0066828 -0.0069187 -0.0069187 -0.00716172 -0.00716172 -0.00741155
-0.00741155 -0.00766787 -0.00766787 -0.00793038 -0.00793038 -0.00819882 -0.00819882 -0.00847298 -0.00847298 -0.00875271
-0.00875271 -0.00903799 -0.00903799 -0.00932895 -0.00932895 -0.00962589 -0.00962589 -0.0099294 -0.0099294 -0.0102403
-0.0102403 -0.01056 -0.01056 -0.0108905 -0.0108905 -0.0112342 -0.0112342 -0.011595 -0.011595 -0.0119777
-0.0119777 -0.0123898 -0.0123898 -0.012841 -0.012841 -0.013346 -0.013346 -0.0139262 -0.0139262 -0.014615
-0.014615 -0.0154656 -0.0154656 -0.0165682 -0.0165682 -0.0180818 -0.0180818 -0.0202995 -0.0202995 -0.0238311
-0.0238311 -0.0303953 -0.0303953 -0.0457871 -0.0457871 -0.0820028 -0.0820028 -0.107192 -0.107192 -4.28245e-05
-4.63749e-05 -4.63749e-05 -4.28245e-05 -5.62272e-05 -5.62272e-05 -7.01748e-05 -7.01748e-05 -8.5734e-05 -8.5734e-05 -0.000101327
-0.000101327 -0.000116285 -0.000116285 -0.000130506 -0.000130506 -0.000144251 -0.000144251 -0.000157994 -0.000157994 -0.000172345
-0.000172345 -0.000187992 -0.000187992 -0.000205698 -0.000205698 -0.000226299 -0.000226299 -0.000250716 -0.000250716 -0.000279976
-0.000279976 -0.000315229 -0.000315229 -0.000357777 -0.000357777 -0.000409084 -0.000409084 -0.000470778 -0.000470778 -0.000544764
-0.000544764 -0.000633163 -0.000633163 -0.000738253 -0.000738253 -0.000862558 -0.000862558 -0.00100878 -0.00100878 -0.00117969
-0.00117969 -0.00137791 -0.00137791 -0.00160569 -0.00160569 -0.00186446 -0.00186446 -0.00215431 -0.00215431 -0.00247402
-0.00247402 -0.00282144 -0.00282144 -0.00319517 -0.00319517 -0.00359718 -0.00359718 -0.00403677 -0.00403677 -0.00453361
-0.00453361 -0.00512066 -0.00512066 -0.00584215 -0.00584215 -0.00674604 -0.00674604 -0.00787769 -0.00787769 -0.00927308
-0.00927308 -0.0109507 -0.0109507 -0.0129054 -0.0129054 -0.0151034 -0.0151034 -0.0174755 -0.0174755 -0.0199162
-0.0199162 -0.0222861 -0.0222861 -0.0244039 -0.0244039 -0.0260404 -0.0260404 -0.026916 -0.026916 -0.0266932
-0.0266932 -0.0249759 -0.0249759 -0.0213246 -0.0213246 -0.0152685 -0.0152685 -0.00630789 -0.00630789 0.00613966
0.00613966 0.0228205 0.0228205 0.044733 0.044733 0.073282 0.073282 0.110737 0.110737 0.16123
0.16123 0.2328 0.2328 0.338389 0.338389 0.480567 0.480567 0.559549 0.559549 -0.00354856
-0.00354856 -0.00355583 -0.00355583 -0.00356258 -0.00356258 -0.00356639 -0.00356639 -0.00356577 -0.00356577 -0.00356002
-0.00356002 -0.00354884 -0.00354884 -0.00353221 -0.00353221 -0.00351017 -0.00351017 -0.00348284 -0.00348284 -0.00345038
-0.00345038 -0.00341287 -0.00341287 -0.00337041 -0.00337041 -0.00332311 -0.00332311 -0.00327102 -0.00327102 -0.0032142
-0.0032142 -0.00315272 -0.00315272 -0.00308664 -0.00308664 -0.00301603 -0.00301603 -0.00294096 -0.00294096 -0.00286153
-0.00286153 -0.00277787 -0.00277787 -0.0026901 -0.0026901 -0.00259839 -0.00259839 -0.00250292 -0.00250292 -0.00240393
-0.00240393 -0.00230167 -0.00230167 -0.00219642 -0.00219642 -0.00208852 -0.00208852 -0.00197831 -0.00197831 -0.00186623
-0.00186623 -0.0017527 -0.0017527 -0.00163823 -0.00163823 -0.00152332 -0.00152332 -0.00140847 -0.00140847 -0.00129427
-0.00129427 -0.00118134 -0.00118134 -0.0010703 -0.0010703 -0.000961765 -0.000961765 -0.000856352 -0.000856352 -0.000754674
-0.000754674 -0.000657327 -0.000657327 -0.00056488 -0.00056488 -0.000477861 -0.000477861 -0.000396754 -0.000396754 -0.000321987
-0.000321987 -0.000253926 -0.000253926 -0.000192863 -0.000192863 -0.000139021 -0.000139021 -9.25424e-05 -9.25424e-05 -5.34898e-05
-5.34898e-05 -2.1844e-05 -2.1844e-05 2.49981e-06 2.49981e-06 1.97364e-05 1.97364e-05 3.01587e-05 3.01587e-05 3.41723e-05
3.41723e-05 3.23197e-05 3.23197e-05 2.53191e-05 2.53191e-05 1.4126e-05 1.4126e-05 2.705e-08 2.705e-08 -1.52563e-05
-1.52563e-05 -2.93357e-05 -2.93357e-05 -3.92737e-05 -3.92737e-05 
U 3 386 float
0 0 0 0 0 0 0 0 0 0 0
0 0 0 0 0 0 0 0 0 0
0 0 0 0 0 0 0 0 0 0
0 0 0 0 0 0 0 0 0 0
0 0 0 0 0 0 0 0 0 0
0 0 0 0 0 0 0 0 0 0
0 0 0 0 0 0 0 0 0 0
0 0 0 0 0 0 0 0 0 0
0 0 0 0 0 0 0 0 0 0
0 0 0 0 0 0 0 0 0 0
0 0 0 0 0 0 0 0 0 0
0 0 0 0 0 0 0 0 0 0
0 0 0 0 0 0 0 0 0 0
0 0 0 0 0 0 0 0 0 0
0 0 0 0 0 0 0 0 0 0
0 0 0 0 0 0 0 0 0 0
0 0 0 0 0 0 0 0 0 0
0 0 0 0 0 0 0 0 0 0
0 0 0 0 0 0 0 0 0 0
0 0 0 0 0 0 0 0 0 0
0 0 0 0 0 0 0 0 0 0
0 0 0 0 0 0 0 0 0 0
0 0 0 0 0 0 0 0 0 0
0 0 0 0 0 0 0 0 0 0
0 0 0 0 0 0 0 0 0 0
0 0 0 0 0 0 0 0 0 0
0 0 0 0 0 0 0 0 0 0
0 0 0 0 0 0 0 0 0 0
0 0 0 0 0 0 0 0 0 0
0 0 0 0 0 0 0 0 0 0
0 0 0 0 0 0 0 0 0 0
0 0 0 0 0 0 0 0 0 0
0 0 0 0 0 0 0 0 0 0
0 0 0 0 0 0 0 0 0 0
0 0 0 0 0 0 0 0 0 0
0 0 0 0 0 0 0 0 0 0
0 0 0 0 0 0 0 0 0 0
0 0 0 0 0 0 0 0 0 0
0 0 0 0 0 0 0 0 0 0
0 0 0 0 0 0 0 0 0 0
0 0 0 0 0 0 0 0 0 0
0 0 0 0 0 0 0 0 0 0
0 0 0 0 0 0 0 0 0 0
0 0 0 0 0 0 0 0 0 0
0 0 0 0 0 0 0 0 0 0
0 0 0 0 0 0 0 0 0 0
0 0 0 0 0 0 0 0 0 0
0 0 0 0 0 0 0 0 0 0
0 0 0 0 0 0 0 0 0 0
0 0 0 0 0 0 0 0 0 0
0 0 0 0 0 0 0 0 0 0
0 0 0 0 0 0 0 0 0 0
0 0 0 0 0 0 0 0 0 0
0 0 0 0 0 0 0 0 0 0
0 0 0 0 0 0 0 0 0 0
0 0 0 0 0 0 0 0 0 0
0 0 0 0 0 0 0 0 0 0
0 0 0 0 0 0 0 0 0 0
0 0 0 0 0 0 0 0 0 0
0 0 0 0 0 0 0 0 0 0
0 0 0 0 0 0 0 0 0 0
0 0 0 0 0 0 0 0 0 0
0 0 0 0 0 0 0 0 0 0
0 0 0 0 0 0 0 0 0 0
0 0 0 0 0 0 0 0 0 0
0 0 0 0 0 0 0 0 0 0
0 0 0 0 0 0 0 0 0 0
0 0 0 0 0 0 0 0 0 0
0 0 0 0 0 0 0 0 0 0
0 0 0 0 0 0 0 0 0 0
0 0 0 0 0 0 0 0 0 0
0 0 0 0 0 0 0 0 0 0
0 0 0 0 0 0 0 0 0 0
0 0 0 0 0 0 0 0 0 0
0 0 0 0 0 0 0 0 0 0
0 0 0 0 0 0 0 0 0 0
0 0 0 0 0 0 0 0 0 0
0 0 0 0 0 0 0 0 0 0
0 0 0 0 0 0 0 0 0 0
0 0 0 0 0 0 0 0 0 0
0 0 0 0 0 0 0 0 0 0
0 0 0 0 0 0 0 0 0 0
0 0 0 0 0 0 0 0 0 0
0 0 0 0 0 0 0 0 0 0
0 0 0 0 0 0 0 0 0 0
0 0 0 0 0 0 0 0 0 0
0 0 0 0 0 0 0 0 0 0
0 0 0 0 0 0 0 0 0 0
0 0 0 0 0 0 0 0 0 0
0 0 0 0 0 0 0 0 0 0
0 0 0 0 0 0 0 0 0 0
0 0 0 0 0 0 0 0 0 0
0 0 0 0 0 0 0 0 0 0
0 0 0 0 0 0 0 0 0 0
0 0 0 0 0 0 0 0 0 0
0 0 0 0 0 0 0 0 0 0
0 0 0 0 0 0 0 0 0 0
0 0 0 0 0 0 0 0 0 0
0 0 0 0 0 0 0 0 0 0
0 0 0 0 0 0 0 0 0 0
0 0 0 0 0 0 0 0 0 0
0 0 0 0 0 0 0 0 0 0
0 0 0 0 0 0 0 0 0 0
0 0 0 0 0 0 0 0 0 0
0 0 0 0 0 0 0 0 0 0
0 0 0 0 0 0 0 0 0 0
0 0 0 0 0 0 0 0 0 0
0 0 0 0 0 0 0 0 0 0
0 0 0 0 0 0 0 0 0 0
0 0 0 0 0 0 0 0 0 0
0 0 0 0 0 0 0 0 0 0
0 0 0 0 0 0 0 0 0 0
0 0 0 0 0 0 0 0 0 0
0 0 0 0 0 0 0 0 0 0
0 0 0 0 0 0 0 0 0 0
0 0 0 0 0 0 0 
