# vtk DataFile Version 2.0
fixedWalls
ASCII
DATASET POLYDATA
POINTS 386 float
0 0 0 0 0 0.1 0 0.015625 0.1 0 0.015625
0 0 0.03125 0.1 0 0.03125 0 0 0.046875 0.1
0 0.046875 0 0 0.0625 0.1 0 0.0625 0 0
0.078125 0.1 0 0.078125 0 0 0.09375 0.1 0 0.09375
0 0 0.109375 0.1 0 0.109375 0 0 0.125 0.1
0 0.125 0 0 0.140625 0.1 0 0.140625 0 0
0.15625 0.1 0 0.15625 0 0 0.171875 0.1 0 0.171875
0 0 0.1875 0.1 0 0.1875 0 0 0.203125 0.1
0 0.203125 0 0 0.21875 0.1 0 0.21875 0 0
0.234375 0.1 0 0.234375 0 0 0.25 0.1 0 0.25
0 0 0.265625 0.1 0 0.265625 0 0 0.28125 0.1
0 0.28125 0 0 0.296875 0.1 0 0.296875 0 0
0.3125 0.1 0 0.3125 0 0 0.328125 0.1 0 0.328125
0 0 0.34375 0.1 0 0.34375 0 0 0.359375 0.1
0 0.359375 0 0 0.375 0.1 0 0.375 0 0
0.390625 0.1 0 0.390625 0 0 0.40625 0.1 0 0.40625
0 0 0.421875 0.1 0 0.421875 0 0 0.4375 0.1
0 0.4375 0 0 0.453125 0.1 0 0.453125 0 0
0.46875 0.1 0 0.46875 0 0 0.484375 0.1 0 0.484375
0 0 0.5 0.1 0 0.5 0 0 0.515625 0.1
0 0.515625 0 0 0.53125 0.1 0 0.53125 0 0
0.546875 0.1 0 0.546875 0 0 0.5625 0.1 0 0.5625
0 0 0.578125 0.1 0 0.578125 0 0 0.59375 0.1
0 0.59375 0 0 0.609375 0.1 0 0.609375 0 0
0.625 0.1 0 0.625 0 0 0.640625 0.1 0 0.640625
0 0 0.65625 0.1 0 0.65625 0 0 0.671875 0.1
0 0.671875 0 0 0.6875 0.1 0 0.6875 0 0
0.703125 0.1 0 0.703125 0 0 0.71875 0.1 0 0.71875
0 0 0.734375 0.1 0 0.734375 0 0 0.75 0.1
0 0.75 0 0 0.765625 0.1 0 0.765625 0 0
0.78125 0.1 0 0.78125 0 0 0.796875 0.1 0 0.796875
0 0 0.8125 0.1 0 0.8125 0 0 0.828125 0.1
0 0.828125 0 0 0.84375 0.1 0 0.84375 0 0
0.859375 0.1 0 0.859375 0 0 0.875 0.1 0 0.875
0 0 0.890625 0.1 0 0.890625 0 0 0.90625 0.1
0 0.90625 0 0 0.921875 0.1 0 0.921875 0 0
0.9375 0.1 0 0.9375 0 0 0.953125 0.1 0 0.953125
0 0 0.96875 0.1 0 0.96875 0 0 0.984375 0.1
0 0.984375 0 0 1 0.1 0 1 0 1
0 0 1 0.015625 0 1 0.015625 0.1 1 0
0.1 1 0.03125 0 1 0.03125 0.1 1 0.046875 0
1 0.046875 0.1 1 0.0625 0 1 0.0625 0.1 1
0.078125 0 1 0.078125 0.1 1 0.09375 0 1 0.09375
0.1 1 0.109375 0 1 0.109375 0.1 1 0.125 0
1 0.125 0.1 1 0.140625 0 1 0.140625 0.1 1
0.15625 0 1 0.15625 0.1 1 0.171875 0 1 0.171875
0.1 1 0.1875 0 1 0.1875 0.1 1 0.203125 0
1 0.203125 0.1 1 0.21875 0 1 0.21875 0.1 1
0.234375 0 1 0.234375 0.1 1 0.25 0 1 0.25
0.1 1 0.265625 0 1 0.265625 0.1 1 0.28125 0
1 0.28125 0.1 1 0.296875 0 1 0.296875 0.1 1
0.3125 0 1 0.3125 0.1 1 0.328125 0 1 0.328125
0.1 1 0.34375 0 1 0.34375 0.1 1 0.359375 0
1 0.359375 0.1 1 0.375 0 1 0.375 0.1 1
0.390625 0 1 0.390625 0.1 1 0.40625 0 1 0.40625
0.1 1 0.421875 0 1 0.421875 0.1 1 0.4375 0
1 0.4375 0.1 1 0.453125 0 1 0.453125 0.1 1
0.46875 0 1 0.46875 0.1 1 0.484375 0 1 0.484375
0.1 1 0.5 0 1 0.5 0.1 1 0.515625 0
1 0.515625 0.1 1 0.53125 0 1 0.53125 0.1 1
0.546875 0 1 0.546875 0.1 1 0.5625 0 1 0.5625
0.1 1 0.578125 0 1 0.578125 0.1 1 0.59375 0
1 0.59375 0.1 1 0.609375 0 1 0.609375 0.1 1
0.625 0 1 0.625 0.1 1 0.640625 0 1 0.640625
0.1 1 0.65625 0 1 0.65625 0.1 1 0.671875 0
1 0.671875 0.1 1 0.6875 0 1 0.6875 0.1 1
0.703125 0 1 0.703125 0.1 1 0.71875 0 1 0.71875
0.1 1 0.734375 0 1 0.734375 0.1 1 0.75 0
1 0.75 0.1 1 0.765625 0 1 0.765625 0.1 1
0.78125 0 1 0.78125 0.1 1 0.796875 0 1 0.796875
0.1 1 0.8125 0 1 0.8125 0.1 1 0.828125 0
1 0.828125 0.1 1 0.84375 0 1 0.84375 0.1 1
0.859375 0 1 0.859375 0.1 1 0.875 0 1 0.875
0.1 1 0.890625 0 1 0.890625 0.1 1 0.90625 0
1 0.90625 0.1 1 0.921875 0 1 0.921875 0.1 1
0.9375 0 1 0.9375 0.1 1 0.953125 0 1 0.953125
0.1 1 0.96875 0 1 0.96875 0.1 1 0.984375 0
1 0.984375 0.1 1 1 0 1 1 0.1 0.015625
0 0 0.015625 0 0.1 0.03125 0 0 0.03125 0
0.1 0.046875 0 0 0.046875 0 0.1 0.0625 0 0
0.0625 0 0.1 0.078125 0 0 0.078125 0 0.1 0.09375
0 0 0.09375 0 0.1 0.109375 0 0 0.109375 0
0.1 0.125 0 0 0.125 0 0.1 0.140625 0 0
0.140625 0 0.1 0.15625 0 0 0.15625 0 0.1 0.171875
0 0 0.171875 0 0.1 0.1875 0 0 0.1875 0
0.1 0.203125 0 0 0.203125 0 0.1 0.21875 0 0
0.21875 0 0.1 0.234375 0 0 0.234375 0 0.1 0.25
0 0 0.25 0 0.1 0.265625 0 0 0.265625 0
0.1 0.28125 0 0 0.28125 0 0.1 0.296875 0 0
0.296875 0 0.1 0.3125 0 0 0.3125 0 0.1 0.328125
0 0 0.328125 0 0.1 0.34375 0 0 0.34375 0
0.1 0.359375 0 0 0.359375 0 0.1 0.375 0 0
0.375 0 0.1 0.390625 0 0 0.390625 0 0.1 0.40625
0 0 0.40625 0 0.1 0.421875 0 0 0.421875 0
0.1 0.4375 0 0 0.4375 0 0.1 0.453125 0 0
0.453125 0 0.1 0.46875 0 0 0.46875 0 0.1 0.484375
0 0 0.484375 0 0.1 0.5 0 0 0.5 0
0.1 0.515625 0 0 0.515625 0 0.1 0.53125 0 0
0.53125 0 0.1 0.546875 0 0 0.546875 0 0.1 0.5625
0 0 0.5625 0 0.1 0.578125 0 0 0.578125 0
0.1 0.59375 0 0 0.59375 0 0.1 0.609375 0 0
0.609375 0 0.1 0.625 0 0 0.625 0 0.1 0.640625
0 0 0.640625 0 0.1 0.65625 0 0 0.65625 0
0.1 0.671875 0 0 0.671875 0 0.1 0.6875 0 0
0.6875 0 0.1 0.703125 0 0 0.703125 0 0.1 0.71875
0 0 0.71875 0 0.1 0.734375 0 0 0.734375 0
0.1 0.75 0 0 0.75 0 0.1 0.765625 0 0
0.765625 0 0.1 0.78125 0 0 0.78125 0 0.1 0.796875
0 0 0.796875 0 0.1 0.8125 0 0 0.8125 0
0.1 0.828125 0 0 0.828125 0 0.1 0.84375 0 0
0.84375 0 0.1 0.859375 0 0 0.859375 0 0.1 0.875
0 0 0.875 0 0.1 0.890625 0 0 0.890625 0
0.1 0.90625 0 0 0.90625 0 0.1 0.921875 0 0
0.921875 0 0.1 0.9375 0 0 0.9375 0 0.1 0.953125
0 0 0.953125 0 0.1 0.96875 0 0 0.96875 0
0.1 0.984375 0 0 0.984375 0 0.1 
POLYGONS 192 960
4 0 1 2 3 4 3 2 4 5 4
5 4 6 7 4 7 6 8 9 4
9 8 10 11 4 11 10 12 13 4
13 12 14 15 4 15 14 16 17 4
17 16 18 19 4 19 18 20 21 4
21 20 22 23 4 23 22 24 25 4
25 24 26 27 4 27 26 28 29 4
29 28 30 31 4 31 30 32 33 4
33 32 34 35 4 35 34 36 37 4
37 36 38 39 4 39 38 40 41 4
41 40 42 43 4 43 42 44 45 4
45 44 46 47 4 47 46 48 49 4
49 48 50 51 4 51 50 52 53 4
53 52 54 55 4 55 54 56 57 4
57 56 58 59 4 59 58 60 61 4
61 60 62 63 4 63 62 64 65 4
65 64 66 67 4 67 66 68 69 4
69 68 70 71 4 71 70 72 73 4
73 72 74 75 4 75 74 76 77 4
77 76 78 79 4 79 78 80 81 4
81 80 82 83 4 83 82 84 85 4
85 84 86 87 4 87 86 88 89 4
89 88 90 91 4 91 90 92 93 4
93 92 94 95 4 95 94 96 97 4
97 96 98 99 4 99 98 100 101 4
101 100 102 103 4 103 102 104 105 4
105 104 106 107 4 107 106 108 109 4
109 108 110 111 4 111 110 112 113 4
113 112 114 115 4 115 114 116 117 4
117 116 118 119 4 119 118 120 121 4
121 120 122 123 4 123 122 124 125 4
125 124 126 127 4 127 126 128 129 4
130 131 132 133 4 131 134 135 132 4
134 136 137 135 4 136 138 139 137 4
138 140 141 139 4 140 142 143 141 4
142 144 145 143 4 144 146 147 145 4
146 148 149 147 4 148 150 151 149 4
150 152 153 151 4 152 154 155 153 4
154 156 157 155 4 156 158 159 157 4
158 160 161 159 4 160 162 163 161 4
162 164 165 163 4 164 166 167 165 4
166 168 169 167 4 168 170 171 169 4
170 172 173 171 4 172 174 175 173 4
174 176 177 175 4 176 178 179 177 4
178 180 181 179 4 180 182 183 181 4
182 184 185 183 4 184 186 187 185 4
186 188 189 187 4 188 190 191 189 4
190 192 193 191 4 192 194 195 193 4
194 196 197 195 4 196 198 199 197 4
198 200 201 199 4 200 202 203 201 4
202 204 205 203 4 204 206 207 205 4
206 208 209 207 4 208 210 211 209 4
210 212 213 211 4 212 214 215 213 4
214 216 217 215 4 216 218 219 217 4
218 220 221 219 4 220 222 223 221 4
222 224 225 223 4 224 226 227 225 4
226 228 229 227 4 228 230 231 229 4
230 232 233 231 4 232 234 235 233 4
234 236 237 235 4 236 238 239 237 4
238 240 241 239 4 240 242 243 241 4
242 244 245 243 4 244 246 247 245 4
246 248 249 247 4 248 250 251 249 4
250 252 253 251 4 252 254 255 253 4
254 256 257 255 4 256 258 259 257 4
0 260 261 1 4 260 262 263 261 4
262 264 265 263 4 264 266 267 265 4
266 268 269 267 4 268 270 271 269 4
270 272 273 271 4 272 274 275 273 4
274 276 277 275 4 276 278 279 277 4
278 280 281 279 4 280 282 283 281 4
282 284 285 283 4 284 286 287 285 4
286 288 289 287 4 288 290 291 289 4
290 292 293 291 4 292 294 295 293 4
294 296 297 295 4 296 298 299 297 4
298 300 301 299 4 300 302 303 301 4
302 304 305 303 4 304 306 307 305 4
306 308 309 307 4 308 310 311 309 4
310 312 313 311 4 312 314 315 313 4
314 316 317 315 4 316 318 319 317 4
318 320 321 319 4 320 322 323 321 4
322 324 325 323 4 324 326 327 325 4
326 328 329 327 4 328 330 331 329 4
330 332 333 331 4 332 334 335 333 4
334 336 337 335 4 336 338 339 337 4
338 340 341 339 4 340 342 343 341 4
342 344 345 343 4 344 346 347 345 4
346 348 349 347 4 348 350 351 349 4
350 352 353 351 4 352 354 355 353 4
354 356 357 355 4 356 358 359 357 4
358 360 361 359 4 360 362 363 361 4
362 364 365 363 4 364 366 367 365 4
366 368 369 367 4 368 370 371 369 4
370 372 373 371 4 372 374 375 373 4
374 376 377 375 4 376 378 379 377 4
378 380 381 379 4 380 382 383 381 4
382 384 385 383 4 384 130 133 385 
CELL_DATA 192
FIELD attributes 3
patchID 1 192 float
1 1 1 1 1 1 1 1 1 1 1
1 1 1 1 1 1 1 1 1 1
1 1 1 1 1 1 1 1 1 1
1 1 1 1 1 1 1 1 1 1
1 1 1 1 1 1 1 1 1 1
1 1 1 1 1 1 1 1 1 1
1 1 1 1 1 1 1 1 1 1
1 1 1 1 1 1 1 1 1 1
1 1 1 1 1 1 1 1 1 1
1 1 1 1 1 1 1 1 1 1
1 1 1 1 1 1 1 1 1 1
1 1 1 1 1 1 1 1 1 1
1 1 1 1 1 1 1 1 1 1
1 1 1 1 1 1 1 1 1 1
1 1 1 1 1 1 1 1 1 1
1 1 1 1 1 1 1 1 1 1
1 1 1 1 1 1 1 1 1 1
1 1 1 1 1 1 1 1 1 1
1 1 1 1 1 1 1 1 1 1
1 
p 1 192 float
-0.00333995 -0.00333289 -0.00332467 -0.00331848 -0.00331669 -0.00332084 -0.00333192 -0.00335059 -0.00337731 -0.00341239 -0.00345606
-0.00350849 -0.0035698 -0.0036401 -0.00371949 -0.00380805 -0.00390586 -0.00401299 -0.0041295 -0.00425547 -0.00439092
-0.00453589 -0.00469037 -0.00485436 -0.00502779 -0.00521058 -0.00540263 -0.00560376 -0.00581381 -0.00603252 -0.00625963
-0.00649484 -0.00673782 -0.0069882 -0.0072456 -0.00750963 -0.0077799 -0.00805605 -0.00833774 -0.00862472 -0.00891681
-0.00921397 -0.00951632 -0.0098242 -0.0101382 -0.0104595 -0.0107894 -0.0111301 -0.0114847 -0.0118573 -0.0122539
-0.0126826 -0.0131552 -0.0136888 -0.0143093 -0.0150572 -0.0159987 -0.0172478 -0.0190091 -0.0216654 -0.026056
-0.0347831 -0.0568384 -0.107223 2.03596e-05 1.38679e-05 1.36543e-06 -1.4883e-05 -3.22085e-05 -4.98803e-05 -6.752e-05
-8.52224e-05 -0.00010338 -0.00012256 -0.000143433 -0.000166751 -0.000193333 -0.000224075 -0.000259962 -0.000302086 -0.000351668
-0.000410062 -0.000478729 -0.000559453 -0.000654058 -0.000764589 -0.000893244 -0.00104231 -0.00121404 -0.00141048 -0.00163301
-0.0018827 -0.00215901 -0.00246071 -0.0027866 -0.00313745 -0.0035184 -0.00394314 -0.0044361 -0.00502909 -0.00576819
-0.00669402 -0.00784554 -0.00925198 -0.010927 -0.012862 -0.0150233 -0.0173444 -0.0197254 -0.022041 -0.0241378
-0.0258265 -0.026876 -0.0269995 -0.0258558 -0.0230362 -0.0180925 -0.0105409 0.000135402 0.0145876 0.0336622
0.0585106 0.0907855 0.133363 0.191645 0.276358 0.402711 0.560693 -0.00333995 -0.00334701 -0.00335516
-0.00336137 -0.00336364 -0.00336093 -0.00335279 -0.00333911 -0.00331993 -0.00329535 -0.00326552 -0.00323058 -0.00319063
-0.00314578 -0.0030961 -0.00304167 -0.00298256 -0.00291882 -0.00285053 -0.00277776 -0.00270061 -0.00261919 -0.00253363
-0.00244409 -0.00235075 -0.00225383 -0.00215359 -0.00205032 -0.00194433 -0.001836 -0.00172573 -0.00161397 -0.00150123
-0.00138801 -0.00127485 -0.00116239 -0.00105122 -0.000941965 -0.000835277 -0.000731796 -0.000632155 -0.000536968 -0.000446816
-0.000362239 -0.000283726 -0.000211701 -0.000146521 -8.84617e-05 -3.77198e-05 5.59598e-06 4.14643e-05 6.99526e-05 9.12183e-05
0.000105511 0.000113176 0.000114666 0.000110555 0.000101566 8.86173e-05 7.2895e-05 5.59481e-05 3.9557e-05 2.68604e-05
2.03596e-05 
U 3 192 float
0 0 0 0 0 0 0 0 0 0 0
0 0 0 0 0 0 0 0 0 0
0 0 0 0 0 0 0 0 0 0
0 0 0 0 0 0 0 0 0 0
0 0 0 0 0 0 0 0 0 0
0 0 0 0 0 0 0 0 0 0
0 0 0 0 0 0 0 0 0 0
0 0 0 0 0 0 0 0 0 0
0 0 0 0 0 0 0 0 0 0
0 0 0 0 0 0 0 0 0 0
0 0 0 0 0 0 0 0 0 0
0 0 0 0 0 0 0 0 0 0
0 0 0 0 0 0 0 0 0 0
0 0 0 0 0 0 0 0 0 0
0 0 0 0 0 0 0 0 0 0
0 0 0 0 0 0 0 0 0 0
0 0 0 0 0 0 0 0 0 0
0 0 0 0 0 0 0 0 0 0
0 0 0 0 0 0 0 0 0 0
0 0 0 0 0 0 0 0 0 0
0 0 0 0 0 0 0 0 0 0
0 0 0 0 0 0 0 0 0 0
0 0 0 0 0 0 0 0 0 0
0 0 0 0 0 0 0 0 0 0
0 0 0 0 0 0 0 0 0 0
0 0 0 0 0 0 0 0 0 0
0 0 0 0 0 0 0 0 0 0
0 0 0 0 0 0 0 0 0 0
0 0 0 0 0 0 0 0 0 0
0 0 0 0 0 0 0 0 0 0
0 0 0 0 0 0 0 0 0 0
0 0 0 0 0 0 0 0 0 0
0 0 0 0 0 0 0 0 0 0
0 0 0 0 0 0 0 0 0 0
0 0 0 0 0 0 0 0 0 0
0 0 0 0 0 0 0 0 0 0
0 0 0 0 0 0 0 0 0 0
0 0 0 0 0 0 0 0 0 0
0 0 0 0 0 0 0 0 0 0
0 0 0 0 0 0 0 0 0 0
0 0 0 0 0 0 0 0 0 0
0 0 0 0 0 0 0 0 0 0
0 0 0 0 0 0 0 0 0 0
0 0 0 0 0 0 0 0 0 0
0 0 0 0 0 0 0 0 0 0
0 0 0 0 0 0 0 0 0 0
0 0 0 0 0 0 0 0 0 0
0 0 0 0 0 0 0 0 0 0
0 0 0 0 0 0 0 0 0 0
0 0 0 0 0 0 0 0 0 0
0 0 0 0 0 0 0 0 0 0
0 0 0 0 0 0 0 0 0 0
0 0 0 0 0 0 0 0 0 0
0 0 0 0 0 0 0 0 0 0
0 0 0 0 0 0 0 0 0 0
0 0 0 0 0 0 0 0 0 0
0 0 0 0 0 0 0 0 0 0
0 0 0 0 0 
POINT_DATA  386
FIELD attributes 2
p 1 386 float
-0.00333995 -0.00333995 -0.00333642 -0.00333642 -0.00332878 -0.00332878 -0.00332158 -0.00332158 -0.00331758 -0.00331758 -0.00331876
-0.00331876 -0.00332638 -0.00332638 -0.00334126 -0.00334126 -0.00336395 -0.00336395 -0.00339485 -0.00339485 -0.00343422
-0.00343422 -0.00348227 -0.00348227 -0.00353914 -0.00353914 -0.00360495 -0.00360495 -0.00367979 -0.00367979 -0.00376377
-0.00376377 -0.00385696 -0.00385696 -0.00395942 -0.00395942 -0.00407124 -0.00407124 -0.00419249 -0.00419249 -0.0043232
-0.0043232 -0.0044634 -0.0044634 -0.00461313 -0.00461313 -0.00477237 -0.00477237 -0.00494108 -0.00494108 -0.00511918
-0.00511918 -0.0053066 -0.0053066 -0.00550319 -0.00550319 -0.00570878 -0.00570878 -0.00592317 -0.00592317 -0.00614608
-0.00614608 -0.00637724 -0.00637724 -0.00661633 -0.00661633 -0.00686301 -0.00686301 -0.0071169 -0.0071169 -0.00737762
-0.00737762 -0.00764477 -0.00764477 -0.00791798 -0.00791798 -0.0081969 -0.0081969 -0.00848123 -0.00848123 -0.00877076
-0.00877076 -0.00906539 -0.00906539 -0.00936515 -0.00936515 -0.00967026 -0.00967026 -0.0099812 -0.0099812 -0.0102989
-0.0102989 -0.0106244 -0.0106244 -0.0109598 -0.0109598 -0.0113074 -0.0113074 -0.011671 -0.011671 -0.0120556
-0.0120556 -0.0124682 -0.0124682 -0.0129189 -0.0129189 -0.013422 -0.013422 -0.013999 -0.013999 -0.0146833
-0.0146833 -0.0155279 -0.0155279 -0.0166232 -0.0166232 -0.0181284 -0.0181284 -0.0203373 -0.0203373 -0.0238607
-0.0238607 -0.0304196 -0.0304196 -0.0458108 -0.0458108 -0.0820307 -0.0820307 -0.107223 -0.107223 2.03596e-05
1.71138e-05 1.71138e-05 2.03596e-05 7.61666e-06 7.61666e-06 -6.75878e-06 -6.75878e-06 -2.35458e-05 -2.35458e-05 -4.10444e-05
-4.10444e-05 -5.87001e-05 -5.87001e-05 -7.63712e-05 -7.63712e-05 -9.43012e-05 -9.43012e-05 -0.00011297 -0.00011297 -0.000132997
-0.000132997 -0.000155092 -0.000155092 -0.000180042 -0.000180042 -0.000208704 -0.000208704 -0.000242019 -0.000242019 -0.000281024
-0.000281024 -0.000326877 -0.000326877 -0.000380865 -0.000380865 -0.000444395 -0.000444395 -0.000519091 -0.000519091 -0.000606755
-0.000606755 -0.000709324 -0.000709324 -0.000828916 -0.000828916 -0.000967777 -0.000967777 -0.00112817 -0.00112817 -0.00131226
-0.00131226 -0.00152174 -0.00152174 -0.00175785 -0.00175785 -0.00202085 -0.00202085 -0.00230986 -0.00230986 -0.00262365
-0.00262365 -0.00296203 -0.00296203 -0.00332792 -0.00332792 -0.00373077 -0.00373077 -0.00418962 -0.00418962 -0.00473259
-0.00473259 -0.00539864 -0.00539864 -0.0062311 -0.0062311 -0.00726978 -0.00726978 -0.00854876 -0.00854876 -0.0100895
-0.0100895 -0.0118945 -0.0118945 -0.0139426 -0.0139426 -0.0161838 -0.0161838 -0.0185349 -0.0185349 -0.0208832
-0.0208832 -0.0230894 -0.0230894 -0.0249822 -0.0249822 -0.0263513 -0.0263513 -0.0269377 -0.0269377 -0.0264277
-0.0264277 -0.024446 -0.024446 -0.0205643 -0.0205643 -0.0143167 -0.0143167 -0.00520275 -0.00520275 0.0073615
0.0073615 0.0241249 0.0241249 0.0460864 0.0460864 0.0746481 0.0746481 0.112074 0.112074 0.162504
0.162504 0.234002 0.234002 0.339534 0.339534 0.481702 0.481702 0.560693 0.560693 -0.00334348
-0.00334348 -0.00335108 -0.00335108 -0.00335826 -0.00335826 -0.0033625 -0.0033625 -0.00336228 -0.00336228 -0.00335686
-0.00335686 -0.00334595 -0.00334595 -0.00332952 -0.00332952 -0.00330764 -0.00330764 -0.00328043 -0.00328043 -0.00324805
-0.00324805 -0.0032106 -0.0032106 -0.00316821 -0.00316821 -0.00312094 -0.00312094 -0.00306889 -0.00306889 -0.00301211
-0.00301211 -0.00295069 -0.00295069 -0.00288468 -0.00288468 -0.00281415 -0.00281415 -0.00273919 -0.00273919 -0.0026599
-0.0026599 -0.00257641 -0.00257641 -0.00248886 -0.00248886 -0.00239742 -0.00239742 -0.00230229 -0.00230229 -0.00220371
-0.00220371 -0.00210196 -0.00210196 -0.00199733 -0.00199733 -0.00189017 -0.00189017 -0.00178087 -0.00178087 -0.00166985
-0.00166985 -0.0015576 -0.0015576 -0.00144462 -0.00144462 -0.00133143 -0.00133143 -0.00121862 -0.00121862 -0.00110681
-0.00110681 -0.000996592 -0.000996592 -0.000888621 -0.000888621 -0.000783537 -0.000783537 -0.000681976 -0.000681976 -0.000584561
-0.000584561 -0.000491892 -0.000491892 -0.000404527 -0.000404527 -0.000322982 -0.000322982 -0.000247713 -0.000247713 -0.000179111
-0.000179111 -0.000117491 -0.000117491 -6.30908e-05 -6.30908e-05 -1.60619e-05 -1.60619e-05 2.35301e-05 2.35301e-05 5.57084e-05
5.57084e-05 8.05855e-05 8.05855e-05 9.83647e-05 9.83647e-05 0.000109343 0.000109343 0.000113921 0.000113921 0.00011261
0.00011261 0.00010606 0.00010606 9.50917e-05 9.50917e-05 8.07562e-05 8.07562e-05 6.44215e-05 6.44215e-05 4.77526e-05
4.77526e-05 3.32087e-05 3.32087e-05 2.361e-05 2.361e-05 
U 3 386 float
0 0 0 0 0 0 0 0 0 0 0
0 0 0 0 0 0 0 0 0 0
0 0 0 0 0 0 0 0 0 0
0 0 0 0 0 0 0 0 0 0
0 0 0 0 0 0 0 0 0 0
0 0 0 0 0 0 0 0 0 0
0 0 0 0 0 0 0 0 0 0
0 0 0 0 0 0 0 0 0 0
0 0 0 0 0 0 0 0 0 0
0 0 0 0 0 0 0 0 0 0
0 0 0 0 0 0 0 0 0 0
0 0 0 0 0 0 0 0 0 0
0 0 0 0 0 0 0 0 0 0
0 0 0 0 0 0 0 0 0 0
0 0 0 0 0 0 0 0 0 0
0 0 0 0 0 0 0 0 0 0
0 0 0 0 0 0 0 0 0 0
0 0 0 0 0 0 0 0 0 0
0 0 0 0 0 0 0 0 0 0
0 0 0 0 0 0 0 0 0 0
0 0 0 0 0 0 0 0 0 0
0 0 0 0 0 0 0 0 0 0
0 0 0 0 0 0 0 0 0 0
0 0 0 0 0 0 0 0 0 0
0 0 0 0 0 0 0 0 0 0
0 0 0 0 0 0 0 0 0 0
0 0 0 0 0 0 0 0 0 0
0 0 0 0 0 0 0 0 0 0
0 0 0 0 0 0 0 0 0 0
0 0 0 0 0 0 0 0 0 0
0 0 0 0 0 0 0 0 0 0
0 0 0 0 0 0 0 0 0 0
0 0 0 0 0 0 0 0 0 0
0 0 0 0 0 0 0 0 0 0
0 0 0 0 0 0 0 0 0 0
0 0 0 0 0 0 0 0 0 0
0 0 0 0 0 0 0 0 0 0
0 0 0 0 0 0 0 0 0 0
0 0 0 0 0 0 0 0 0 0
0 0 0 0 0 0 0 0 0 0
0 0 0 0 0 0 0 0 0 0
0 0 0 0 0 0 0 0 0 0
0 0 0 0 0 0 0 0 0 0
0 0 0 0 0 0 0 0 0 0
0 0 0 0 0 0 0 0 0 0
0 0 0 0 0 0 0 0 0 0
0 0 0 0 0 0 0 0 0 0
0 0 0 0 0 0 0 0 0 0
0 0 0 0 0 0 0 0 0 0
0 0 0 0 0 0 0 0 0 0
0 0 0 0 0 0 0 0 0 0
0 0 0 0 0 0 0 0 0 0
0 0 0 0 0 0 0 0 0 0
0 0 0 0 0 0 0 0 0 0
0 0 0 0 0 0 0 0 0 0
0 0 0 0 0 0 0 0 0 0
0 0 0 0 0 0 0 0 0 0
0 0 0 0 0 0 0 0 0 0
0 0 0 0 0 0 0 0 0 0
0 0 0 0 0 0 0 0 0 0
0 0 0 0 0 0 0 0 0 0
0 0 0 0 0 0 0 0 0 0
0 0 0 0 0 0 0 0 0 0
0 0 0 0 0 0 0 0 0 0
0 0 0 0 0 0 0 0 0 0
0 0 0 0 0 0 0 0 0 0
0 0 0 0 0 0 0 0 0 0
0 0 0 0 0 0 0 0 0 0
0 0 0 0 0 0 0 0 0 0
0 0 0 0 0 0 0 0 0 0
0 0 0 0 0 0 0 0 0 0
0 0 0 0 0 0 0 0 0 0
0 0 0 0 0 0 0 0 0 0
0 0 0 0 0 0 0 0 0 0
0 0 0 0 0 0 0 0 0 0
0 0 0 0 0 0 0 0 0 0
0 0 0 0 0 0 0 0 0 0
0 0 0 0 0 0 0 0 0 0
0 0 0 0 0 0 0 0 0 0
0 0 0 0 0 0 0 0 0 0
0 0 0 0 0 0 0 0 0 0
0 0 0 0 0 0 0 0 0 0
0 0 0 0 0 0 0 0 0 0
0 0 0 0 0 0 0 0 0 0
0 0 0 0 0 0 0 0 0 0
0 0 0 0 0 0 0 0 0 0
0 0 0 0 0 0 0 0 0 0
0 0 0 0 0 0 0 0 0 0
0 0 0 0 0 0 0 0 0 0
0 0 0 0 0 0 0 0 0 0
0 0 0 0 0 0 0 0 0 0
0 0 0 0 0 0 0 0 0 0
0 0 0 0 0 0 0 0 0 0
0 0 0 0 0 0 0 0 0 0
0 0 0 0 0 0 0 0 0 0
0 0 0 0 0 0 0 0 0 0
0 0 0 0 0 0 0 0 0 0
0 0 0 0 0 0 0 0 0 0
0 0 0 0 0 0 0 0 0 0
0 0 0 0 0 0 0 0 0 0
0 0 0 0 0 0 0 0 0 0
0 0 0 0 0 0 0 0 0 0
0 0 0 0 0 0 0 0 0 0
0 0 0 0 0 0 0 0 0 0
0 0 0 0 0 0 0 0 0 0
0 0 0 0 0 0 0 0 0 0
0 0 0 0 0 0 0 0 0 0
0 0 0 0 0 0 0 0 0 0
0 0 0 0 0 0 0 0 0 0
0 0 0 0 0 0 0 0 0 0
0 0 0 0 0 0 0 0 0 0
0 0 0 0 0 0 0 0 0 0
0 0 0 0 0 0 0 0 0 0
0 0 0 0 0 0 0 0 0 0
0 0 0 0 0 0 0 0 0 0
0 0 0 0 0 0 0 
