# vtk DataFile Version 2.0
fixedWalls
ASCII
DATASET POLYDATA
POINTS 386 float
0 0 0 0 0 0.1 0 0.015625 0.1 0 0.015625
0 0 0.03125 0.1 0 0.03125 0 0 0.046875 0.1
0 0.046875 0 0 0.0625 0.1 0 0.0625 0 0
0.078125 0.1 0 0.078125 0 0 0.09375 0.1 0 0.09375
0 0 0.109375 0.1 0 0.109375 0 0 0.125 0.1
0 0.125 0 0 0.140625 0.1 0 0.140625 0 0
0.15625 0.1 0 0.15625 0 0 0.171875 0.1 0 0.171875
0 0 0.1875 0.1 0 0.1875 0 0 0.203125 0.1
0 0.203125 0 0 0.21875 0.1 0 0.21875 0 0
0.234375 0.1 0 0.234375 0 0 0.25 0.1 0 0.25
0 0 0.265625 0.1 0 0.265625 0 0 0.28125 0.1
0 0.28125 0 0 0.296875 0.1 0 0.296875 0 0
0.3125 0.1 0 0.3125 0 0 0.328125 0.1 0 0.328125
0 0 0.34375 0.1 0 0.34375 0 0 0.359375 0.1
0 0.359375 0 0 0.375 0.1 0 0.375 0 0
0.390625 0.1 0 0.390625 0 0 0.40625 0.1 0 0.40625
0 0 0.421875 0.1 0 0.421875 0 0 0.4375 0.1
0 0.4375 0 0 0.453125 0.1 0 0.453125 0 0
0.46875 0.1 0 0.46875 0 0 0.484375 0.1 0 0.484375
0 0 0.5 0.1 0 0.5 0 0 0.515625 0.1
0 0.515625 0 0 0.53125 0.1 0 0.53125 0 0
0.546875 0.1 0 0.546875 0 0 0.5625 0.1 0 0.5625
0 0 0.578125 0.1 0 0.578125 0 0 0.59375 0.1
0 0.59375 0 0 0.609375 0.1 0 0.609375 0 0
0.625 0.1 0 0.625 0 0 0.640625 0.1 0 0.640625
0 0 0.65625 0.1 0 0.65625 0 0 0.671875 0.1
0 0.671875 0 0 0.6875 0.1 0 0.6875 0 0
0.703125 0.1 0 0.703125 0 0 0.71875 0.1 0 0.71875
0 0 0.734375 0.1 0 0.734375 0 0 0.75 0.1
0 0.75 0 0 0.765625 0.1 0 0.765625 0 0
0.78125 0.1 0 0.78125 0 0 0.796875 0.1 0 0.796875
0 0 0.8125 0.1 0 0.8125 0 0 0.828125 0.1
0 0.828125 0 0 0.84375 0.1 0 0.84375 0 0
0.859375 0.1 0 0.859375 0 0 0.875 0.1 0 0.875
0 0 0.890625 0.1 0 0.890625 0 0 0.90625 0.1
0 0.90625 0 0 0.921875 0.1 0 0.921875 0 0
0.9375 0.1 0 0.9375 0 0 0.953125 0.1 0 0.953125
0 0 0.96875 0.1 0 0.96875 0 0 0.984375 0.1
0 0.984375 0 0 1 0.1 0 1 0 1
0 0 1 0.015625 0 1 0.015625 0.1 1 0
0.1 1 0.03125 0 1 0.03125 0.1 1 0.046875 0
1 0.046875 0.1 1 0.0625 0 1 0.0625 0.1 1
0.078125 0 1 0.078125 0.1 1 0.09375 0 1 0.09375
0.1 1 0.109375 0 1 0.109375 0.1 1 0.125 0
1 0.125 0.1 1 0.140625 0 1 0.140625 0.1 1
0.15625 0 1 0.15625 0.1 1 0.171875 0 1 0.171875
0.1 1 0.1875 0 1 0.1875 0.1 1 0.203125 0
1 0.203125 0.1 1 0.21875 0 1 0.21875 0.1 1
0.234375 0 1 0.234375 0.1 1 0.25 0 1 0.25
0.1 1 0.265625 0 1 0.265625 0.1 1 0.28125 0
1 0.28125 0.1 1 0.296875 0 1 0.296875 0.1 1
0.3125 0 1 0.3125 0.1 1 0.328125 0 1 0.328125
0.1 1 0.34375 0 1 0.34375 0.1 1 0.359375 0
1 0.359375 0.1 1 0.375 0 1 0.375 0.1 1
0.390625 0 1 0.390625 0.1 1 0.40625 0 1 0.40625
0.1 1 0.421875 0 1 0.421875 0.1 1 0.4375 0
1 0.4375 0.1 1 0.453125 0 1 0.453125 0.1 1
0.46875 0 1 0.46875 0.1 1 0.484375 0 1 0.484375
0.1 1 0.5 0 1 0.5 0.1 1 0.515625 0
1 0.515625 0.1 1 0.53125 0 1 0.53125 0.1 1
0.546875 0 1 0.546875 0.1 1 0.5625 0 1 0.5625
0.1 1 0.578125 0 1 0.578125 0.1 1 0.59375 0
1 0.59375 0.1 1 0.609375 0 1 0.609375 0.1 1
0.625 0 1 0.625 0.1 1 0.640625 0 1 0.640625
0.1 1 0.65625 0 1 0.65625 0.1 1 0.671875 0
1 0.671875 0.1 1 0.6875 0 1 0.6875 0.1 1
0.703125 0 1 0.703125 0.1 1 0.71875 0 1 0.71875
0.1 1 0.734375 0 1 0.734375 0.1 1 0.75 0
1 0.75 0.1 1 0.765625 0 1 0.765625 0.1 1
0.78125 0 1 0.78125 0.1 1 0.796875 0 1 0.796875
0.1 1 0.8125 0 1 0.8125 0.1 1 0.828125 0
1 0.828125 0.1 1 0.84375 0 1 0.84375 0.1 1
0.859375 0 1 0.859375 0.1 1 0.875 0 1 0.875
0.1 1 0.890625 0 1 0.890625 0.1 1 0.90625 0
1 0.90625 0.1 1 0.921875 0 1 0.921875 0.1 1
0.9375 0 1 0.9375 0.1 1 0.953125 0 1 0.953125
0.1 1 0.96875 0 1 0.96875 0.1 1 0.984375 0
1 0.984375 0.1 1 1 0 1 1 0.1 0.015625
0 0 0.015625 0 0.1 0.03125 0 0 0.03125 0
0.1 0.046875 0 0 0.046875 0 0.1 0.0625 0 0
0.0625 0 0.1 0.078125 0 0 0.078125 0 0.1 0.09375
0 0 0.09375 0 0.1 0.109375 0 0 0.109375 0
0.1 0.125 0 0 0.125 0 0.1 0.140625 0 0
0.140625 0 0.1 0.15625 0 0 0.15625 0 0.1 0.171875
0 0 0.171875 0 0.1 0.1875 0 0 0.1875 0
0.1 0.203125 0 0 0.203125 0 0.1 0.21875 0 0
0.21875 0 0.1 0.234375 0 0 0.234375 0 0.1 0.25
0 0 0.25 0 0.1 0.265625 0 0 0.265625 0
0.1 0.28125 0 0 0.28125 0 0.1 0.296875 0 0
0.296875 0 0.1 0.3125 0 0 0.3125 0 0.1 0.328125
0 0 0.328125 0 0.1 0.34375 0 0 0.34375 0
0.1 0.359375 0 0 0.359375 0 0.1 0.375 0 0
0.375 0 0.1 0.390625 0 0 0.390625 0 0.1 0.40625
0 0 0.40625 0 0.1 0.421875 0 0 0.421875 0
0.1 0.4375 0 0 0.4375 0 0.1 0.453125 0 0
0.453125 0 0.1 0.46875 0 0 0.46875 0 0.1 0.484375
0 0 0.484375 0 0.1 0.5 0 0 0.5 0
0.1 0.515625 0 0 0.515625 0 0.1 0.53125 0 0
0.53125 0 0.1 0.546875 0 0 0.546875 0 0.1 0.5625
0 0 0.5625 0 0.1 0.578125 0 0 0.578125 0
0.1 0.59375 0 0 0.59375 0 0.1 0.609375 0 0
0.609375 0 0.1 0.625 0 0 0.625 0 0.1 0.640625
0 0 0.640625 0 0.1 0.65625 0 0 0.65625 0
0.1 0.671875 0 0 0.671875 0 0.1 0.6875 0 0
0.6875 0 0.1 0.703125 0 0 0.703125 0 0.1 0.71875
0 0 0.71875 0 0.1 0.734375 0 0 0.734375 0
0.1 0.75 0 0 0.75 0 0.1 0.765625 0 0
0.765625 0 0.1 0.78125 0 0 0.78125 0 0.1 0.796875
0 0 0.796875 0 0.1 0.8125 0 0 0.8125 0
0.1 0.828125 0 0 0.828125 0 0.1 0.84375 0 0
0.84375 0 0.1 0.859375 0 0 0.859375 0 0.1 0.875
0 0 0.875 0 0.1 0.890625 0 0 0.890625 0
0.1 0.90625 0 0 0.90625 0 0.1 0.921875 0 0
0.921875 0 0.1 0.9375 0 0 0.9375 0 0.1 0.953125
0 0 0.953125 0 0.1 0.96875 0 0 0.96875 0
0.1 0.984375 0 0 0.984375 0 0.1 
POLYGONS 192 960
4 0 1 2 3 4 3 2 4 5 4
5 4 6 7 4 7 6 8 9 4
9 8 10 11 4 11 10 12 13 4
13 12 14 15 4 15 14 16 17 4
17 16 18 19 4 19 18 20 21 4
21 20 22 23 4 23 22 24 25 4
25 24 26 27 4 27 26 28 29 4
29 28 30 31 4 31 30 32 33 4
33 32 34 35 4 35 34 36 37 4
37 36 38 39 4 39 38 40 41 4
41 40 42 43 4 43 42 44 45 4
45 44 46 47 4 47 46 48 49 4
49 48 50 51 4 51 50 52 53 4
53 52 54 55 4 55 54 56 57 4
57 56 58 59 4 59 58 60 61 4
61 60 62 63 4 63 62 64 65 4
65 64 66 67 4 67 66 68 69 4
69 68 70 71 4 71 70 72 73 4
73 72 74 75 4 75 74 76 77 4
77 76 78 79 4 79 78 80 81 4
81 80 82 83 4 83 82 84 85 4
85 84 86 87 4 87 86 88 89 4
89 88 90 91 4 91 90 92 93 4
93 92 94 95 4 95 94 96 97 4
97 96 98 99 4 99 98 100 101 4
101 100 102 103 4 103 102 104 105 4
105 104 106 107 4 107 106 108 109 4
109 108 110 111 4 111 110 112 113 4
113 112 114 115 4 115 114 116 117 4
117 116 118 119 4 119 118 120 121 4
121 120 122 123 4 123 122 124 125 4
125 124 126 127 4 127 126 128 129 4
130 131 132 133 4 131 134 135 132 4
134 136 137 135 4 136 138 139 137 4
138 140 141 139 4 140 142 143 141 4
142 144 145 143 4 144 146 147 145 4
146 148 149 147 4 148 150 151 149 4
150 152 153 151 4 152 154 155 153 4
154 156 157 155 4 156 158 159 157 4
158 160 161 159 4 160 162 163 161 4
162 164 165 163 4 164 166 167 165 4
166 168 169 167 4 168 170 171 169 4
170 172 173 171 4 172 174 175 173 4
174 176 177 175 4 176 178 179 177 4
178 180 181 179 4 180 182 183 181 4
182 184 185 183 4 184 186 187 185 4
186 188 189 187 4 188 190 191 189 4
190 192 193 191 4 192 194 195 193 4
194 196 197 195 4 196 198 199 197 4
198 200 201 199 4 200 202 203 201 4
202 204 205 203 4 204 206 207 205 4
206 208 209 207 4 208 210 211 209 4
210 212 213 211 4 212 214 215 213 4
214 216 217 215 4 216 218 219 217 4
218 220 221 219 4 220 222 223 221 4
222 224 225 223 4 224 226 227 225 4
226 228 229 227 4 228 230 231 229 4
230 232 233 231 4 232 234 235 233 4
234 236 237 235 4 236 238 239 237 4
238 240 241 239 4 240 242 243 241 4
242 244 245 243 4 244 246 247 245 4
246 248 249 247 4 248 250 251 249 4
250 252 253 251 4 252 254 255 253 4
254 256 257 255 4 256 258 259 257 4
0 260 261 1 4 260 262 263 261 4
262 264 265 263 4 264 266 267 265 4
266 268 269 267 4 268 270 271 269 4
270 272 273 271 4 272 274 275 273 4
274 276 277 275 4 276 278 279 277 4
278 280 281 279 4 280 282 283 281 4
282 284 285 283 4 284 286 287 285 4
286 288 289 287 4 288 290 291 289 4
290 292 293 291 4 292 294 295 293 4
294 296 297 295 4 296 298 299 297 4
298 300 301 299 4 300 302 303 301 4
302 304 305 303 4 304 306 307 305 4
306 308 309 307 4 308 310 311 309 4
310 312 313 311 4 312 314 315 313 4
314 316 317 315 4 316 318 319 317 4
318 320 321 319 4 320 322 323 321 4
322 324 325 323 4 324 326 327 325 4
326 328 329 327 4 328 330 331 329 4
330 332 333 331 4 332 334 335 333 4
334 336 337 335 4 336 338 339 337 4
338 340 341 339 4 340 342 343 341 4
342 344 345 343 4 344 346 347 345 4
346 348 349 347 4 348 350 351 349 4
350 352 353 351 4 352 354 355 353 4
354 356 357 355 4 356 358 359 357 4
358 360 361 359 4 360 362 363 361 4
362 364 365 363 4 364 366 367 365 4
366 368 369 367 4 368 370 371 369 4
370 372 373 371 4 372 374 375 373 4
374 376 377 375 4 376 378 379 377 4
378 380 381 379 4 380 382 383 381 4
382 384 385 383 4 384 130 133 385 
CELL_DATA 192
FIELD attributes 3
patchID 1 192 float
1 1 1 1 1 1 1 1 1 1 1
1 1 1 1 1 1 1 1 1 1
1 1 1 1 1 1 1 1 1 1
1 1 1 1 1 1 1 1 1 1
1 1 1 1 1 1 1 1 1 1
1 1 1 1 1 1 1 1 1 1
1 1 1 1 1 1 1 1 1 1
1 1 1 1 1 1 1 1 1 1
1 1 1 1 1 1 1 1 1 1
1 1 1 1 1 1 1 1 1 1
1 1 1 1 1 1 1 1 1 1
1 1 1 1 1 1 1 1 1 1
1 1 1 1 1 1 1 1 1 1
1 1 1 1 1 1 1 1 1 1
1 1 1 1 1 1 1 1 1 1
1 1 1 1 1 1 1 1 1 1
1 1 1 1 1 1 1 1 1 1
1 1 1 1 1 1 1 1 1 1
1 1 1 1 1 1 1 1 1 1
1 
p 1 192 float
-0.0034434 -0.00343645 -0.00342844 -0.00342248 -0.0034209 -0.00342518 -0.00343631 -0.0034549 -0.0034814 -0.00351609 -0.00355919
-0.00361084 -0.00367116 -0.00374026 -0.0038182 -0.00390507 -0.00400094 -0.00410588 -0.00421996 -0.00434322 -0.00447571
-0.00461746 -0.00476847 -0.00492873 -0.00509819 -0.00527677 -0.00546439 -0.00566089 -0.00586609 -0.0060798 -0.00630176
-0.0065317 -0.00676931 -0.00701426 -0.00726621 -0.0075248 -0.00778968 -0.00806053 -0.00833705 -0.00861904 -0.00890635
-0.00919898 -0.00949709 -0.00980107 -0.0101116 -0.0104297 -0.0107569 -0.0110955 -0.0114484 -0.0118199 -0.0122159
-0.0126446 -0.0131179 -0.0136528 -0.0142753 -0.0150258 -0.0159707 -0.0172238 -0.0189896 -0.0216504 -0.0260447
-0.0347735 -0.0568277 -0.107209 -1.1087e-05 -1.80115e-05 -3.05355e-05 -4.62737e-05 -6.2903e-05 -7.9467e-05 -9.56187e-05
-0.000111472 -0.000127423 -0.000144035 -0.000161974 -0.000181981 -0.000204868 -0.000231521 -0.000262921 -0.000300158 -0.000344454
-0.000397174 -0.000459829 -0.00053425 -0.000622299 -0.000726097 -0.000847967 -0.000990378 -0.00115585 -0.00134677 -0.00156516
-0.00181236 -0.00208851 -0.00239251 -0.00272246 -0.00307727 -0.00345914 -0.00387706 -0.00435081 -0.00490632 -0.0055943
-0.00645633 -0.0075366 -0.00887087 -0.0104804 -0.0123634 -0.0144944 -0.0168155 -0.0192315 -0.0216166 -0.0238106
-0.0256164 -0.0268017 -0.0270665 -0.0260565 -0.0233568 -0.0185144 -0.0110453 -0.000433747 0.0139709 0.0330137
0.0578465 0.0901241 0.132725 0.191043 0.275789 0.402161 0.560134 -0.0034434 -0.00345034 -0.00345828
-0.00346427 -0.00346632 -0.00346342 -0.00345513 -0.00344132 -0.00342203 -0.00339738 -0.00336749 -0.00333249 -0.0032925
-0.00324761 -0.0031979 -0.00314343 -0.00308427 -0.00302048 -0.00295213 -0.00287928 -0.00280205 -0.00272052 -0.00263483
-0.00254513 -0.00245161 -0.00235448 -0.00225398 -0.00215038 -0.00204402 -0.00193524 -0.00182445 -0.00171207 -0.00159859
-0.00148452 -0.00137038 -0.00125678 -0.00114431 -0.00103358 -0.00092523 -0.000819884 -0.000718176 -0.000620714 -0.000528083
-0.000440828 -0.000359449 -0.000284388 -0.000216021 -0.000154655 -0.000100515 -5.375e-05 -1.44215e-05 1.74924e-05 4.21006e-05
5.96017e-05 7.02892e-05 7.45618e-05 7.29404e-05 6.60969e-05 5.49007e-05 4.04928e-05 2.43876e-05 8.50804e-06 -4.16792e-06
-1.1087e-05 
U 3 192 float
0 0 0 0 0 0 0 0 0 0 0
0 0 0 0 0 0 0 0 0 0
0 0 0 0 0 0 0 0 0 0
0 0 0 0 0 0 0 0 0 0
0 0 0 0 0 0 0 0 0 0
0 0 0 0 0 0 0 0 0 0
0 0 0 0 0 0 0 0 0 0
0 0 0 0 0 0 0 0 0 0
0 0 0 0 0 0 0 0 0 0
0 0 0 0 0 0 0 0 0 0
0 0 0 0 0 0 0 0 0 0
0 0 0 0 0 0 0 0 0 0
0 0 0 0 0 0 0 0 0 0
0 0 0 0 0 0 0 0 0 0
0 0 0 0 0 0 0 0 0 0
0 0 0 0 0 0 0 0 0 0
0 0 0 0 0 0 0 0 0 0
0 0 0 0 0 0 0 0 0 0
0 0 0 0 0 0 0 0 0 0
0 0 0 0 0 0 0 0 0 0
0 0 0 0 0 0 0 0 0 0
0 0 0 0 0 0 0 0 0 0
0 0 0 0 0 0 0 0 0 0
0 0 0 0 0 0 0 0 0 0
0 0 0 0 0 0 0 0 0 0
0 0 0 0 0 0 0 0 0 0
0 0 0 0 0 0 0 0 0 0
0 0 0 0 0 0 0 0 0 0
0 0 0 0 0 0 0 0 0 0
0 0 0 0 0 0 0 0 0 0
0 0 0 0 0 0 0 0 0 0
0 0 0 0 0 0 0 0 0 0
0 0 0 0 0 0 0 0 0 0
0 0 0 0 0 0 0 0 0 0
0 0 0 0 0 0 0 0 0 0
0 0 0 0 0 0 0 0 0 0
0 0 0 0 0 0 0 0 0 0
0 0 0 0 0 0 0 0 0 0
0 0 0 0 0 0 0 0 0 0
0 0 0 0 0 0 0 0 0 0
0 0 0 0 0 0 0 0 0 0
0 0 0 0 0 0 0 0 0 0
0 0 0 0 0 0 0 0 0 0
0 0 0 0 0 0 0 0 0 0
0 0 0 0 0 0 0 0 0 0
0 0 0 0 0 0 0 0 0 0
0 0 0 0 0 0 0 0 0 0
0 0 0 0 0 0 0 0 0 0
0 0 0 0 0 0 0 0 0 0
0 0 0 0 0 0 0 0 0 0
0 0 0 0 0 0 0 0 0 0
0 0 0 0 0 0 0 0 0 0
0 0 0 0 0 0 0 0 0 0
0 0 0 0 0 0 0 0 0 0
0 0 0 0 0 0 0 0 0 0
0 0 0 0 0 0 0 0 0 0
0 0 0 0 0 0 0 0 0 0
0 0 0 0 0 
POINT_DATA  386
FIELD attributes 2
p 1 386 float
-0.0034434 -0.0034434 -0.00343992 -0.00343992 -0.00343244 -0.00343244 -0.00342546 -0.00342546 -0.00342169 -0.00342169 -0.00342304
-0.00342304 -0.00343075 -0.00343075 -0.00344561 -0.00344561 -0.00346815 -0.00346815 -0.00349874 -0.00349874 -0.00353764
-0.00353764 -0.00358501 -0.00358501 -0.003641 -0.003641 -0.00370571 -0.00370571 -0.00377923 -0.00377923 -0.00386163
-0.00386163 -0.00395301 -0.00395301 -0.00405341 -0.00405341 -0.00416292 -0.00416292 -0.00428159 -0.00428159 -0.00440947
-0.00440947 -0.00454659 -0.00454659 -0.00469297 -0.00469297 -0.0048486 -0.0048486 -0.00501346 -0.00501346 -0.00518748
-0.00518748 -0.00537058 -0.00537058 -0.00556264 -0.00556264 -0.00576349 -0.00576349 -0.00597295 -0.00597295 -0.00619078
-0.00619078 -0.00641673 -0.00641673 -0.00665051 -0.00665051 -0.00689179 -0.00689179 -0.00714024 -0.00714024 -0.0073955
-0.0073955 -0.00765724 -0.00765724 -0.00792511 -0.00792511 -0.00819879 -0.00819879 -0.00847805 -0.00847805 -0.00876269
-0.00876269 -0.00905266 -0.00905266 -0.00934803 -0.00934803 -0.00964908 -0.00964908 -0.00995633 -0.00995633 -0.0102706
-0.0102706 -0.0105933 -0.0105933 -0.0109262 -0.0109262 -0.0112719 -0.0112719 -0.0116341 -0.0116341 -0.0120179
-0.0120179 -0.0124302 -0.0124302 -0.0128813 -0.0128813 -0.0133853 -0.0133853 -0.0139641 -0.0139641 -0.0146505
-0.0146505 -0.0154982 -0.0154982 -0.0165973 -0.0165973 -0.0181067 -0.0181067 -0.02032 -0.02032 -0.0238476
-0.0238476 -0.0304091 -0.0304091 -0.0458006 -0.0458006 -0.0820184 -0.0820184 -0.107209 -0.107209 -1.1087e-05
-1.45493e-05 -1.45493e-05 -1.1087e-05 -2.42735e-05 -2.42735e-05 -3.84046e-05 -3.84046e-05 -5.45883e-05 -5.45883e-05 -7.1185e-05
-7.1185e-05 -8.75429e-05 -8.75429e-05 -0.000103545 -0.000103545 -0.000119447 -0.000119447 -0.000135729 -0.000135729 -0.000153004
-0.000153004 -0.000171978 -0.000171978 -0.000193424 -0.000193424 -0.000218195 -0.000218195 -0.000247221 -0.000247221 -0.00028154
-0.00028154 -0.000322306 -0.000322306 -0.000370814 -0.000370814 -0.000428501 -0.000428501 -0.00049704 -0.00049704 -0.000578274
-0.000578274 -0.000674198 -0.000674198 -0.000787032 -0.000787032 -0.000919172 -0.000919172 -0.00107311 -0.00107311 -0.00125131
-0.00125131 -0.00145596 -0.00145596 -0.00168876 -0.00168876 -0.00195043 -0.00195043 -0.00224051 -0.00224051 -0.00255748
-0.00255748 -0.00289986 -0.00289986 -0.00326821 -0.00326821 -0.0036681 -0.0036681 -0.00411393 -0.00411393 -0.00462857
-0.00462857 -0.00525031 -0.00525031 -0.00602531 -0.00602531 -0.00699646 -0.00699646 -0.00820373 -0.00820373 -0.00967564
-0.00967564 -0.0114219 -0.0114219 -0.0134289 -0.0134289 -0.0156549 -0.0156549 -0.0180235 -0.0180235 -0.020424
-0.020424 -0.0227136 -0.0227136 -0.0247135 -0.0247135 -0.0262091 -0.0262091 -0.0269341 -0.0269341 -0.0265615
-0.0265615 -0.0247067 -0.0247067 -0.0209356 -0.0209356 -0.0147798 -0.0147798 -0.00573952 -0.00573952 0.00676858
0.00676858 0.0234923 0.0234923 0.0454301 0.0454301 0.0739853 0.0739853 0.111425 0.111425 0.161884
0.161884 0.233416 0.233416 0.338975 0.338975 0.481147 0.481147 0.560134 0.560134 -0.00344687
-0.00344687 -0.00345431 -0.00345431 -0.00346128 -0.00346128 -0.0034653 -0.0034653 -0.00346487 -0.00346487 -0.00345928
-0.00345928 -0.00344823 -0.00344823 -0.00343168 -0.00343168 -0.0034097 -0.0034097 -0.00338244 -0.00338244 -0.00334999
-0.00334999 -0.0033125 -0.0033125 -0.00327005 -0.00327005 -0.00322275 -0.00322275 -0.00317066 -0.00317066 -0.00311385
-0.00311385 -0.00305238 -0.00305238 -0.0029863 -0.0029863 -0.00291571 -0.00291571 -0.00284066 -0.00284066 -0.00276129
-0.00276129 -0.00267768 -0.00267768 -0.00258998 -0.00258998 -0.00249837 -0.00249837 -0.00240305 -0.00240305 -0.00230423
-0.00230423 -0.00220218 -0.00220218 -0.0020972 -0.0020972 -0.00198963 -0.00198963 -0.00187985 -0.00187985 -0.00176826
-0.00176826 -0.00165533 -0.00165533 -0.00154156 -0.00154156 -0.00142745 -0.00142745 -0.00131358 -0.00131358 -0.00120054
-0.00120054 -0.00108894 -0.00108894 -0.000979405 -0.000979405 -0.000872557 -0.000872557 -0.00076903 -0.00076903 -0.000669445
-0.000669445 -0.000574398 -0.000574398 -0.000484455 -0.000484455 -0.000400138 -0.000400138 -0.000321918 -0.000321918 -0.000250204
-0.000250204 -0.000185338 -0.000185338 -0.000127585 -0.000127585 -7.71325e-05 -7.71325e-05 -3.40858e-05 -3.40858e-05 1.53545e-06
1.53545e-06 2.97965e-05 2.97965e-05 5.08512e-05 5.08512e-05 6.49455e-05 6.49455e-05 7.24255e-05 7.24255e-05 7.37511e-05
7.37511e-05 6.95187e-05 6.95187e-05 6.04988e-05 6.04988e-05 4.76968e-05 4.76968e-05 3.24402e-05 3.24402e-05 1.64478e-05
1.64478e-05 2.17006e-06 2.17006e-06 -7.62746e-06 -7.62746e-06 
U 3 386 float
0 0 0 0 0 0 0 0 0 0 0
0 0 0 0 0 0 0 0 0 0
0 0 0 0 0 0 0 0 0 0
0 0 0 0 0 0 0 0 0 0
0 0 0 0 0 0 0 0 0 0
0 0 0 0 0 0 0 0 0 0
0 0 0 0 0 0 0 0 0 0
0 0 0 0 0 0 0 0 0 0
0 0 0 0 0 0 0 0 0 0
0 0 0 0 0 0 0 0 0 0
0 0 0 0 0 0 0 0 0 0
0 0 0 0 0 0 0 0 0 0
0 0 0 0 0 0 0 0 0 0
0 0 0 0 0 0 0 0 0 0
0 0 0 0 0 0 0 0 0 0
0 0 0 0 0 0 0 0 0 0
0 0 0 0 0 0 0 0 0 0
0 0 0 0 0 0 0 0 0 0
0 0 0 0 0 0 0 0 0 0
0 0 0 0 0 0 0 0 0 0
0 0 0 0 0 0 0 0 0 0
0 0 0 0 0 0 0 0 0 0
0 0 0 0 0 0 0 0 0 0
0 0 0 0 0 0 0 0 0 0
0 0 0 0 0 0 0 0 0 0
0 0 0 0 0 0 0 0 0 0
0 0 0 0 0 0 0 0 0 0
0 0 0 0 0 0 0 0 0 0
0 0 0 0 0 0 0 0 0 0
0 0 0 0 0 0 0 0 0 0
0 0 0 0 0 0 0 0 0 0
0 0 0 0 0 0 0 0 0 0
0 0 0 0 0 0 0 0 0 0
0 0 0 0 0 0 0 0 0 0
0 0 0 0 0 0 0 0 0 0
0 0 0 0 0 0 0 0 0 0
0 0 0 0 0 0 0 0 0 0
0 0 0 0 0 0 0 0 0 0
0 0 0 0 0 0 0 0 0 0
0 0 0 0 0 0 0 0 0 0
0 0 0 0 0 0 0 0 0 0
0 0 0 0 0 0 0 0 0 0
0 0 0 0 0 0 0 0 0 0
0 0 0 0 0 0 0 0 0 0
0 0 0 0 0 0 0 0 0 0
0 0 0 0 0 0 0 0 0 0
0 0 0 0 0 0 0 0 0 0
0 0 0 0 0 0 0 0 0 0
0 0 0 0 0 0 0 0 0 0
0 0 0 0 0 0 0 0 0 0
0 0 0 0 0 0 0 0 0 0
0 0 0 0 0 0 0 0 0 0
0 0 0 0 0 0 0 0 0 0
0 0 0 0 0 0 0 0 0 0
0 0 0 0 0 0 0 0 0 0
0 0 0 0 0 0 0 0 0 0
0 0 0 0 0 0 0 0 0 0
0 0 0 0 0 0 0 0 0 0
0 0 0 0 0 0 0 0 0 0
0 0 0 0 0 0 0 0 0 0
0 0 0 0 0 0 0 0 0 0
0 0 0 0 0 0 0 0 0 0
0 0 0 0 0 0 0 0 0 0
0 0 0 0 0 0 0 0 0 0
0 0 0 0 0 0 0 0 0 0
0 0 0 0 0 0 0 0 0 0
0 0 0 0 0 0 0 0 0 0
0 0 0 0 0 0 0 0 0 0
0 0 0 0 0 0 0 0 0 0
0 0 0 0 0 0 0 0 0 0
0 0 0 0 0 0 0 0 0 0
0 0 0 0 0 0 0 0 0 0
0 0 0 0 0 0 0 0 0 0
0 0 0 0 0 0 0 0 0 0
0 0 0 0 0 0 0 0 0 0
0 0 0 0 0 0 0 0 0 0
0 0 0 0 0 0 0 0 0 0
0 0 0 0 0 0 0 0 0 0
0 0 0 0 0 0 0 0 0 0
0 0 0 0 0 0 0 0 0 0
0 0 0 0 0 0 0 0 0 0
0 0 0 0 0 0 0 0 0 0
0 0 0 0 0 0 0 0 0 0
0 0 0 0 0 0 0 0 0 0
0 0 0 0 0 0 0 0 0 0
0 0 0 0 0 0 0 0 0 0
0 0 0 0 0 0 0 0 0 0
0 0 0 0 0 0 0 0 0 0
0 0 0 0 0 0 0 0 0 0
0 0 0 0 0 0 0 0 0 0
0 0 0 0 0 0 0 0 0 0
0 0 0 0 0 0 0 0 0 0
0 0 0 0 0 0 0 0 0 0
0 0 0 0 0 0 0 0 0 0
0 0 0 0 0 0 0 0 0 0
0 0 0 0 0 0 0 0 0 0
0 0 0 0 0 0 0 0 0 0
0 0 0 0 0 0 0 0 0 0
0 0 0 0 0 0 0 0 0 0
0 0 0 0 0 0 0 0 0 0
0 0 0 0 0 0 0 0 0 0
0 0 0 0 0 0 0 0 0 0
0 0 0 0 0 0 0 0 0 0
0 0 0 0 0 0 0 0 0 0
0 0 0 0 0 0 0 0 0 0
0 0 0 0 0 0 0 0 0 0
0 0 0 0 0 0 0 0 0 0
0 0 0 0 0 0 0 0 0 0
0 0 0 0 0 0 0 0 0 0
0 0 0 0 0 0 0 0 0 0
0 0 0 0 0 0 0 0 0 0
0 0 0 0 0 0 0 0 0 0
0 0 0 0 0 0 0 0 0 0
0 0 0 0 0 0 0 0 0 0
0 0 0 0 0 0 0 0 0 0
0 0 0 0 0 0 0 
