# vtk DataFile Version 2.0
movingWall
ASCII
DATASET POLYDATA
POINTS 130 float
0 1 0 0 1 0.1 0.015625 1 0.1 0.015625 1
0 0.03125 1 0.1 0.03125 1 0 0.046875 1 0.1
0.046875 1 0 0.0625 1 0.1 0.0625 1 0 0.078125
1 0.1 0.078125 1 0 0.09375 1 0.1 0.09375 1
0 0.109375 1 0.1 0.109375 1 0 0.125 1 0.1
0.125 1 0 0.140625 1 0.1 0.140625 1 0 0.15625
1 0.1 0.15625 1 0 0.171875 1 0.1 0.171875 1
0 0.1875 1 0.1 0.1875 1 0 0.203125 1 0.1
0.203125 1 0 0.21875 1 0.1 0.21875 1 0 0.234375
1 0.1 0.234375 1 0 0.25 1 0.1 0.25 1
0 0.265625 1 0.1 0.265625 1 0 0.28125 1 0.1
0.28125 1 0 0.296875 1 0.1 0.296875 1 0 0.3125
1 0.1 0.3125 1 0 0.328125 1 0.1 0.328125 1
0 0.34375 1 0.1 0.34375 1 0 0.359375 1 0.1
0.359375 1 0 0.375 1 0.1 0.375 1 0 0.390625
1 0.1 0.390625 1 0 0.40625 1 0.1 0.40625 1
0 0.421875 1 0.1 0.421875 1 0 0.4375 1 0.1
0.4375 1 0 0.453125 1 0.1 0.453125 1 0 0.46875
1 0.1 0.46875 1 0 0.484375 1 0.1 0.484375 1
0 0.5 1 0.1 0.5 1 0 0.515625 1 0.1
0.515625 1 0 0.53125 1 0.1 0.53125 1 0 0.546875
1 0.1 0.546875 1 0 0.5625 1 0.1 0.5625 1
0 0.578125 1 0.1 0.578125 1 0 0.59375 1 0.1
0.59375 1 0 0.609375 1 0.1 0.609375 1 0 0.625
1 0.1 0.625 1 0 0.640625 1 0.1 0.640625 1
0 0.65625 1 0.1 0.65625 1 0 0.671875 1 0.1
0.671875 1 0 0.6875 1 0.1 0.6875 1 0 0.703125
1 0.1 0.703125 1 0 0.71875 1 0.1 0.71875 1
0 0.734375 1 0.1 0.734375 1 0 0.75 1 0.1
0.75 1 0 0.765625 1 0.1 0.765625 1 0 0.78125
1 0.1 0.78125 1 0 0.796875 1 0.1 0.796875 1
0 0.8125 1 0.1 0.8125 1 0 0.828125 1 0.1
0.828125 1 0 0.84375 1 0.1 0.84375 1 0 0.859375
1 0.1 0.859375 1 0 0.875 1 0.1 0.875 1
0 0.890625 1 0.1 0.890625 1 0 0.90625 1 0.1
0.90625 1 0 0.921875 1 0.1 0.921875 1 0 0.9375
1 0.1 0.9375 1 0 0.953125 1 0.1 0.953125 1
0 0.96875 1 0.1 0.96875 1 0 0.984375 1 0.1
0.984375 1 0 1 1 0.1 1 1 0 
POLYGONS 64 320
4 0 1 2 3 4 3 2 4 5 4
5 4 6 7 4 7 6 8 9 4
9 8 10 11 4 11 10 12 13 4
13 12 14 15 4 15 14 16 17 4
17 16 18 19 4 19 18 20 21 4
21 20 22 23 4 23 22 24 25 4
25 24 26 27 4 27 26 28 29 4
29 28 30 31 4 31 30 32 33 4
33 32 34 35 4 35 34 36 37 4
37 36 38 39 4 39 38 40 41 4
41 40 42 43 4 43 42 44 45 4
45 44 46 47 4 47 46 48 49 4
49 48 50 51 4 51 50 52 53 4
53 52 54 55 4 55 54 56 57 4
57 56 58 59 4 59 58 60 61 4
61 60 62 63 4 63 62 64 65 4
65 64 66 67 4 67 66 68 69 4
69 68 70 71 4 71 70 72 73 4
73 72 74 75 4 75 74 76 77 4
77 76 78 79 4 79 78 80 81 4
81 80 82 83 4 83 82 84 85 4
85 84 86 87 4 87 86 88 89 4
89 88 90 91 4 91 90 92 93 4
93 92 94 95 4 95 94 96 97 4
97 96 98 99 4 99 98 100 101 4
101 100 102 103 4 103 102 104 105 4
105 104 106 107 4 107 106 108 109 4
109 108 110 111 4 111 110 112 113 4
113 112 114 115 4 115 114 116 117 4
117 116 118 119 4 119 118 120 121 4
121 120 122 123 4 123 122 124 125 4
125 124 126 127 4 127 126 128 129 
CELL_DATA 64
FIELD attributes 3
patchID 1 64 float
0 0 0 0 0 0 0 0 0 0 0
0 0 0 0 0 0 0 0 0 0
0 0 0 0 0 0 0 0 0 0
0 0 0 0 0 0 0 0 0 0
0 0 0 0 0 0 0 0 0 0
0 0 0 0 0 0 0 0 0 0
0 0 0 
p 1 64 float
-0.10632 -0.0413971 -0.0228491 -0.0183729 -0.0155097 -0.0133839 -0.0120766 -0.0113233 -0.0108556 -0.0105414 -0.0103299
-0.0101956 -0.0101169 -0.0100803 -0.0100859 -0.0101314 -0.0102098 -0.0103157 -0.010448 -0.0106061 -0.010788
-0.0109931 -0.0112217 -0.0114746 -0.0117535 -0.0120608 -0.0123995 -0.0127732 -0.0131864 -0.0136443 -0.0141532
-0.0147206 -0.0153554 -0.0160677 -0.0168695 -0.0177743 -0.0187968 -0.0199531 -0.0212592 -0.0227298 -0.0243765
-0.0262043 -0.028208 -0.0303669 -0.03264 -0.0349566 -0.0372175 -0.0392746 -0.0409586 -0.0420425 -0.0423816
-0.0416061 -0.0390809 -0.0343465 -0.026883 -0.0156966 0.000494202 0.023658 0.0562393 0.102339 0.167134
0.259803 0.38698 0.551123 
U 3 64 float
1 0 0 1 0 0 1 0 0 1 0
0 1 0 0 1 0 0 1 0 0
1 0 0 1 0 0 1 0 0 1
0 0 1 0 0 1 0 0 1 0
0 1 0 0 1 0 0 1 0 0
1 0 0 1 0 0 1 0 0 1
0 0 1 0 0 1 0 0 1 0
0 1 0 0 1 0 0 1 0 0
1 0 0 1 0 0 1 0 0 1
0 0 1 0 0 1 0 0 1 0
0 1 0 0 1 0 0 1 0 0
1 0 0 1 0 0 1 0 0 1
0 0 1 0 0 1 0 0 1 0
0 1 0 0 1 0 0 1 0 0
1 0 0 1 0 0 1 0 0 1
0 0 1 0 0 1 0 0 1 0
0 1 0 0 1 0 0 1 0 0
1 0 0 1 0 0 1 0 0 1
0 0 1 0 0 1 0 0 1 0
0 
POINT_DATA  130
FIELD attributes 2
p 1 130 float
-0.10632 -0.10632 -0.0738586 -0.0738586 -0.0321231 -0.0321231 -0.020611 -0.020611 -0.0169413 -0.0169413 -0.0144468
-0.0144468 -0.0127303 -0.0127303 -0.0117 -0.0117 -0.0110894 -0.0110894 -0.0106985 -0.0106985 -0.0104357
-0.0104357 -0.0102628 -0.0102628 -0.0101562 -0.0101562 -0.0100986 -0.0100986 -0.0100831 -0.0100831 -0.0101086
-0.0101086 -0.0101706 -0.0101706 -0.0102628 -0.0102628 -0.0103819 -0.0103819 -0.0105271 -0.0105271 -0.0106971
-0.0106971 -0.0108905 -0.0108905 -0.0111074 -0.0111074 -0.0113481 -0.0113481 -0.011614 -0.011614 -0.0119072
-0.0119072 -0.0122302 -0.0122302 -0.0125863 -0.0125863 -0.0129798 -0.0129798 -0.0134153 -0.0134153 -0.0138987
-0.0138987 -0.0144369 -0.0144369 -0.015038 -0.015038 -0.0157115 -0.0157115 -0.0164686 -0.0164686 -0.0173219
-0.0173219 -0.0182856 -0.0182856 -0.0193749 -0.0193749 -0.0206062 -0.0206062 -0.0219945 -0.0219945 -0.0235531
-0.0235531 -0.0252904 -0.0252904 -0.0272062 -0.0272062 -0.0292875 -0.0292875 -0.0315035 -0.0315035 -0.0337983
-0.0337983 -0.0360871 -0.0360871 -0.0382461 -0.0382461 -0.0401166 -0.0401166 -0.0415005 -0.0415005 -0.0422121
-0.0422121 -0.0419938 -0.0419938 -0.0403435 -0.0403435 -0.0367137 -0.0367137 -0.0306148 -0.0306148 -0.0212898
-0.0212898 -0.0076012 -0.0076012 0.0120761 0.0120761 0.0399486 0.0399486 0.0792892 0.0792892 0.134736
0.134736 0.213469 0.213469 0.323391 0.323391 0.469052 0.469052 0.551123 0.551123 
U 3 130 float
1 0 0 1 0 0 1 0 0 1 0
0 1 0 0 1 0 0 1 0 0
1 0 0 1 0 0 1 0 0 1
0 0 1 0 0 1 0 0 1 0
0 1 0 0 1 0 0 1 0 0
1 0 0 1 0 0 1 0 0 1
0 0 1 0 0 1 0 0 1 0
0 1 0 0 1 0 0 1 0 0
1 0 0 1 0 0 1 0 0 1
0 0 1 0 0 1 0 0 1 0
0 1 0 0 1 0 0 1 0 0
1 0 0 1 0 0 1 0 0 1
0 0 1 0 0 1 0 0 1 0
0 1 0 0 1 0 0 1 0 0
1 0 0 1 0 0 1 0 0 1
0 0 1 0 0 1 0 0 1 0
0 1 0 0 1 0 0 1 0 0
1 0 0 1 0 0 1 0 0 1
0 0 1 0 0 1 0 0 1 0
0 1 0 0 1 0 0 1 0 0
1 0 0 1 0 0 1 0 0 1
0 0 1 0 0 1 0 0 1 0
0 1 0 0 1 0 0 1 0 0
1 0 0 1 0 0 1 0 0 1
0 0 1 0 0 1 0 0 1 0
0 1 0 0 1 0 0 1 0 0
1 0 0 1 0 0 1 0 0 1
0 0 1 0 0 1 0 0 1 0
0 1 0 0 1 0 0 1 0 0
1 0 0 1 0 0 1 0 0 1
0 0 1 0 0 1 0 0 1 0
0 1 0 0 1 0 0 1 0 0
1 0 0 1 0 0 1 0 0 1
0 0 1 0 0 1 0 0 1 0
0 1 0 0 1 0 0 1 0 0
1 0 0 1 0 0 1 0 0 1
0 0 1 0 0 1 0 0 1 0
0 1 0 0 1 0 0 1 0 0
1 0 0 1 0 0 1 0 0 
