# vtk DataFile Version 2.0
movingWall
ASCII
DATASET POLYDATA
POINTS 130 float
0 1 0 0 1 0.1 0.015625 1 0.1 0.015625 1
0 0.03125 1 0.1 0.03125 1 0 0.046875 1 0.1
0.046875 1 0 0.0625 1 0.1 0.0625 1 0 0.078125
1 0.1 0.078125 1 0 0.09375 1 0.1 0.09375 1
0 0.109375 1 0.1 0.109375 1 0 0.125 1 0.1
0.125 1 0 0.140625 1 0.1 0.140625 1 0 0.15625
1 0.1 0.15625 1 0 0.171875 1 0.1 0.171875 1
0 0.1875 1 0.1 0.1875 1 0 0.203125 1 0.1
0.203125 1 0 0.21875 1 0.1 0.21875 1 0 0.234375
1 0.1 0.234375 1 0 0.25 1 0.1 0.25 1
0 0.265625 1 0.1 0.265625 1 0 0.28125 1 0.1
0.28125 1 0 0.296875 1 0.1 0.296875 1 0 0.3125
1 0.1 0.3125 1 0 0.328125 1 0.1 0.328125 1
0 0.34375 1 0.1 0.34375 1 0 0.359375 1 0.1
0.359375 1 0 0.375 1 0.1 0.375 1 0 0.390625
1 0.1 0.390625 1 0 0.40625 1 0.1 0.40625 1
0 0.421875 1 0.1 0.421875 1 0 0.4375 1 0.1
0.4375 1 0 0.453125 1 0.1 0.453125 1 0 0.46875
1 0.1 0.46875 1 0 0.484375 1 0.1 0.484375 1
0 0.5 1 0.1 0.5 1 0 0.515625 1 0.1
0.515625 1 0 0.53125 1 0.1 0.53125 1 0 0.546875
1 0.1 0.546875 1 0 0.5625 1 0.1 0.5625 1
0 0.578125 1 0.1 0.578125 1 0 0.59375 1 0.1
0.59375 1 0 0.609375 1 0.1 0.609375 1 0 0.625
1 0.1 0.625 1 0 0.640625 1 0.1 0.640625 1
0 0.65625 1 0.1 0.65625 1 0 0.671875 1 0.1
0.671875 1 0 0.6875 1 0.1 0.6875 1 0 0.703125
1 0.1 0.703125 1 0 0.71875 1 0.1 0.71875 1
0 0.734375 1 0.1 0.734375 1 0 0.75 1 0.1
0.75 1 0 0.765625 1 0.1 0.765625 1 0 0.78125
1 0.1 0.78125 1 0 0.796875 1 0.1 0.796875 1
0 0.8125 1 0.1 0.8125 1 0 0.828125 1 0.1
0.828125 1 0 0.84375 1 0.1 0.84375 1 0 0.859375
1 0.1 0.859375 1 0 0.875 1 0.1 0.875 1
0 0.890625 1 0.1 0.890625 1 0 0.90625 1 0.1
0.90625 1 0 0.921875 1 0.1 0.921875 1 0 0.9375
1 0.1 0.9375 1 0 0.953125 1 0.1 0.953125 1
0 0.96875 1 0.1 0.96875 1 0 0.984375 1 0.1
0.984375 1 0 1 1 0.1 1 1 0 
POLYGONS 64 320
4 0 1 2 3 4 3 2 4 5 4
5 4 6 7 4 7 6 8 9 4
9 8 10 11 4 11 10 12 13 4
13 12 14 15 4 15 14 16 17 4
17 16 18 19 4 19 18 20 21 4
21 20 22 23 4 23 22 24 25 4
25 24 26 27 4 27 26 28 29 4
29 28 30 31 4 31 30 32 33 4
33 32 34 35 4 35 34 36 37 4
37 36 38 39 4 39 38 40 41 4
41 40 42 43 4 43 42 44 45 4
45 44 46 47 4 47 46 48 49 4
49 48 50 51 4 51 50 52 53 4
53 52 54 55 4 55 54 56 57 4
57 56 58 59 4 59 58 60 61 4
61 60 62 63 4 63 62 64 65 4
65 64 66 67 4 67 66 68 69 4
69 68 70 71 4 71 70 72 73 4
73 72 74 75 4 75 74 76 77 4
77 76 78 79 4 79 78 80 81 4
81 80 82 83 4 83 82 84 85 4
85 84 86 87 4 87 86 88 89 4
89 88 90 91 4 91 90 92 93 4
93 92 94 95 4 95 94 96 97 4
97 96 98 99 4 99 98 100 101 4
101 100 102 103 4 103 102 104 105 4
105 104 106 107 4 107 106 108 109 4
109 108 110 111 4 111 110 112 113 4
113 112 114 115 4 115 114 116 117 4
117 116 118 119 4 119 118 120 121 4
121 120 122 123 4 123 122 124 125 4
125 124 126 127 4 127 126 128 129 
CELL_DATA 64
FIELD attributes 3
patchID 1 64 float
0 0 0 0 0 0 0 0 0 0 0
0 0 0 0 0 0 0 0 0 0
0 0 0 0 0 0 0 0 0 0
0 0 0 0 0 0 0 0 0 0
0 0 0 0 0 0 0 0 0 0
0 0 0 0 0 0 0 0 0 0
0 0 0 
p 1 64 float
-0.105273 -0.0402225 -0.0216661 -0.0173246 -0.0146598 -0.0127301 -0.0115916 -0.0109773 -0.0106231 -0.010405 -0.0102785
-0.010223 -0.0102182 -0.0102558 -0.0103396 -0.0104627 -0.0106147 -0.0107887 -0.0109808 -0.011186 -0.0113992
-0.0116173 -0.0118367 -0.0120543 -0.0122668 -0.012472 -0.0126676 -0.0128518 -0.0130233 -0.0131814 -0.0133264
-0.0134591 -0.0135814 -0.0136962 -0.013807 -0.0139188 -0.0140374 -0.0141704 -0.014327 -0.0145186 -0.0147592
-0.0150663 -0.0154618 -0.0159727 -0.0166325 -0.0174809 -0.0185651 -0.019932 -0.0216272 -0.0236653 -0.0260165
-0.0285435 -0.030961 -0.0329482 -0.0336856 -0.0317677 -0.0246332 -0.00975962 0.0157798 0.0572097 0.120609
0.215345 0.346839 0.515115 
U 3 64 float
1 0 0 1 0 0 1 0 0 1 0
0 1 0 0 1 0 0 1 0 0
1 0 0 1 0 0 1 0 0 1
0 0 1 0 0 1 0 0 1 0
0 1 0 0 1 0 0 1 0 0
1 0 0 1 0 0 1 0 0 1
0 0 1 0 0 1 0 0 1 0
0 1 0 0 1 0 0 1 0 0
1 0 0 1 0 0 1 0 0 1
0 0 1 0 0 1 0 0 1 0
0 1 0 0 1 0 0 1 0 0
1 0 0 1 0 0 1 0 0 1
0 0 1 0 0 1 0 0 1 0
0 1 0 0 1 0 0 1 0 0
1 0 0 1 0 0 1 0 0 1
0 0 1 0 0 1 0 0 1 0
0 1 0 0 1 0 0 1 0 0
1 0 0 1 0 0 1 0 0 1
0 0 1 0 0 1 0 0 1 0
0 
POINT_DATA  130
FIELD attributes 2
p 1 130 float
-0.105273 -0.105273 -0.0727478 -0.0727478 -0.0309443 -0.0309443 -0.0194953 -0.0194953 -0.0159922 -0.0159922 -0.013695
-0.013695 -0.0121608 -0.0121608 -0.0112845 -0.0112845 -0.0108002 -0.0108002 -0.010514 -0.010514 -0.0103418
-0.0103418 -0.0102507 -0.0102507 -0.0102206 -0.0102206 -0.010237 -0.010237 -0.0102977 -0.0102977 -0.0104012
-0.0104012 -0.0105387 -0.0105387 -0.0107017 -0.0107017 -0.0108847 -0.0108847 -0.0110834 -0.0110834 -0.0112926
-0.0112926 -0.0115082 -0.0115082 -0.011727 -0.011727 -0.0119455 -0.0119455 -0.0121605 -0.0121605 -0.0123694
-0.0123694 -0.0125698 -0.0125698 -0.0127597 -0.0127597 -0.0129376 -0.0129376 -0.0131023 -0.0131023 -0.0132539
-0.0132539 -0.0133928 -0.0133928 -0.0135203 -0.0135203 -0.0136388 -0.0136388 -0.0137516 -0.0137516 -0.0138629
-0.0138629 -0.0139781 -0.0139781 -0.0141039 -0.0141039 -0.0142487 -0.0142487 -0.0144228 -0.0144228 -0.0146389
-0.0146389 -0.0149127 -0.0149127 -0.0152641 -0.0152641 -0.0157172 -0.0157172 -0.0163026 -0.0163026 -0.0170567
-0.0170567 -0.018023 -0.018023 -0.0192486 -0.0192486 -0.0207796 -0.0207796 -0.0226463 -0.0226463 -0.0248409
-0.0248409 -0.02728 -0.02728 -0.0297523 -0.0297523 -0.0319546 -0.0319546 -0.0333169 -0.0333169 -0.0327266
-0.0327266 -0.0282004 -0.0282004 -0.0171964 -0.0171964 0.00301009 0.00301009 0.0364948 0.0364948 0.0889094
0.0889094 0.167977 0.167977 0.281092 0.281092 0.430977 0.430977 0.515115 0.515115 
U 3 130 float
1 0 0 1 0 0 1 0 0 1 0
0 1 0 0 1 0 0 1 0 0
1 0 0 1 0 0 1 0 0 1
0 0 1 0 0 1 0 0 1 0
0 1 0 0 1 0 0 1 0 0
1 0 0 1 0 0 1 0 0 1
0 0 1 0 0 1 0 0 1 0
0 1 0 0 1 0 0 1 0 0
1 0 0 1 0 0 1 0 0 1
0 0 1 0 0 1 0 0 1 0
0 1 0 0 1 0 0 1 0 0
1 0 0 1 0 0 1 0 0 1
0 0 1 0 0 1 0 0 1 0
0 1 0 0 1 0 0 1 0 0
1 0 0 1 0 0 1 0 0 1
0 0 1 0 0 1 0 0 1 0
0 1 0 0 1 0 0 1 0 0
1 0 0 1 0 0 1 0 0 1
0 0 1 0 0 1 0 0 1 0
0 1 0 0 1 0 0 1 0 0
1 0 0 1 0 0 1 0 0 1
0 0 1 0 0 1 0 0 1 0
0 1 0 0 1 0 0 1 0 0
1 0 0 1 0 0 1 0 0 1
0 0 1 0 0 1 0 0 1 0
0 1 0 0 1 0 0 1 0 0
1 0 0 1 0 0 1 0 0 1
0 0 1 0 0 1 0 0 1 0
0 1 0 0 1 0 0 1 0 0
1 0 0 1 0 0 1 0 0 1
0 0 1 0 0 1 0 0 1 0
0 1 0 0 1 0 0 1 0 0
1 0 0 1 0 0 1 0 0 1
0 0 1 0 0 1 0 0 1 0
0 1 0 0 1 0 0 1 0 0
1 0 0 1 0 0 1 0 0 1
0 0 1 0 0 1 0 0 1 0
0 1 0 0 1 0 0 1 0 0
1 0 0 1 0 0 1 0 0 
