# vtk DataFile Version 2.0
movingWall
ASCII
DATASET POLYDATA
POINTS 130 float
0 1 0 0 1 0.1 0.015625 1 0.1 0.015625 1
0 0.03125 1 0.1 0.03125 1 0 0.046875 1 0.1
0.046875 1 0 0.0625 1 0.1 0.0625 1 0 0.078125
1 0.1 0.078125 1 0 0.09375 1 0.1 0.09375 1
0 0.109375 1 0.1 0.109375 1 0 0.125 1 0.1
0.125 1 0 0.140625 1 0.1 0.140625 1 0 0.15625
1 0.1 0.15625 1 0 0.171875 1 0.1 0.171875 1
0 0.1875 1 0.1 0.1875 1 0 0.203125 1 0.1
0.203125 1 0 0.21875 1 0.1 0.21875 1 0 0.234375
1 0.1 0.234375 1 0 0.25 1 0.1 0.25 1
0 0.265625 1 0.1 0.265625 1 0 0.28125 1 0.1
0.28125 1 0 0.296875 1 0.1 0.296875 1 0 0.3125
1 0.1 0.3125 1 0 0.328125 1 0.1 0.328125 1
0 0.34375 1 0.1 0.34375 1 0 0.359375 1 0.1
0.359375 1 0 0.375 1 0.1 0.375 1 0 0.390625
1 0.1 0.390625 1 0 0.40625 1 0.1 0.40625 1
0 0.421875 1 0.1 0.421875 1 0 0.4375 1 0.1
0.4375 1 0 0.453125 1 0.1 0.453125 1 0 0.46875
1 0.1 0.46875 1 0 0.484375 1 0.1 0.484375 1
0 0.5 1 0.1 0.5 1 0 0.515625 1 0.1
0.515625 1 0 0.53125 1 0.1 0.53125 1 0 0.546875
1 0.1 0.546875 1 0 0.5625 1 0.1 0.5625 1
0 0.578125 1 0.1 0.578125 1 0 0.59375 1 0.1
0.59375 1 0 0.609375 1 0.1 0.609375 1 0 0.625
1 0.1 0.625 1 0 0.640625 1 0.1 0.640625 1
0 0.65625 1 0.1 0.65625 1 0 0.671875 1 0.1
0.671875 1 0 0.6875 1 0.1 0.6875 1 0 0.703125
1 0.1 0.703125 1 0 0.71875 1 0.1 0.71875 1
0 0.734375 1 0.1 0.734375 1 0 0.75 1 0.1
0.75 1 0 0.765625 1 0.1 0.765625 1 0 0.78125
1 0.1 0.78125 1 0 0.796875 1 0.1 0.796875 1
0 0.8125 1 0.1 0.8125 1 0 0.828125 1 0.1
0.828125 1 0 0.84375 1 0.1 0.84375 1 0 0.859375
1 0.1 0.859375 1 0 0.875 1 0.1 0.875 1
0 0.890625 1 0.1 0.890625 1 0 0.90625 1 0.1
0.90625 1 0 0.921875 1 0.1 0.921875 1 0 0.9375
1 0.1 0.9375 1 0 0.953125 1 0.1 0.953125 1
0 0.96875 1 0.1 0.96875 1 0 0.984375 1 0.1
0.984375 1 0 1 1 0.1 1 1 0 
POLYGONS 64 320
4 0 1 2 3 4 3 2 4 5 4
5 4 6 7 4 7 6 8 9 4
9 8 10 11 4 11 10 12 13 4
13 12 14 15 4 15 14 16 17 4
17 16 18 19 4 19 18 20 21 4
21 20 22 23 4 23 22 24 25 4
25 24 26 27 4 27 26 28 29 4
29 28 30 31 4 31 30 32 33 4
33 32 34 35 4 35 34 36 37 4
37 36 38 39 4 39 38 40 41 4
41 40 42 43 4 43 42 44 45 4
45 44 46 47 4 47 46 48 49 4
49 48 50 51 4 51 50 52 53 4
53 52 54 55 4 55 54 56 57 4
57 56 58 59 4 59 58 60 61 4
61 60 62 63 4 63 62 64 65 4
65 64 66 67 4 67 66 68 69 4
69 68 70 71 4 71 70 72 73 4
73 72 74 75 4 75 74 76 77 4
77 76 78 79 4 79 78 80 81 4
81 80 82 83 4 83 82 84 85 4
85 84 86 87 4 87 86 88 89 4
89 88 90 91 4 91 90 92 93 4
93 92 94 95 4 95 94 96 97 4
97 96 98 99 4 99 98 100 101 4
101 100 102 103 4 103 102 104 105 4
105 104 106 107 4 107 106 108 109 4
109 108 110 111 4 111 110 112 113 4
113 112 114 115 4 115 114 116 117 4
117 116 118 119 4 119 118 120 121 4
121 120 122 123 4 123 122 124 125 4
125 124 126 127 4 127 126 128 129 
CELL_DATA 64
FIELD attributes 3
patchID 1 64 float
0 0 0 0 0 0 0 0 0 0 0
0 0 0 0 0 0 0 0 0 0
0 0 0 0 0 0 0 0 0 0
0 0 0 0 0 0 0 0 0 0
0 0 0 0 0 0 0 0 0 0
0 0 0 0 0 0 0 0 0 0
0 0 0 
p 1 64 float
-0.107036 -0.0421341 -0.0235817 -0.019069 -0.0161512 -0.013967 -0.0126049 -0.0118046 -0.0112991 -0.0109552 -0.0107207
-0.0105691 -0.0104784 -0.0104334 -0.0104324 -0.0104743 -0.0105523 -0.010661 -0.0107989 -0.0109672 -0.0111655
-0.0113937 -0.0116531 -0.0119456 -0.012274 -0.0126424 -0.0130555 -0.0135192 -0.0140399 -0.0146255 -0.0152847
-0.0160274 -0.0168641 -0.0178061 -0.0188646 -0.0200502 -0.0213715 -0.0228338 -0.0244373 -0.0261746 -0.0280287
-0.0299699 -0.0319535 -0.033919 -0.0357855 -0.0374581 -0.0388163 -0.03974 -0.0400814 -0.0397725 -0.0385875
-0.0361216 -0.0321589 -0.0263083 -0.017995 -0.00626217 0.0101275 0.0331251 0.0652034 0.110519 0.174394
0.266183 0.39285 0.557015 
U 3 64 float
1 0 0 1 0 0 1 0 0 1 0
0 1 0 0 1 0 0 1 0 0
1 0 0 1 0 0 1 0 0 1
0 0 1 0 0 1 0 0 1 0
0 1 0 0 1 0 0 1 0 0
1 0 0 1 0 0 1 0 0 1
0 0 1 0 0 1 0 0 1 0
0 1 0 0 1 0 0 1 0 0
1 0 0 1 0 0 1 0 0 1
0 0 1 0 0 1 0 0 1 0
0 1 0 0 1 0 0 1 0 0
1 0 0 1 0 0 1 0 0 1
0 0 1 0 0 1 0 0 1 0
0 1 0 0 1 0 0 1 0 0
1 0 0 1 0 0 1 0 0 1
0 0 1 0 0 1 0 0 1 0
0 1 0 0 1 0 0 1 0 0
1 0 0 1 0 0 1 0 0 1
0 0 1 0 0 1 0 0 1 0
0 
POINT_DATA  130
FIELD attributes 2
p 1 130 float
-0.107036 -0.107036 -0.0745851 -0.0745851 -0.0328579 -0.0328579 -0.0213253 -0.0213253 -0.0176101 -0.0176101 -0.0150591
-0.0150591 -0.0132859 -0.0132859 -0.0122048 -0.0122048 -0.0115518 -0.0115518 -0.0111271 -0.0111271 -0.0108379
-0.0108379 -0.0106449 -0.0106449 -0.0105238 -0.0105238 -0.0104559 -0.0104559 -0.0104329 -0.0104329 -0.0104533
-0.0104533 -0.0105133 -0.0105133 -0.0106067 -0.0106067 -0.0107299 -0.0107299 -0.0108831 -0.0108831 -0.0110664
-0.0110664 -0.0112796 -0.0112796 -0.0115234 -0.0115234 -0.0117994 -0.0117994 -0.0121098 -0.0121098 -0.0124582
-0.0124582 -0.0128489 -0.0128489 -0.0132873 -0.0132873 -0.0137795 -0.0137795 -0.0143327 -0.0143327 -0.0149551
-0.0149551 -0.0156561 -0.0156561 -0.0164458 -0.0164458 -0.0173351 -0.0173351 -0.0183353 -0.0183353 -0.0194574
-0.0194574 -0.0207109 -0.0207109 -0.0221027 -0.0221027 -0.0236355 -0.0236355 -0.0253059 -0.0253059 -0.0271017
-0.0271017 -0.0289993 -0.0289993 -0.0309617 -0.0309617 -0.0329362 -0.0329362 -0.0348523 -0.0348523 -0.0366218
-0.0366218 -0.0381372 -0.0381372 -0.0392781 -0.0392781 -0.0399107 -0.0399107 -0.0399269 -0.0399269 -0.03918
-0.03918 -0.0373546 -0.0373546 -0.0341403 -0.0341403 -0.0292336 -0.0292336 -0.0221517 -0.0221517 -0.0121286
-0.0121286 0.00193267 0.00193267 0.0216263 0.0216263 0.0491643 0.0491643 0.0878612 0.0878612 0.142457
0.142457 0.220289 0.220289 0.329517 0.329517 0.474932 0.474932 0.557015 0.557015 
U 3 130 float
1 0 0 1 0 0 1 0 0 1 0
0 1 0 0 1 0 0 1 0 0
1 0 0 1 0 0 1 0 0 1
0 0 1 0 0 1 0 0 1 0
0 1 0 0 1 0 0 1 0 0
1 0 0 1 0 0 1 0 0 1
0 0 1 0 0 1 0 0 1 0
0 1 0 0 1 0 0 1 0 0
1 0 0 1 0 0 1 0 0 1
0 0 1 0 0 1 0 0 1 0
0 1 0 0 1 0 0 1 0 0
1 0 0 1 0 0 1 0 0 1
0 0 1 0 0 1 0 0 1 0
0 1 0 0 1 0 0 1 0 0
1 0 0 1 0 0 1 0 0 1
0 0 1 0 0 1 0 0 1 0
0 1 0 0 1 0 0 1 0 0
1 0 0 1 0 0 1 0 0 1
0 0 1 0 0 1 0 0 1 0
0 1 0 0 1 0 0 1 0 0
1 0 0 1 0 0 1 0 0 1
0 0 1 0 0 1 0 0 1 0
0 1 0 0 1 0 0 1 0 0
1 0 0 1 0 0 1 0 0 1
0 0 1 0 0 1 0 0 1 0
0 1 0 0 1 0 0 1 0 0
1 0 0 1 0 0 1 0 0 1
0 0 1 0 0 1 0 0 1 0
0 1 0 0 1 0 0 1 0 0
1 0 0 1 0 0 1 0 0 1
0 0 1 0 0 1 0 0 1 0
0 1 0 0 1 0 0 1 0 0
1 0 0 1 0 0 1 0 0 1
0 0 1 0 0 1 0 0 1 0
0 1 0 0 1 0 0 1 0 0
1 0 0 1 0 0 1 0 0 1
0 0 1 0 0 1 0 0 1 0
0 1 0 0 1 0 0 1 0 0
1 0 0 1 0 0 1 0 0 
