# vtk DataFile Version 2.0
movingWall
ASCII
DATASET POLYDATA
POINTS 130 float
0 1 0 0 1 0.1 0.015625 1 0.1 0.015625 1
0 0.03125 1 0.1 0.03125 1 0 0.046875 1 0.1
0.046875 1 0 0.0625 1 0.1 0.0625 1 0 0.078125
1 0.1 0.078125 1 0 0.09375 1 0.1 0.09375 1
0 0.109375 1 0.1 0.109375 1 0 0.125 1 0.1
0.125 1 0 0.140625 1 0.1 0.140625 1 0 0.15625
1 0.1 0.15625 1 0 0.171875 1 0.1 0.171875 1
0 0.1875 1 0.1 0.1875 1 0 0.203125 1 0.1
0.203125 1 0 0.21875 1 0.1 0.21875 1 0 0.234375
1 0.1 0.234375 1 0 0.25 1 0.1 0.25 1
0 0.265625 1 0.1 0.265625 1 0 0.28125 1 0.1
0.28125 1 0 0.296875 1 0.1 0.296875 1 0 0.3125
1 0.1 0.3125 1 0 0.328125 1 0.1 0.328125 1
0 0.34375 1 0.1 0.34375 1 0 0.359375 1 0.1
0.359375 1 0 0.375 1 0.1 0.375 1 0 0.390625
1 0.1 0.390625 1 0 0.40625 1 0.1 0.40625 1
0 0.421875 1 0.1 0.421875 1 0 0.4375 1 0.1
0.4375 1 0 0.453125 1 0.1 0.453125 1 0 0.46875
1 0.1 0.46875 1 0 0.484375 1 0.1 0.484375 1
0 0.5 1 0.1 0.5 1 0 0.515625 1 0.1
0.515625 1 0 0.53125 1 0.1 0.53125 1 0 0.546875
1 0.1 0.546875 1 0 0.5625 1 0.1 0.5625 1
0 0.578125 1 0.1 0.578125 1 0 0.59375 1 0.1
0.59375 1 0 0.609375 1 0.1 0.609375 1 0 0.625
1 0.1 0.625 1 0 0.640625 1 0.1 0.640625 1
0 0.65625 1 0.1 0.65625 1 0 0.671875 1 0.1
0.671875 1 0 0.6875 1 0.1 0.6875 1 0 0.703125
1 0.1 0.703125 1 0 0.71875 1 0.1 0.71875 1
0 0.734375 1 0.1 0.734375 1 0 0.75 1 0.1
0.75 1 0 0.765625 1 0.1 0.765625 1 0 0.78125
1 0.1 0.78125 1 0 0.796875 1 0.1 0.796875 1
0 0.8125 1 0.1 0.8125 1 0 0.828125 1 0.1
0.828125 1 0 0.84375 1 0.1 0.84375 1 0 0.859375
1 0.1 0.859375 1 0 0.875 1 0.1 0.875 1
0 0.890625 1 0.1 0.890625 1 0 0.90625 1 0.1
0.90625 1 0 0.921875 1 0.1 0.921875 1 0 0.9375
1 0.1 0.9375 1 0 0.953125 1 0.1 0.953125 1
0 0.96875 1 0.1 0.96875 1 0 0.984375 1 0.1
0.984375 1 0 1 1 0.1 1 1 0 
POLYGONS 64 320
4 0 1 2 3 4 3 2 4 5 4
5 4 6 7 4 7 6 8 9 4
9 8 10 11 4 11 10 12 13 4
13 12 14 15 4 15 14 16 17 4
17 16 18 19 4 19 18 20 21 4
21 20 22 23 4 23 22 24 25 4
25 24 26 27 4 27 26 28 29 4
29 28 30 31 4 31 30 32 33 4
33 32 34 35 4 35 34 36 37 4
37 36 38 39 4 39 38 40 41 4
41 40 42 43 4 43 42 44 45 4
45 44 46 47 4 47 46 48 49 4
49 48 50 51 4 51 50 52 53 4
53 52 54 55 4 55 54 56 57 4
57 56 58 59 4 59 58 60 61 4
61 60 62 63 4 63 62 64 65 4
65 64 66 67 4 67 66 68 69 4
69 68 70 71 4 71 70 72 73 4
73 72 74 75 4 75 74 76 77 4
77 76 78 79 4 79 78 80 81 4
81 80 82 83 4 83 82 84 85 4
85 84 86 87 4 87 86 88 89 4
89 88 90 91 4 91 90 92 93 4
93 92 94 95 4 95 94 96 97 4
97 96 98 99 4 99 98 100 101 4
101 100 102 103 4 103 102 104 105 4
105 104 106 107 4 107 106 108 109 4
109 108 110 111 4 111 110 112 113 4
113 112 114 115 4 115 114 116 117 4
117 116 118 119 4 119 118 120 121 4
121 120 122 123 4 123 122 124 125 4
125 124 126 127 4 127 126 128 129 
CELL_DATA 64
FIELD attributes 3
patchID 1 64 float
0 0 0 0 0 0 0 0 0 0 0
0 0 0 0 0 0 0 0 0 0
0 0 0 0 0 0 0 0 0 0
0 0 0 0 0 0 0 0 0 0
0 0 0 0 0 0 0 0 0 0
0 0 0 0 0 0 0 0 0 0
0 0 0 
p 1 64 float
-0.124673 -0.0598646 -0.0424803 -0.0395385 -0.0380211 -0.0369102 -0.0363167 -0.0360112 -0.0357376 -0.0353661 -0.0348516
-0.0341825 -0.0333623 -0.0324052 -0.0313333 -0.030174 -0.0289523 -0.0276877 -0.0263976 -0.025097 -0.0237969
-0.0225047 -0.0212275 -0.0199705 -0.0187354 -0.0175229 -0.0163338 -0.0151675 -0.0140232 -0.0129004 -0.0117969
-0.0107096 -0.00963808 -0.00858219 -0.00753881 -0.00650559 -0.00548103 -0.00446292 -0.00344914 -0.0024382 -0.00142858
-0.0004185 0.000593015 0.00160052 0.00260436 0.00361576 0.00462497 0.00562473 0.00661196 0.0075724 0.00848356
0.00931426 0.0100146 0.0105307 0.0107734 0.0106505 0.0102095 0.00975062 0.0109817 0.0197731 0.0481606
0.114367 0.235116 0.411129 
U 3 64 float
1 0 0 1 0 0 1 0 0 1 0
0 1 0 0 1 0 0 1 0 0
1 0 0 1 0 0 1 0 0 1
0 0 1 0 0 1 0 0 1 0
0 1 0 0 1 0 0 1 0 0
1 0 0 1 0 0 1 0 0 1
0 0 1 0 0 1 0 0 1 0
0 1 0 0 1 0 0 1 0 0
1 0 0 1 0 0 1 0 0 1
0 0 1 0 0 1 0 0 1 0
0 1 0 0 1 0 0 1 0 0
1 0 0 1 0 0 1 0 0 1
0 0 1 0 0 1 0 0 1 0
0 1 0 0 1 0 0 1 0 0
1 0 0 1 0 0 1 0 0 1
0 0 1 0 0 1 0 0 1 0
0 1 0 0 1 0 0 1 0 0
1 0 0 1 0 0 1 0 0 1
0 0 1 0 0 1 0 0 1 0
0 
POINT_DATA  130
FIELD attributes 2
p 1 130 float
-0.124673 -0.124673 -0.0922688 -0.0922688 -0.0511725 -0.0511725 -0.0410094 -0.0410094 -0.0387798 -0.0387798 -0.0374657
-0.0374657 -0.0366134 -0.0366134 -0.0361639 -0.0361639 -0.0358744 -0.0358744 -0.0355518 -0.0355518 -0.0351088
-0.0351088 -0.034517 -0.034517 -0.0337724 -0.0337724 -0.0328837 -0.0328837 -0.0318693 -0.0318693 -0.0307536
-0.0307536 -0.0295631 -0.0295631 -0.02832 -0.02832 -0.0270426 -0.0270426 -0.0257473 -0.0257473 -0.0244469
-0.0244469 -0.0231508 -0.0231508 -0.0218661 -0.0218661 -0.020599 -0.020599 -0.019353 -0.019353 -0.0181291
-0.0181291 -0.0169284 -0.0169284 -0.0157507 -0.0157507 -0.0145954 -0.0145954 -0.0134618 -0.0134618 -0.0123487
-0.0123487 -0.0112532 -0.0112532 -0.0101738 -0.0101738 -0.00911014 -0.00911014 -0.0080605 -0.0080605 -0.0070222
-0.0070222 -0.00599331 -0.00599331 -0.00497197 -0.00497197 -0.00395603 -0.00395603 -0.00294367 -0.00294367 -0.00193339
-0.00193339 -0.00092354 -0.00092354 8.72575e-05 8.72575e-05 0.00109677 0.00109677 0.00210244 0.00210244 0.00311006
0.00311006 0.00412036 0.00412036 0.00512485 0.00512485 0.00611835 0.00611835 0.00709218 0.00709218 0.00802798
0.00802798 0.00889891 0.00889891 0.00966443 0.00966443 0.0102727 0.0102727 0.0106521 0.0106521 0.010712
0.010712 0.01043 0.01043 0.00998006 0.00998006 0.0103662 0.0103662 0.0153774 0.0153774 0.0339669
0.0339669 0.0812638 0.0812638 0.174742 0.174742 0.323123 0.323123 0.411129 0.411129 
U 3 130 float
1 0 0 1 0 0 1 0 0 1 0
0 1 0 0 1 0 0 1 0 0
1 0 0 1 0 0 1 0 0 1
0 0 1 0 0 1 0 0 1 0
0 1 0 0 1 0 0 1 0 0
1 0 0 1 0 0 1 0 0 1
0 0 1 0 0 1 0 0 1 0
0 1 0 0 1 0 0 1 0 0
1 0 0 1 0 0 1 0 0 1
0 0 1 0 0 1 0 0 1 0
0 1 0 0 1 0 0 1 0 0
1 0 0 1 0 0 1 0 0 1
0 0 1 0 0 1 0 0 1 0
0 1 0 0 1 0 0 1 0 0
1 0 0 1 0 0 1 0 0 1
0 0 1 0 0 1 0 0 1 0
0 1 0 0 1 0 0 1 0 0
1 0 0 1 0 0 1 0 0 1
0 0 1 0 0 1 0 0 1 0
0 1 0 0 1 0 0 1 0 0
1 0 0 1 0 0 1 0 0 1
0 0 1 0 0 1 0 0 1 0
0 1 0 0 1 0 0 1 0 0
1 0 0 1 0 0 1 0 0 1
0 0 1 0 0 1 0 0 1 0
0 1 0 0 1 0 0 1 0 0
1 0 0 1 0 0 1 0 0 1
0 0 1 0 0 1 0 0 1 0
0 1 0 0 1 0 0 1 0 0
1 0 0 1 0 0 1 0 0 1
0 0 1 0 0 1 0 0 1 0
0 1 0 0 1 0 0 1 0 0
1 0 0 1 0 0 1 0 0 1
0 0 1 0 0 1 0 0 1 0
0 1 0 0 1 0 0 1 0 0
1 0 0 1 0 0 1 0 0 1
0 0 1 0 0 1 0 0 1 0
0 1 0 0 1 0 0 1 0 0
1 0 0 1 0 0 1 0 0 
