# vtk DataFile Version 2.0
movingWall
ASCII
DATASET POLYDATA
POINTS 130 float
0 1 0 0 1 0.1 0.015625 1 0.1 0.015625 1
0 0.03125 1 0.1 0.03125 1 0 0.046875 1 0.1
0.046875 1 0 0.0625 1 0.1 0.0625 1 0 0.078125
1 0.1 0.078125 1 0 0.09375 1 0.1 0.09375 1
0 0.109375 1 0.1 0.109375 1 0 0.125 1 0.1
0.125 1 0 0.140625 1 0.1 0.140625 1 0 0.15625
1 0.1 0.15625 1 0 0.171875 1 0.1 0.171875 1
0 0.1875 1 0.1 0.1875 1 0 0.203125 1 0.1
0.203125 1 0 0.21875 1 0.1 0.21875 1 0 0.234375
1 0.1 0.234375 1 0 0.25 1 0.1 0.25 1
0 0.265625 1 0.1 0.265625 1 0 0.28125 1 0.1
0.28125 1 0 0.296875 1 0.1 0.296875 1 0 0.3125
1 0.1 0.3125 1 0 0.328125 1 0.1 0.328125 1
0 0.34375 1 0.1 0.34375 1 0 0.359375 1 0.1
0.359375 1 0 0.375 1 0.1 0.375 1 0 0.390625
1 0.1 0.390625 1 0 0.40625 1 0.1 0.40625 1
0 0.421875 1 0.1 0.421875 1 0 0.4375 1 0.1
0.4375 1 0 0.453125 1 0.1 0.453125 1 0 0.46875
1 0.1 0.46875 1 0 0.484375 1 0.1 0.484375 1
0 0.5 1 0.1 0.5 1 0 0.515625 1 0.1
0.515625 1 0 0.53125 1 0.1 0.53125 1 0 0.546875
1 0.1 0.546875 1 0 0.5625 1 0.1 0.5625 1
0 0.578125 1 0.1 0.578125 1 0 0.59375 1 0.1
0.59375 1 0 0.609375 1 0.1 0.609375 1 0 0.625
1 0.1 0.625 1 0 0.640625 1 0.1 0.640625 1
0 0.65625 1 0.1 0.65625 1 0 0.671875 1 0.1
0.671875 1 0 0.6875 1 0.1 0.6875 1 0 0.703125
1 0.1 0.703125 1 0 0.71875 1 0.1 0.71875 1
0 0.734375 1 0.1 0.734375 1 0 0.75 1 0.1
0.75 1 0 0.765625 1 0.1 0.765625 1 0 0.78125
1 0.1 0.78125 1 0 0.796875 1 0.1 0.796875 1
0 0.8125 1 0.1 0.8125 1 0 0.828125 1 0.1
0.828125 1 0 0.84375 1 0.1 0.84375 1 0 0.859375
1 0.1 0.859375 1 0 0.875 1 0.1 0.875 1
0 0.890625 1 0.1 0.890625 1 0 0.90625 1 0.1
0.90625 1 0 0.921875 1 0.1 0.921875 1 0 0.9375
1 0.1 0.9375 1 0 0.953125 1 0.1 0.953125 1
0 0.96875 1 0.1 0.96875 1 0 0.984375 1 0.1
0.984375 1 0 1 1 0.1 1 1 0 
POLYGONS 64 320
4 0 1 2 3 4 3 2 4 5 4
5 4 6 7 4 7 6 8 9 4
9 8 10 11 4 11 10 12 13 4
13 12 14 15 4 15 14 16 17 4
17 16 18 19 4 19 18 20 21 4
21 20 22 23 4 23 22 24 25 4
25 24 26 27 4 27 26 28 29 4
29 28 30 31 4 31 30 32 33 4
33 32 34 35 4 35 34 36 37 4
37 36 38 39 4 39 38 40 41 4
41 40 42 43 4 43 42 44 45 4
45 44 46 47 4 47 46 48 49 4
49 48 50 51 4 51 50 52 53 4
53 52 54 55 4 55 54 56 57 4
57 56 58 59 4 59 58 60 61 4
61 60 62 63 4 63 62 64 65 4
65 64 66 67 4 67 66 68 69 4
69 68 70 71 4 71 70 72 73 4
73 72 74 75 4 75 74 76 77 4
77 76 78 79 4 79 78 80 81 4
81 80 82 83 4 83 82 84 85 4
85 84 86 87 4 87 86 88 89 4
89 88 90 91 4 91 90 92 93 4
93 92 94 95 4 95 94 96 97 4
97 96 98 99 4 99 98 100 101 4
101 100 102 103 4 103 102 104 105 4
105 104 106 107 4 107 106 108 109 4
109 108 110 111 4 111 110 112 113 4
113 112 114 115 4 115 114 116 117 4
117 116 118 119 4 119 118 120 121 4
121 120 122 123 4 123 122 124 125 4
125 124 126 127 4 127 126 128 129 
CELL_DATA 64
FIELD attributes 3
patchID 1 64 float
0 0 0 0 0 0 0 0 0 0 0
0 0 0 0 0 0 0 0 0 0
0 0 0 0 0 0 0 0 0 0
0 0 0 0 0 0 0 0 0 0
0 0 0 0 0 0 0 0 0 0
0 0 0 0 0 0 0 0 0 0
0 0 0 
p 1 64 float
-0.10542 -0.0404701 -0.0219182 -0.0174692 -0.0146512 -0.0125737 -0.0113102 -0.0105932 -0.0101536 -0.00986094 -0.00966575
-0.00954407 -0.00947459 -0.00944523 -0.00945696 -0.00950693 -0.00958763 -0.00969359 -0.00982386 -0.00997644 -0.010149
-0.0103407 -0.0105514 -0.0107815 -0.0110322 -0.0113051 -0.0116021 -0.0119256 -0.0122786 -0.0126645 -0.0130875
-0.0135525 -0.0140655 -0.0146337 -0.0152656 -0.0159718 -0.0167645 -0.0176586 -0.0186712 -0.0198219 -0.0211325
-0.0226252 -0.0243209 -0.0262352 -0.0283727 -0.0307198 -0.0332302 -0.0358207 -0.0383371 -0.0405825 -0.0422529
-0.0431361 -0.0426761 -0.0399748 -0.0341905 -0.0243712 -0.00927897 0.0131872 0.045568 0.092001 0.157576
0.25131 0.37941 0.543935 
U 3 64 float
1 0 0 1 0 0 1 0 0 1 0
0 1 0 0 1 0 0 1 0 0
1 0 0 1 0 0 1 0 0 1
0 0 1 0 0 1 0 0 1 0
0 1 0 0 1 0 0 1 0 0
1 0 0 1 0 0 1 0 0 1
0 0 1 0 0 1 0 0 1 0
0 1 0 0 1 0 0 1 0 0
1 0 0 1 0 0 1 0 0 1
0 0 1 0 0 1 0 0 1 0
0 1 0 0 1 0 0 1 0 0
1 0 0 1 0 0 1 0 0 1
0 0 1 0 0 1 0 0 1 0
0 1 0 0 1 0 0 1 0 0
1 0 0 1 0 0 1 0 0 1
0 0 1 0 0 1 0 0 1 0
0 1 0 0 1 0 0 1 0 0
1 0 0 1 0 0 1 0 0 1
0 0 1 0 0 1 0 0 1 0
0 
POINT_DATA  130
FIELD attributes 2
p 1 130 float
-0.10542 -0.10542 -0.0729451 -0.0729451 -0.0311942 -0.0311942 -0.0196937 -0.0196937 -0.0160602 -0.0160602 -0.0136125
-0.0136125 -0.0119419 -0.0119419 -0.0109517 -0.0109517 -0.0103734 -0.0103734 -0.0100073 -0.0100073 -0.00976335
-0.00976335 -0.00960491 -0.00960491 -0.00950933 -0.00950933 -0.00945991 -0.00945991 -0.0094511 -0.0094511 -0.00948195
-0.00948195 -0.00954728 -0.00954728 -0.00964061 -0.00964061 -0.00975872 -0.00975872 -0.00990015 -0.00990015 -0.0100627
-0.0100627 -0.0102449 -0.0102449 -0.0104461 -0.0104461 -0.0106664 -0.0106664 -0.0109068 -0.0109068 -0.0111687
-0.0111687 -0.0114536 -0.0114536 -0.0117639 -0.0117639 -0.0121021 -0.0121021 -0.0124716 -0.0124716 -0.012876
-0.012876 -0.01332 -0.01332 -0.013809 -0.013809 -0.0143496 -0.0143496 -0.0149496 -0.0149496 -0.0156187
-0.0156187 -0.0163682 -0.0163682 -0.0172116 -0.0172116 -0.0181649 -0.0181649 -0.0192466 -0.0192466 -0.0204772
-0.0204772 -0.0218788 -0.0218788 -0.0234731 -0.0234731 -0.0252781 -0.0252781 -0.027304 -0.027304 -0.0295462
-0.0295462 -0.031975 -0.031975 -0.0345255 -0.0345255 -0.0370789 -0.0370789 -0.0394598 -0.0394598 -0.0414177
-0.0414177 -0.0426945 -0.0426945 -0.0429061 -0.0429061 -0.0413254 -0.0413254 -0.0370826 -0.0370826 -0.0292809
-0.0292809 -0.0168251 -0.0168251 0.00195411 0.00195411 0.0293776 0.0293776 0.0687845 0.0687845 0.124789
0.124789 0.204443 0.204443 0.31536 0.31536 0.461673 0.461673 0.543935 0.543935 
U 3 130 float
1 0 0 1 0 0 1 0 0 1 0
0 1 0 0 1 0 0 1 0 0
1 0 0 1 0 0 1 0 0 1
0 0 1 0 0 1 0 0 1 0
0 1 0 0 1 0 0 1 0 0
1 0 0 1 0 0 1 0 0 1
0 0 1 0 0 1 0 0 1 0
0 1 0 0 1 0 0 1 0 0
1 0 0 1 0 0 1 0 0 1
0 0 1 0 0 1 0 0 1 0
0 1 0 0 1 0 0 1 0 0
1 0 0 1 0 0 1 0 0 1
0 0 1 0 0 1 0 0 1 0
0 1 0 0 1 0 0 1 0 0
1 0 0 1 0 0 1 0 0 1
0 0 1 0 0 1 0 0 1 0
0 1 0 0 1 0 0 1 0 0
1 0 0 1 0 0 1 0 0 1
0 0 1 0 0 1 0 0 1 0
0 1 0 0 1 0 0 1 0 0
1 0 0 1 0 0 1 0 0 1
0 0 1 0 0 1 0 0 1 0
0 1 0 0 1 0 0 1 0 0
1 0 0 1 0 0 1 0 0 1
0 0 1 0 0 1 0 0 1 0
0 1 0 0 1 0 0 1 0 0
1 0 0 1 0 0 1 0 0 1
0 0 1 0 0 1 0 0 1 0
0 1 0 0 1 0 0 1 0 0
1 0 0 1 0 0 1 0 0 1
0 0 1 0 0 1 0 0 1 0
0 1 0 0 1 0 0 1 0 0
1 0 0 1 0 0 1 0 0 1
0 0 1 0 0 1 0 0 1 0
0 1 0 0 1 0 0 1 0 0
1 0 0 1 0 0 1 0 0 1
0 0 1 0 0 1 0 0 1 0
0 1 0 0 1 0 0 1 0 0
1 0 0 1 0 0 1 0 0 
